<svg width="32" height="32" viewBox="0 0 32 32" fill="none" xmlns="http://www.w3.org/2000/svg">
<path d="M15 8H10C8.89543 8 8 8.89543 8 10V22C8 23.1046 8.89543 24 10 24H22C23.1046 24 24 23.1046 24 22V17" stroke="white" stroke-width="2" stroke-linecap="round"/>
<path d="M24.1923 12.4853C24.1923 13.0376 24.64 13.4853 25.1923 13.4853C25.7446 13.4853 26.1923 13.0376 26.1923 12.4853L24.1923 12.4853ZM25.1923 6.82843L26.1923 6.82843L26.1923 5.82843L25.1923 5.82843L25.1923 6.82843ZM19.5355 5.82843C18.9832 5.82843 18.5355 6.27615 18.5355 6.82843C18.5355 7.38072 18.9832 7.82843 19.5355 7.82843L19.5355 5.82843ZM26.1923 12.4853L26.1923 6.82843L24.1923 6.82843L24.1923 12.4853L26.1923 12.4853ZM25.1923 5.82843L19.5355 5.82843L19.5355 7.82843L25.1923 7.82843L25.1923 5.82843Z" fill="white"/>
<rect x="25.1924" y="8.24268" width="11" height="2" transform="rotate(135 25.1924 8.24268)" fill="white"/>
</svg>
