<svg width="16" height="16" viewBox="0 0 16 16" fill="#A3A3A3" xmlns="http://www.w3.org/2000/svg">
<g id="arrows">
<g id="Vector">
<mask id="path-1-outside-1_3950_6958" maskUnits="userSpaceOnUse" x="0.5" y="1" width="15" height="14" fill="black">
<rect fill="white" x="0.5" y="1" width="15" height="14"/>
<path fill-rule="evenodd" clip-rule="evenodd" d="M1.5 5L4.5 2L7.5 5L6.8 5.7L5 3.9V14H4V3.9L2.2 5.7L1.5 5ZM12 12.1L13.8 10.3L14.5 11L11.5 14L8.5 11L9.2 10.3L11 12.1V2H12V12.1Z"/>
</mask>
<path fill-rule="evenodd" clip-rule="evenodd" d="M1.5 5L4.5 2L7.5 5L6.8 5.7L5 3.9V14H4V3.9L2.2 5.7L1.5 5ZM12 12.1L13.8 10.3L14.5 11L11.5 14L8.5 11L9.2 10.3L11 12.1V2H12V12.1Z" fill="#A3A3A3"/>
<path d="M4.5 2L4.67678 1.82322L4.5 1.64645L4.32322 1.82322L4.5 2ZM1.5 5L1.32322 4.82322L1.14645 5L1.32322 5.17678L1.5 5ZM7.5 5L7.67678 5.17678L7.85355 5L7.67678 4.82322L7.5 5ZM6.8 5.7L6.62322 5.87678L6.8 6.05355L6.97678 5.87678L6.8 5.7ZM5 3.9L5.17678 3.72322L4.75 3.29645V3.9H5ZM5 14V14.25H5.25V14H5ZM4 14H3.75V14.25H4V14ZM4 3.9H4.25V3.29645L3.82322 3.72322L4 3.9ZM2.2 5.7L2.02322 5.87678L2.2 6.05355L2.37678 5.87678L2.2 5.7ZM13.8 10.3L13.9768 10.1232L13.8 9.94645L13.6232 10.1232L13.8 10.3ZM12 12.1H11.75V12.7036L12.1768 12.2768L12 12.1ZM14.5 11L14.6768 11.1768L14.8536 11L14.6768 10.8232L14.5 11ZM11.5 14L11.3232 14.1768L11.5 14.3536L11.6768 14.1768L11.5 14ZM8.5 11L8.32322 10.8232L8.14645 11L8.32322 11.1768L8.5 11ZM9.2 10.3L9.37678 10.1232L9.2 9.94645L9.02322 10.1232L9.2 10.3ZM11 12.1L10.8232 12.2768L11.25 12.7036V12.1H11ZM11 2V1.75H10.75V2H11ZM12 2H12.25V1.75H12V2ZM4.32322 1.82322L1.32322 4.82322L1.67678 5.17678L4.67678 2.17678L4.32322 1.82322ZM7.67678 4.82322L4.67678 1.82322L4.32322 2.17678L7.32322 5.17678L7.67678 4.82322ZM6.97678 5.87678L7.67678 5.17678L7.32322 4.82322L6.62322 5.52322L6.97678 5.87678ZM4.82322 4.07678L6.62322 5.87678L6.97678 5.52322L5.17678 3.72322L4.82322 4.07678ZM5.25 14V3.9H4.75V14H5.25ZM4 14.25H5V13.75H4V14.25ZM3.75 3.9V14H4.25V3.9H3.75ZM2.37678 5.87678L4.17678 4.07678L3.82322 3.72322L2.02322 5.52322L2.37678 5.87678ZM1.32322 5.17678L2.02322 5.87678L2.37678 5.52322L1.67678 4.82322L1.32322 5.17678ZM13.6232 10.1232L11.8232 11.9232L12.1768 12.2768L13.9768 10.4768L13.6232 10.1232ZM14.6768 10.8232L13.9768 10.1232L13.6232 10.4768L14.3232 11.1768L14.6768 10.8232ZM11.6768 14.1768L14.6768 11.1768L14.3232 10.8232L11.3232 13.8232L11.6768 14.1768ZM8.32322 11.1768L11.3232 14.1768L11.6768 13.8232L8.67678 10.8232L8.32322 11.1768ZM9.02322 10.1232L8.32322 10.8232L8.67678 11.1768L9.37678 10.4768L9.02322 10.1232ZM11.1768 11.9232L9.37678 10.1232L9.02322 10.4768L10.8232 12.2768L11.1768 11.9232ZM10.75 2V12.1H11.25V2H10.75ZM12 1.75H11V2.25H12V1.75ZM12.25 12.1V2H11.75V12.1H12.25Z" fill="#A3A3A3" mask="url(#path-1-outside-1_3950_6958)"/>
</g>
</g>
</svg>
