<svg width="24" height="24" viewBox="0 0 24 24" fill="none" xmlns="http://www.w3.org/2000/svg">
<path fill-rule="evenodd" clip-rule="evenodd" d="M6.02326 23.301H1.98801C1.13992 23.301 0.721279 23.301 0.465719 23.1376C0.189946 22.9587 0.0213253 22.6625 0.000836185 22.3355C-0.0143922 22.0342 0.194929 21.6663 0.61385 20.9309L10.5779 3.36778C11.0019 2.62187 11.2164 2.24919 11.4872 2.11102C11.7785 1.96289 12.1257 1.96289 12.417 2.11102C12.6878 2.24891 12.9024 2.62187 13.3263 3.36778L15.3746 6.94342L15.3851 6.96169C15.8431 7.76188 16.0754 8.16751 16.1767 8.59335C16.2892 9.05823 16.2892 9.54859 16.1767 10.0135C16.0746 10.4426 15.8448 10.8513 15.3799 11.6634L10.146 20.9154L10.1324 20.9392C9.67144 21.746 9.43803 22.1547 9.11408 22.4631C8.76161 22.8004 8.33771 23.0454 7.87283 23.1836C7.44892 23.301 6.97352 23.301 6.02326 23.301Z" fill="white"/>
<path fill-rule="evenodd" clip-rule="evenodd" d="M16.2144 23.301H21.9968C22.8498 23.301 23.279 23.301 23.5346 23.1326C23.8103 22.9538 23.9839 22.6522 23.9995 22.3255C24.0141 22.034 23.8092 21.6804 23.4078 20.9876C23.3939 20.9641 23.3801 20.94 23.366 20.9156L20.4695 15.9606L20.4366 15.9047C20.0295 15.2163 19.8241 14.8688 19.5602 14.7346C19.2692 14.5864 18.9267 14.5864 18.6357 14.7346C18.3702 14.8724 18.1556 15.2352 17.7317 15.9656L14.8455 20.9206L14.8355 20.9378C14.413 21.6671 14.202 22.0315 14.2173 22.3305C14.2378 22.6575 14.4064 22.9587 14.6821 23.1376C14.9324 23.301 15.3613 23.301 16.2144 23.301Z" fill="white"/>
</svg>
