<?xml version="1.0" standalone="no"?>
<!DOCTYPE svg PUBLIC "-//W3C//DTD SVG 20010904//EN"
 "http://www.w3.org/TR/2001/REC-SVG-20010904/DTD/svg10.dtd">
<svg version="1.0" xmlns="http://www.w3.org/2000/svg"
 width="75.000000pt" height="75.000000pt" viewBox="0 0 400.000000 400.000000"
 preserveAspectRatio="xMidYMid meet">

<g transform="translate(0.000000,400.000000) scale(0.100000,-0.100000)"
fill="#000000" stroke="none">
<path d="M1448 3278 c-9 -7 -78 -121 -154 -253 -76 -132 -193 -336 -260 -454
l-123 -214 16 -31 c21 -41 469 -820 500 -868 l23 -38 534 0 c495 0 534 1 548
18 13 14 404 689 503 868 l28 50 -120 210 c-336 584 -387 671 -405 697 l-19
27 -528 0 c-406 0 -531 -3 -543 -12z m1085 -135 c131 -226 431 -750 439 -769
9 -19 2 -37 -39 -111 -105 -188 -417 -729 -435 -755 l-19 -28 -317 0 c-174 0
-322 4 -328 8 -6 4 -66 104 -134 222 -68 118 -179 311 -247 429 l-124 214 62
106 c33 58 102 177 152 264 l91 157 128 0 c88 0 128 -3 128 -11 0 -6 -61 -117
-135 -247 -74 -129 -138 -245 -141 -257 -4 -17 31 -87 136 -271 78 -137 153
-266 166 -286 l24 -38 220 0 220 0 23 38 c66 104 307 534 307 546 0 13 -170
314 -408 724 -40 68 -72 127 -72 132 0 6 54 10 129 10 l129 0 45 -77z m-524
-295 c76 -121 281 -493 277 -503 -6 -16 -240 -426 -273 -479 -14 -21 -28 -34
-33 -30 -5 5 -74 123 -154 263 l-146 255 18 30 c10 17 76 133 147 259 72 125
135 227 140 227 6 0 17 -10 24 -22z"/>
<path d="M1899 2498 c-104 -60 -105 -225 -3 -289 40 -24 129 -28 170 -6 90 47
118 160 59 248 -44 68 -152 91 -226 47z"/>
<path d="M1483 1135 c-3 -9 -3 -94 0 -188 6 -212 3 -207 142 -207 126 0 125
-1 125 149 0 145 -1 146 -111 146 l-78 0 -3 55 c-3 54 -4 55 -36 58 -23 2 -34
-2 -39 -13z m197 -245 l0 -81 -57 3 -58 3 -3 64 c-4 88 -2 91 63 91 l55 0 0
-80z"/>
<path d="M1820 1109 l0 -40 38 3 c35 3 37 5 40 41 l3 37 -40 0 -41 0 0 -41z"/>
<path d="M2275 1125 c-16 -15 -25 -36 -25 -55 l0 -30 -80 0 -80 0 0 45 c0 45
0 45 -34 45 -34 0 -35 -1 -38 -42 -3 -40 -5 -43 -35 -46 -30 -3 -33 -6 -33
-37 0 -31 3 -34 33 -37 l32 -3 5 -98 c6 -118 13 -127 102 -127 l58 0 0 34 c0
34 -1 35 -42 38 l-43 3 0 75 0 75 75 0 75 0 3 -113 3 -113 37 3 37 3 3 107 3
107 42 3 c41 3 42 4 42 38 0 34 -1 35 -42 38 -29 2 -43 8 -43 17 0 9 14 15 43
17 41 3 42 4 45 41 l3 37 -61 0 c-51 0 -65 -4 -85 -25z"/>
<path d="M2470 1110 c0 -39 1 -40 35 -40 34 0 35 1 35 40 0 39 -1 40 -35 40
-34 0 -35 -1 -35 -40z"/>
<path d="M1820 890 l0 -150 40 0 40 0 0 150 0 150 -40 0 -40 0 0 -150z"/>
<path d="M2470 890 l0 -150 35 0 35 0 0 150 0 150 -35 0 -35 0 0 -150z"/>
</g>
</svg>
