<svg width="24" height="24" viewBox="0 0 24 24" fill="none" xmlns="http://www.w3.org/2000/svg">
<path d="M7.34834 10.08L12.0043 5.424L16.6723 10.092L19.3843 7.38L12.0043 0L4.63634 7.368L7.34834 10.08Z" fill="white"/>
<path d="M2.71529 9.28832L0 12.0036L2.71529 14.7189L5.43058 12.0036L2.71529 9.28832Z" fill="white"/>
<path d="M7.34834 13.92L4.62434 16.62L12.0043 24L19.3843 16.62L16.6723 13.908L12.0043 18.576L7.34834 13.92Z" fill="white"/>
<path d="M21.2865 9.2811L18.5712 11.9964L21.2865 14.7117L24.0018 11.9964L21.2865 9.2811Z" fill="white"/>
<path d="M14.7523 12L12.0043 9.252L9.97634 11.28L9.73634 11.508L9.25634 12L12.0043 14.748L14.7523 12Z" fill="white"/>
</svg>
