<svg width="48" height="48" viewBox="0 0 48 48" fill="none" xmlns="http://www.w3.org/2000/svg">
<path d="M23.75 0L26.7223 4.98392L31.0892 1.16241L32.3758 6.82088L37.7099 4.53585L37.185 10.315L42.9642 9.7901L40.6791 15.1242L46.3376 16.4108L42.5161 20.7777L47.5 23.75L42.5161 26.7223L46.3376 31.0892L40.6791 32.3758L42.9642 37.7099L37.185 37.185L37.7099 42.9642L32.3758 40.6791L31.0892 46.3376L26.7223 42.5161L23.75 47.5L20.7777 42.5161L16.4108 46.3376L15.1242 40.6791L9.7901 42.9642L10.315 37.185L4.53585 37.7099L6.82088 32.3758L1.16241 31.0892L4.98392 26.7223L0 23.75L4.98392 20.7777L1.16241 16.4108L6.82088 15.1242L4.53585 9.7901L10.315 10.315L9.7901 4.53585L15.1242 6.82088L16.4108 1.16241L20.7777 4.98392L23.75 0Z" fill="#1DBF8E"/>
<path d="M15.6885 18.7829C15.5987 18.9649 15.5388 19.0862 15.5183 19.1631C15.3815 19.6758 15.697 20.3504 16.6349 20.6006C18.2538 21.0325 20.081 20.0644 20.5153 18.4365C20.7273 17.6417 20.5694 16.9954 20.057 16.5429C21.3989 16.3105 22.2345 15.6546 22.4841 14.7188C22.7987 13.5395 22.1027 12.4339 20.5866 12.0295C19.6486 11.7793 18.6569 11.8855 18.329 12.0314C18.1406 12.1185 18.0122 12.2902 17.889 12.5457L17.8625 12.5935C17.7496 12.8106 17.6957 12.961 17.6752 13.0379C17.6341 13.1917 17.6779 13.2857 17.8063 13.32C17.9348 13.3543 18.2397 13.2434 18.7603 13.1488C17.452 15.4224 16.4466 17.2825 15.7184 18.7222L15.6885 18.7829ZM16.7936 19.2836C17.6475 17.6303 18.5408 15.9325 19.5985 14.2374L19.6447 14.1674C19.7209 14.0367 19.7739 13.941 19.7944 13.8641C19.8355 13.7102 19.7729 13.5837 19.6007 13.4554L19.1637 13.1329C19.6219 13.1178 20.0022 13.1368 20.3234 13.2225C21.0943 13.4282 21.4294 13.8745 21.2824 14.4257C21.1319 14.9898 20.5659 15.3056 19.6051 15.5024L19.5469 15.5144C19.123 15.6073 19.028 15.7055 18.9031 16.0704L18.8826 16.1473C18.8355 16.272 18.8082 16.3746 18.7911 16.4387C18.7193 16.7079 18.8084 16.7866 18.9258 16.914C19.3037 17.3031 19.4477 17.5887 19.2904 18.1784C19.075 18.986 18.0133 19.6639 17.2167 19.4514C17.0626 19.4103 16.9118 19.3563 16.7936 19.2836Z" fill="white"/>
<path d="M24.656 13.6231C22.734 16.8039 21.7064 18.8503 21.491 19.6579C21.132 21.0038 21.6694 21.9299 22.89 22.2555C24.9586 22.8073 26.3687 20.2038 29.1496 15.0414L29.2095 14.9201C29.2394 14.8594 29.266 14.8116 29.2796 14.7603C29.3344 14.5552 29.2238 14.4021 28.9291 14.2686L28.8075 14.2087C28.7338 14.1753 28.6601 14.1419 28.583 14.1214C28.3775 14.0665 28.231 14.1511 28.1018 14.3775L28.0488 14.4732C25.5022 18.8605 24.4894 21.4189 23.2431 21.0864C22.7549 20.9562 22.5483 20.5441 22.7193 19.9031C22.9176 19.1597 23.5003 18.1617 24.2858 16.7648C25.2998 14.9756 25.8133 14.0828 25.833 14.0606L25.8792 13.9905C25.9023 13.9555 25.9254 13.9205 25.9391 13.8692C25.9869 13.6897 25.8704 13.5076 25.5662 13.3578L25.4926 13.3244C25.4189 13.2911 25.3418 13.2705 25.2776 13.2534C25.0335 13.1882 24.8613 13.2659 24.7356 13.4795L24.656 13.6231Z" fill="white"/>
<path d="M29.3957 20.4483C28.378 21.6323 27.6675 22.3353 27.3756 22.6556L27.3199 22.7094C27.2446 22.7854 27.2113 22.8589 27.201 22.8974C27.1531 23.0768 27.2936 23.1692 27.4684 23.3394L27.5096 23.3916C27.6081 23.4866 27.7263 23.5593 27.842 23.5901C28.0347 23.6415 28.1486 23.5758 28.283 23.4332L28.3223 23.3887C31.2944 20.2957 33.3717 17.7193 34.3662 16.3643L34.409 16.3071C34.4484 16.2627 34.4655 16.1986 34.4757 16.1601C34.5304 15.955 34.4002 15.8242 34.1063 15.6359L34.0584 15.6094C33.9307 15.5204 33.8022 15.4861 33.7508 15.4724C33.6095 15.4347 33.4571 15.4902 33.3518 15.6269L33.309 15.6841C32.9606 16.113 32.0483 17.3662 30.4897 19.3396C30.6794 16.8226 30.8355 15.4637 30.8765 15.3099C30.8765 15.3099 30.8765 15.3099 30.8799 15.297L30.8936 15.2458C30.9449 15.0535 30.8026 14.8645 30.454 14.6754L30.3837 14.6292C30.3229 14.5992 30.2492 14.5658 30.1593 14.5418C29.8766 14.4664 29.7884 14.539 29.7132 14.821C29.7064 14.8467 29.7124 14.8757 29.7055 14.9014L29.6919 14.9527C29.5913 16.0518 29.409 17.8705 29.3957 20.4483Z" fill="white"/>
<path d="M11.6845 31.8849L11.7968 31.9286C11.8096 31.932 11.8225 31.9354 11.8353 31.9389C12.0537 31.9971 12.255 31.9135 12.3645 31.7093L12.9224 30.6498C14.3639 30.8696 15.4743 30.1634 15.7957 28.9585C16.0146 28.1381 15.7762 27.4841 15.0838 26.7776C14.5534 26.2379 14.1002 25.9248 14.2506 25.3608C14.3942 24.8224 15.0013 24.5587 15.8622 24.7883C16.1192 24.8569 16.4712 25.0332 16.7805 25.2667L16.8825 25.3488C16.9399 25.3916 17.0007 25.4216 17.065 25.4387C17.2448 25.4867 17.4144 25.3671 17.5864 25.0835L17.6326 25.0134C17.689 24.9049 17.7353 24.8349 17.7455 24.7964C17.7831 24.6554 17.7111 24.5126 17.6092 24.4305L17.5518 24.3877C17.2999 24.197 16.9992 24.0344 16.6754 23.9068L17.1494 23.0584C17.1725 23.0233 17.1828 22.9849 17.193 22.9464C17.2341 22.7926 17.1158 22.7199 16.8494 22.6351L16.7595 22.6111C16.7338 22.6042 16.721 22.6008 16.7081 22.5974C16.4254 22.522 16.273 22.5774 16.1404 22.8167L15.6569 23.6489C14.3987 23.4643 13.3525 24.1875 13.0721 25.2386C12.8977 25.8924 13.1121 26.4302 13.6965 27.0254C14.3126 27.6566 14.7256 28.0689 14.5444 28.7483C14.3597 29.4405 13.7912 29.7145 12.9175 29.4814C12.4935 29.3683 12.042 29.1517 11.6496 28.8686L11.5477 28.7865C11.4774 28.7403 11.4166 28.7103 11.3652 28.6966C11.1468 28.6383 11.0287 28.7716 10.8892 29.0365L10.8627 29.0843C10.8028 29.2056 10.7626 29.3048 10.7455 29.3688C10.6976 29.5483 10.7996 29.6304 10.9427 29.7647L11.0095 29.8237C11.1526 29.958 11.491 30.1856 11.9656 30.3671L11.3786 31.4326C11.3589 31.4548 11.352 31.4804 11.3452 31.5061C11.3042 31.6599 11.4181 31.8001 11.6845 31.8849Z" fill="white"/>
<path d="M16.1844 31.0531L16.1639 31.13C16.1202 31.242 16.0569 31.3761 16.0261 31.4915C15.9407 31.8119 16.275 32.519 16.8404 32.6698C17.3029 32.7932 18.8984 32.6421 20.3051 31.7541C21.6793 30.8849 22.7628 29.4027 23.1936 27.7875C23.6689 26.0058 22.8417 24.618 21.21 24.1827C20.0536 23.8743 19.1047 23.9232 18.7083 24.1195C18.5002 24.2288 18.3351 24.4868 18.2291 24.8842C18.1641 25.1278 18.1907 25.2859 18.3064 25.3167C18.5633 25.3853 18.917 25.2462 19.4531 25.197C17.8896 27.7046 16.8055 29.6535 16.1844 31.0531ZM17.3853 31.4009C18.2298 29.7313 19.1915 27.9832 20.2509 26.1787L20.3237 26.0608C20.3468 26.0258 20.357 25.9873 20.3673 25.9489C20.4049 25.8079 20.3457 25.6685 20.1898 25.5308L19.7725 25.1861C20.1271 25.1983 20.4397 25.213 20.7224 25.2884C21.7502 25.5626 22.208 26.4262 21.8832 27.6439C21.6199 28.631 20.8411 29.7963 19.7941 30.5743C19.1091 31.0781 18.3342 31.352 17.3853 31.4009Z" fill="white"/>
<path d="M22.6993 31.4728C22.0215 32.363 21.6432 32.8525 21.5576 32.967L21.4917 33.0593C21.4224 33.1644 21.3693 33.26 21.3454 33.3498C21.3009 33.5164 21.385 33.7173 21.5606 33.8328L21.6308 33.879C21.7713 33.9714 21.8707 34.0117 21.9093 34.022C22.1277 34.0802 22.2424 33.9598 22.3905 33.7659L22.4332 33.7086C22.9562 33.038 23.4338 32.3827 23.9328 31.8019L25.1697 32.1181C25.4523 32.1935 25.6613 32.2355 25.9036 31.998L26.3359 31.5641C25.8502 33.1784 25.5946 34.0851 25.5399 34.2902L25.5125 34.3927C25.4159 34.8063 25.6207 34.9159 25.9505 35.0725L25.989 35.0828C26.037 35.1093 26.0884 35.123 26.1398 35.1367C26.4225 35.2121 26.5988 35.067 26.7108 34.6986L26.7476 34.6123C26.7647 34.5482 27.034 33.5903 27.5298 31.7316C28.2103 29.1807 28.5804 27.7416 28.6762 27.3826C28.6864 27.3442 28.6933 27.3186 28.6933 27.3186L28.7138 27.2416C28.8317 26.6964 28.8496 26.5776 28.4135 26.2004L28.3595 26.1448C28.2833 26.0695 28.1488 26.0062 28.0203 25.9719C27.8019 25.9137 27.5715 26.0033 27.313 26.2501L27.2573 26.3039C26.2001 27.3263 25.0078 28.7521 23.5082 30.4528L23.2898 30.3946C22.9814 30.3123 22.8958 30.4268 22.6776 30.7805L22.6511 30.8283C22.5586 30.9685 22.5184 31.0676 22.5048 31.1189C22.4569 31.2983 22.5006 31.3924 22.6993 31.4728ZM24.7707 30.7759C25.6643 29.6961 26.5306 28.7189 27.354 27.7989C27.2617 28.145 27.1599 28.4748 27.0745 28.7953C27.0061 29.0517 26.9069 29.4234 26.7735 29.9233C26.7462 30.0259 26.6171 30.4583 26.4025 31.2112L24.7707 30.7759Z" fill="white"/>
<path d="M31.9295 33.1524C31.0429 34.4125 30.3957 34.9813 29.9331 34.8579C29.5348 34.7517 29.3873 34.2729 29.5993 33.4782C29.9446 32.1835 30.8089 30.6977 31.9252 29.6087C32.6288 28.9313 33.2907 28.6685 33.6633 28.7679C33.946 28.8433 34.0626 29.0254 34.001 29.2562C33.9497 29.4485 33.8171 29.6877 33.6288 29.9807L33.586 30.038C33.5364 30.1209 33.5065 30.1815 33.4962 30.22C33.4517 30.3866 33.5726 30.5012 33.8167 30.5663C33.8681 30.5801 33.9323 30.5972 34.0128 30.6049L34.0805 30.6093C34.5182 30.6711 34.7477 30.6362 34.9872 30.1509L35.0334 30.0808C35.1002 29.9338 35.1609 29.7578 35.2053 29.5912C35.4618 28.6298 35.0092 27.85 34.0456 27.5929C33.0819 27.3359 32.0013 27.7753 30.862 28.8994C29.762 29.979 28.8643 31.5383 28.4916 32.9356C28.0368 34.6404 28.4588 35.7416 29.5123 36.0226C30.553 36.3003 31.9059 35.5627 32.7591 34.17L32.789 34.1094C32.8155 34.0615 32.842 34.0137 32.8523 33.9752C32.8865 33.847 32.8273 33.7077 32.7159 33.6093L32.2798 33.2321L33.2118 33.4532C33.4464 33.5021 33.5903 33.3757 33.7442 33.0048L33.7742 32.9442C33.8178 32.8322 33.8452 32.7297 33.8623 32.6656C33.9136 32.4733 33.8767 32.3536 33.6711 32.2988L31.7464 31.8266C31.2291 31.7023 30.8926 31.9833 30.749 32.5216C30.684 32.7652 30.8597 32.8807 31.2837 32.9938L31.9295 33.1524Z" fill="white"/>
</svg>
