<svg width="52" height="41" viewBox="0 0 52 41" fill="none" xmlns="http://www.w3.org/2000/svg">
<g clip-path="url(#clip0_1907_12823)">
<path d="M33.2218 21.9647C33.2216 23.4127 32.7978 24.828 32.0041 26.0318C31.2104 27.2356 30.0824 28.1738 28.7628 28.7277C27.4432 29.2816 25.9912 29.4264 24.5903 29.1438C23.1895 28.8612 21.9028 28.1638 20.893 27.1399C19.8831 26.116 19.1954 24.8114 18.9169 23.3913C18.6383 21.9712 18.7814 20.4992 19.328 19.1615C19.8747 17.8238 20.8003 16.6805 21.9879 15.8761C23.1755 15.0717 24.5717 14.6423 26 14.6423C26.9485 14.6423 27.8877 14.8317 28.764 15.1997C29.6402 15.5677 30.4364 16.1071 31.107 16.7871C31.7776 17.4671 32.3096 18.2743 32.6724 19.1627C33.0353 20.0511 33.222 21.0032 33.2218 21.9647Z" fill="white"/>
<path d="M44.7782 5.85643H39.7218L37.5551 2.92821C36.8812 2.02043 36.0087 1.28352 35.0063 0.775423C34.0039 0.267324 32.8989 0.00189214 31.7782 0H20.2218C19.1011 0.00198876 17.9961 0.267464 16.9937 0.775555C15.9913 1.28365 15.1189 2.02051 14.4449 2.92821L12.2782 5.85643H7.22181C5.30645 5.85709 3.46975 6.62881 2.11551 8.00192C0.76126 9.37503 0.00032814 11.2371 0 13.1788V33.6788C0.00065632 35.6203 0.761734 37.4821 2.11594 38.8549C3.47015 40.2278 5.30667 40.9993 7.22181 41H44.7782C46.6933 40.9993 48.5298 40.2278 49.8841 38.8549C51.2383 37.4821 51.9993 35.6203 52 33.6788V13.1788C51.9997 11.2369 51.2386 9.37463 49.8841 8.00148C48.5295 6.62833 46.6925 5.85676 44.777 5.85643H44.7782ZM26 11.7141C28.3394 11.7141 30.6063 12.5365 32.4146 14.041C34.223 15.5455 35.4608 17.6391 35.9171 19.9651C36.3735 22.291 36.0201 24.7055 34.9174 26.797C33.8146 28.8885 32.0305 30.5276 29.8693 31.4351C27.708 32.3426 25.3031 32.4624 23.0645 31.7739C20.8259 31.0855 18.892 29.6315 17.5924 27.6596C16.2927 25.6877 15.7077 23.32 15.937 20.9599C16.1664 18.5998 17.1958 16.3933 18.85 14.7164C19.7889 13.7645 20.9036 13.0094 22.1304 12.4942C23.3572 11.9791 24.6721 11.714 26 11.7141Z" fill="white"/>
</g>
<defs>
<clipPath id="clip0_1907_12823">
<rect width="52" height="41" fill="white"/>
</clipPath>
</defs>
</svg>
