<svg width="96" height="96" viewBox="0 0 96 96" fill="none" xmlns="http://www.w3.org/2000/svg">
<path d="M48 9C40.2865 9 32.7463 11.2873 26.3328 15.5727C19.9193 19.8581 14.9205 25.949 11.9687 33.0753C9.0169 40.2017 8.24457 48.0433 9.74939 55.6085C11.2542 63.1738 14.9686 70.1229 20.4229 75.5772C25.8771 81.0314 32.8262 84.7458 40.3915 86.2506C47.9568 87.7554 55.7984 86.9831 62.9247 84.0313C70.051 81.0795 76.142 76.0808 80.4273 69.6672C84.7127 63.2537 87 55.7135 87 48C86.9802 37.6626 82.8649 27.7544 75.5553 20.4447C68.2457 13.1351 58.3374 9.01982 48 9ZM66.5625 41.175L44.5875 62.175C44.0194 62.7094 43.2675 63.0048 42.4875 63C42.1063 63.0055 41.7278 62.9354 41.3738 62.7938C41.0198 62.6522 40.6973 62.4419 40.425 62.175L29.4375 51.675C29.1328 51.4091 28.8849 51.0844 28.7089 50.7202C28.5328 50.3561 28.4322 49.9602 28.4131 49.5562C28.394 49.1522 28.4568 48.7485 28.5977 48.3694C28.7385 47.9903 28.9546 47.6436 29.2329 47.3501C29.5112 47.0567 29.8459 46.8225 30.217 46.6617C30.5881 46.5009 30.9879 46.4168 31.3923 46.4145C31.7968 46.4121 32.1975 46.4916 32.5704 46.648C32.9434 46.8045 33.2808 47.0348 33.5625 47.325L42.4875 55.8375L62.4375 36.825C63.0208 36.3161 63.7783 36.0523 64.5516 36.0889C65.3248 36.1255 66.054 36.4596 66.5866 37.0213C67.1193 37.583 67.4142 38.3289 67.4097 39.103C67.4052 39.8771 67.1017 40.6195 66.5625 41.175Z" fill="#37296D"/>
</svg>
