<svg width="32" height="32" viewBox="0 0 32 32" fill="none" xmlns="http://www.w3.org/2000/svg">
<path fill-rule="evenodd" clip-rule="evenodd" d="M12.25 18.625C12.25 18.2108 12.5858 17.875 13 17.875H19C19.4142 17.875 19.75 18.2108 19.75 18.625C19.75 19.0392 19.4142 19.375 19 19.375H13C12.5858 19.375 12.25 19.0392 12.25 18.625Z" fill="white"/>
<path fill-rule="evenodd" clip-rule="evenodd" d="M12.25 14.875C12.25 14.4608 12.5858 14.125 13 14.125H19C19.4142 14.125 19.75 14.4608 19.75 14.875C19.75 15.2892 19.4142 15.625 19 15.625H13C12.5858 15.625 12.25 15.2892 12.25 14.875Z" fill="white"/>
<path fill-rule="evenodd" clip-rule="evenodd" d="M8.18934 7.43934C8.47064 7.15804 8.85217 7 9.25 7H13C13.4142 7 13.75 7.33579 13.75 7.75C13.75 8.16421 13.4142 8.5 13 8.5L9.25 8.5L9.25 24.25H22.75V8.5H19C18.5858 8.5 18.25 8.16421 18.25 7.75C18.25 7.33579 18.5858 7 19 7H22.75C23.1478 7 23.5294 7.15804 23.8107 7.43934C24.092 7.72065 24.25 8.10218 24.25 8.5V24.25C24.25 24.6478 24.092 25.0294 23.8107 25.3107C23.5294 25.592 23.1478 25.75 22.75 25.75H9.25C8.85218 25.75 8.47065 25.592 8.18934 25.3107C7.90804 25.0294 7.75 24.6478 7.75 24.25V8.5C7.75 8.10217 7.90804 7.72064 8.18934 7.43934Z" fill="white"/>
<path fill-rule="evenodd" clip-rule="evenodd" d="M16 7C15.2044 7 14.4413 7.31607 13.8787 7.87868C13.3161 8.44129 13 9.20435 13 10H19C19 9.20435 18.6839 8.44129 18.1213 7.87868C17.5587 7.31607 16.7956 7 16 7ZM12.818 6.81802C13.6619 5.97411 14.8065 5.5 16 5.5C17.1935 5.5 18.3381 5.97411 19.182 6.81802C20.0259 7.66193 20.5 8.80653 20.5 10V10.75C20.5 11.1642 20.1642 11.5 19.75 11.5H12.25C11.8358 11.5 11.5 11.1642 11.5 10.75V10C11.5 8.80653 11.9741 7.66193 12.818 6.81802Z" fill="white"/>
</svg>
