<svg width="28" height="29" viewBox="0 0 28 29" fill="none" xmlns="http://www.w3.org/2000/svg">
<path d="M17.2324 12.2959C15.5059 11.4409 13.2231 10.9844 10.625 10.9844C8.02686 10.9844 5.74414 11.4409 4.01758 12.2959C2.29102 13.1509 1.32812 14.3711 1.32812 15.6328V19.6172C1.32812 20.8789 2.30762 22.0991 4.01758 22.9541C5.72754 23.8091 8.02686 24.2656 10.625 24.2656C13.2231 24.2656 15.5059 23.8091 17.2324 22.9541C18.959 22.0991 19.9219 20.8789 19.9219 19.6172V15.6328C19.9219 14.3711 18.9424 13.1509 17.2324 12.2959ZM9.96094 20.2729V22.9292C8.38379 22.8711 7.05566 22.6387 5.97656 22.3066V19.7002C7.16357 20.0322 8.5083 20.2231 9.96094 20.2729ZM11.2891 20.2729C12.7417 20.2231 14.0864 20.0322 15.2734 19.7002V22.3066C14.1943 22.6387 12.8662 22.8711 11.2891 22.9292V20.2729ZM2.65625 19.6172V18.0815C3.07407 18.4294 3.53092 18.7274 4.01758 18.9697L4.64844 19.252V21.7754C3.33691 21.1279 2.65625 20.3062 2.65625 19.6172ZM16.6016 21.7754V19.252L17.2324 18.9697C17.7191 18.7274 18.1759 18.4294 18.5938 18.0815V19.6172C18.5938 20.3062 17.9131 21.1279 16.6016 21.7754Z" fill="#958EA8"/>
<ellipse cx="16.5" cy="12" rx="8.5" ry="5" fill="#2B1D52"/>
<path d="M23.2324 5.2959C21.5059 4.44092 19.2231 3.98438 16.625 3.98438C14.0269 3.98438 11.7441 4.44092 10.0176 5.2959C8.29102 6.15088 7.32812 7.37109 7.32812 8.63281V12.6172C7.32812 13.8789 8.30762 15.0991 10.0176 15.9541C11.7275 16.8091 14.0269 17.2656 16.625 17.2656C19.2231 17.2656 21.5059 16.8091 23.2324 15.9541C24.959 15.0991 25.9219 13.8789 25.9219 12.6172V8.63281C25.9219 7.37109 24.9424 6.15088 23.2324 5.2959ZM15.9609 13.2729V15.9292C14.3838 15.8711 13.0557 15.6387 11.9766 15.3066V12.7002C13.1636 13.0322 14.5083 13.2231 15.9609 13.2729ZM17.2891 13.2729C18.7417 13.2231 20.0864 13.0322 21.2734 12.7002V15.3066C20.1943 15.6387 18.8662 15.8711 17.2891 15.9292V13.2729ZM8.65625 12.6172V11.0815C9.07407 11.4294 9.53092 11.7274 10.0176 11.9697L10.6484 12.252V14.7754C9.33691 14.1279 8.65625 13.3062 8.65625 12.6172ZM22.6016 14.7754V12.252L23.2324 11.9697C23.7191 11.7274 24.1759 11.4294 24.5938 11.0815V12.6172C24.5938 13.3062 23.9131 14.1279 22.6016 14.7754Z" fill="white"/>
</svg>
