<svg width="16" height="16" viewBox="0 0 16 16" fill="none" xmlns="http://www.w3.org/2000/svg">
<g id="Vector">
<path d="M8 16C12.4183 16 16 12.4183 16 8C16 3.58172 12.4183 0 8 0C3.58172 0 0 3.58172 0 8C0 12.4183 3.58172 16 8 16Z" fill="#1552EF"/>
<path d="M7.99999 5.8363L6.18341 6.88177V8.97478L7.99999 10.0244L9.81656 8.97478V6.88177L7.99999 5.8363Z" fill="white"/>
<path d="M2.8288 11.2403L7.86075 14.146L9.53807 11.2403H2.8288Z" fill="white"/>
<path d="M2.77057 4.84071L4.36683 7.60923L7.56142 2.07428L2.77057 4.84071Z" fill="white"/>
<path d="M6.46198 4.62249H12.8449L8.06031 1.85397L6.46198 4.62249Z" fill="white"/>
<path d="M10.0951 4.94257L13.2876 10.4775V4.94257H10.0951Z" fill="white"/>
<path d="M11.629 8.2515L8.43854 13.7864L13.2252 11.02L11.629 8.2515Z" fill="white"/>
<path d="M2.7124 10.9182H5.90492L2.7124 5.38321V10.9182Z" fill="white"/>
</g>
</svg>
