<svg width="32" height="32" viewBox="0 0 32 32" fill="none" xmlns="http://www.w3.org/2000/svg">
<path opacity="0.5" fill-rule="evenodd" clip-rule="evenodd" d="M28 16C28 22.6274 22.6274 28 16 28C9.37258 28 4 22.6274 4 16C4 9.37258 9.37258 4 16 4C22.6274 4 28 9.37258 28 16ZM16 27.25L13.75 25.9721V23.875C13.75 23.875 10.375 23.125 10.375 22.375C10.0226 22.375 8.01489 22.9932 7.7737 23.1132C6.12341 21.2063 5.125 18.7198 5.125 16C5.125 9.9939 9.9939 5.125 16 5.125C22.0061 5.125 26.875 9.9939 26.875 16C26.875 18.7198 25.8766 21.2063 24.2263 23.1132C23.9851 22.9932 21.9774 22.375 21.625 22.375C21.625 23.125 18.25 23.875 18.25 23.875V25.9721L16 27.25Z" fill="white"/>
<path opacity="0.25" d="M21.625 19C21.625 16.9114 21.0324 14.9084 19.9775 13.4315C18.9226 11.9547 17.4918 11.125 16 11.125C14.5082 11.125 13.0774 11.9547 12.0225 13.4315C10.9676 14.9084 10.375 16.9114 10.375 19L16 19H21.625Z" fill="url(#paint0_linear)"/>
<path fill-rule="evenodd" clip-rule="evenodd" d="M21.25 20.3125C22 19.5625 22 16.1875 22 16.1875C22 12.8467 19.8053 8.125 16 8.125C11.7526 8.125 10 12.8467 10 16.1875C10 16.1875 10 19.5625 10.7501 20.3125C11.5322 21.0945 13.1875 21.625 16 21.625C18.8124 21.625 20.3885 21.174 21.25 20.3125ZM19.9193 16.898C20.4375 16.6581 21.0003 16.3976 21.2103 15.8015C21.5831 14.7426 19.3027 9.25 16.0001 9.25C12.314 9.25 10.4241 15.0948 10.7963 15.8015C10.9825 16.1549 11.4478 16.4197 11.9129 16.6844C12.3777 16.9489 12.8424 17.2133 13.0284 17.5662C13.4003 18.2721 14.8881 18.625 16.0031 18.625C17.1181 18.625 18.6075 18.2721 18.9795 17.5662C19.142 17.2577 19.5172 17.0841 19.9193 16.898Z" fill="white"/>
<path opacity="0.25" d="M21.2101 15.8015C20.8373 16.8603 19.3513 16.8603 18.9794 17.5662C18.6074 18.2721 17.118 18.625 16.003 18.625C14.888 18.625 13.4002 18.2721 13.0282 17.5662C12.6563 16.8603 11.1685 16.5082 10.7962 15.8015C10.4239 15.0948 12.3139 9.25 16 9.25C19.3025 9.25 21.583 14.7426 21.2101 15.8015Z" fill="white"/>
<path d="M13.2777 12.1451L13.8805 12.7947L14.7631 12.7152L14.1134 13.318L14.1929 14.2006L13.5902 13.5509L12.7076 13.6304L13.3572 13.0277L13.2777 12.1451Z" fill="white"/>
<path d="M18.5557 12.0849L18.4214 12.6602L18.7943 13.1184L18.219 12.9841L17.7608 13.357L17.8952 12.7817L17.5222 12.3235L18.0975 12.4579L18.5557 12.0849Z" fill="white"/>
<path d="M16 9.8125L16.4051 10.9074L17.5 11.3125L16.4051 11.7176L16 12.8125L15.5949 11.7176L14.5 11.3125L15.5949 10.9074L16 9.8125Z" fill="white"/>
<path d="M16 24.7805L14.5002 25.6458L14.5002 23.9153L16 24.7805Z" fill="url(#paint1_linear)"/>
<path d="M17.5 23.9152L16.0002 24.7805L16.0002 23.05L17.5 23.9152Z" fill="white"/>
<path d="M14.5 25.6457L15.9998 24.7805L15.9998 26.511L14.5 25.6457Z" fill="white"/>
<path d="M17.5 25.6457L16.0002 26.511L16.0002 24.7805L17.5 25.6457Z" fill="white"/>
<path d="M14.5 23.9152L15.9998 23.0499L15.9998 24.7805L14.5 23.9152Z" fill="white"/>
<path d="M16 24.7806L17.4998 23.9153L17.4998 25.6458L16 24.7806Z" fill="white"/>
<defs>
<linearGradient id="paint0_linear" x1="16" y1="11.125" x2="16" y2="26.875" gradientUnits="userSpaceOnUse">
<stop stop-color="white"/>
<stop offset="1" stop-color="#EBEBEB"/>
</linearGradient>
<linearGradient id="paint1_linear" x1="14.5002" y1="23.9107" x2="15.2501" y2="25.1305" gradientUnits="userSpaceOnUse">
<stop stop-color="white" stop-opacity="0"/>
<stop offset="1" stop-color="white"/>
</linearGradient>
</defs>
</svg>
