<svg width="80" height="67" viewBox="0 0 80 67" fill="none" xmlns="http://www.w3.org/2000/svg">
<g clip-path="url(#clip0_212_3236)">
<path d="M40.8672 48.6334L44.7455 54.8052L60.1249 31.378H45.1785L33.957 48.4497L23.3731 32.9274L30.0788 32.8752L35.7169 41.0956L37.6816 38.0229L31.9922 29.6971H16.7901L33.8785 54.7264L47.1159 34.5559H53.7976L44.6158 48.3707L42.8558 45.5868L40.8672 48.6334Z" fill="black"/>
<path d="M33.957 7.05646L45.1786 24.1281H60.125L44.7456 0.700638L40.8673 6.87256L42.8559 9.91913L44.6159 7.13531L53.798 20.9499H47.116L33.8785 0.779469L16.7903 25.8088H31.9925L37.6817 17.4833L35.717 14.4102L30.079 22.6311L23.3733 22.5783L33.957 7.05646Z" fill="black"/>
</g>
<g clip-path="url(#clip1_212_3236)">
<path d="M8.2155 65.1851L6.96248 66.6451H3.79679C3.2506 66.6451 2.74502 66.5716 2.28007 66.4245C1.81511 66.2771 1.41479 66.0751 1.07873 65.8173C0.743034 65.5601 0.478983 65.2543 0.287311 64.9009C0.0960094 64.5472 0 64.1636 0 63.7503C0 63.3374 0.0960094 62.9597 0.287311 62.617C0.478983 62.275 0.743034 61.9805 1.07873 61.7343C1.41479 61.4884 1.81511 61.2987 2.28007 61.1656C2.74502 61.0329 3.2506 60.966 3.79679 60.966H8.2155L6.96248 62.4433H3.79679C3.53311 62.4433 3.28826 62.4769 3.06226 62.5448C2.83624 62.613 2.64124 62.7079 2.47801 62.8293C2.31442 62.9511 2.18589 63.0968 2.09173 63.2665C1.99756 63.4362 1.95028 63.6232 1.95028 63.8269C1.95028 64.0305 1.9957 64.2162 2.08693 64.3829C2.17777 64.5499 2.30666 64.693 2.47321 64.8114C2.6394 64.9302 2.83624 65.0224 3.06226 65.0873C3.28826 65.1525 3.53311 65.1851 3.79679 65.1851H8.2155Z" fill="black"/>
<path d="M17.9198 60.9661L14.1791 64.7693V66.6449H12.2196V64.7606L8.37557 60.9661H10.8816L12.3891 62.5449C12.4393 62.5958 12.5054 62.6627 12.5871 62.7446C12.6687 62.8268 12.7536 62.9133 12.8415 63.0034C12.9295 63.0943 13.011 63.1788 13.0864 63.2583C13.1617 63.3375 13.2152 63.3971 13.2466 63.4363C13.3095 63.3575 13.4007 63.2497 13.5199 63.1139C13.6389 62.9781 13.8121 62.7858 14.0381 62.5366L15.4699 60.9661H17.9198Z" fill="black"/>
<path d="M26.0506 63.0967C26.0506 63.4138 25.9815 63.701 25.8434 63.9585C25.7049 64.216 25.5029 64.435 25.2359 64.6163C24.9685 64.7973 24.6436 64.9387 24.2606 65.0409C23.8772 65.1424 23.4411 65.1936 22.9511 65.1936H19.6536V66.645H17.7128V63.7419H23.1394C23.4411 63.7419 23.6748 63.6827 23.8414 63.5635C24.008 63.4447 24.0911 63.2864 24.0911 63.0884C24.0911 62.8904 24.008 62.7334 23.8414 62.6172C23.6748 62.5014 23.4411 62.4432 23.1394 62.4432H17.7128L19.0036 60.9662H22.9607C23.4503 60.9662 23.8868 61.0184 24.2702 61.1232C24.6532 61.2281 24.9766 61.3735 25.2407 61.5605C25.5044 61.7471 25.7049 61.9707 25.8434 62.2309C25.9815 62.4915 26.0506 62.7799 26.0506 63.0967Z" fill="black"/>
<path d="M34.6903 66.645H32.7492V64.455H28.9997V66.645H27.0398V60.9662H28.9997V62.9779H32.7492V60.9662H34.6903V66.645Z" fill="black"/>
<path d="M43.2069 65.1851L41.9539 66.6451H35.8866V60.966H43.1881L41.9254 62.4433H37.8461V63.1225H42.8395L41.7186 64.4128H37.8461V65.1851H43.2069Z" fill="black"/>
<path d="M52.8174 66.645H50.2075L48.8038 65.1424H45.8077V66.645H43.8574V63.7419H49.3408C49.6421 63.7419 49.8966 63.6853 50.1038 63.5722C50.3113 63.4591 50.4147 63.3034 50.4147 63.1054C50.4147 62.8845 50.3205 62.7191 50.1322 62.6086C49.9439 62.4985 49.6798 62.4432 49.3408 62.4432H43.8574L45.1293 60.9662H49.1805C49.5384 60.9662 49.9091 60.9958 50.2921 61.0554C50.6751 61.1146 51.0241 61.2208 51.338 61.3735C51.6523 61.5262 51.9111 61.7329 52.1154 61.9934C52.3192 62.2539 52.4215 62.5876 52.4215 62.9949C52.4215 63.2155 52.3838 63.4251 52.3085 63.6231C52.2332 63.8214 52.1246 63.9998 51.9835 64.1578C51.8421 64.3165 51.6696 64.4506 51.4654 64.5611C51.2611 64.6712 51.0303 64.7494 50.773 64.7943C50.8797 64.8682 50.999 64.9614 51.1308 65.0745C51.2626 65.188 51.4385 65.3437 51.6582 65.5417L52.8174 66.645Z" fill="black"/>
<path d="M57.6977 60.873C59.2299 60.873 60.3814 61.1079 61.1507 61.5774C61.9203 62.0472 62.3051 62.7882 62.3051 63.8014C62.3051 64.8202 61.9218 65.5642 61.1551 66.0337C60.3888 66.5035 59.2366 66.7385 57.6977 66.7385C56.1525 66.7385 54.9981 66.5035 54.2351 66.0337C53.4721 65.5642 53.0903 64.8202 53.0903 63.8014C53.0903 62.7882 53.4736 62.0472 54.2399 61.5774C55.0062 61.1079 56.1588 60.873 57.6977 60.873ZM57.6977 65.2614C58.1874 65.2614 58.6021 65.2431 58.9411 65.2062C59.2805 65.1696 59.555 65.0974 59.7658 64.9899C59.9759 64.8821 60.1285 64.7337 60.2226 64.5444C60.3168 64.3544 60.3641 64.1069 60.3641 63.8014C60.3641 63.4956 60.3168 63.2484 60.2226 63.0587C60.1285 62.8694 59.9759 62.722 59.7658 62.6172C59.555 62.5124 59.2805 62.4418 58.9411 62.4049C58.6021 62.3683 58.1874 62.3497 57.6977 62.3497C57.2076 62.3497 56.7933 62.3683 56.4543 62.4049C56.1149 62.4418 55.8401 62.5124 55.6296 62.6172C55.4191 62.722 55.267 62.8694 55.1727 63.0587C55.0783 63.2484 55.0313 63.4956 55.0313 63.8014C55.0313 64.1069 55.0783 64.3544 55.1727 64.5444C55.267 64.7337 55.4191 64.8821 55.6296 64.9899C55.8401 65.0974 56.1149 65.1696 56.4543 65.2062C56.7933 65.2431 57.2076 65.2614 57.6977 65.2614Z" fill="black"/>
<path d="M71.3114 65.1851L70.0584 66.6451H66.8927C66.3465 66.6451 65.8409 66.5716 65.376 66.4245C64.911 66.2771 64.5107 66.0751 64.1746 65.8173C63.8389 65.5601 63.5749 65.2543 63.3832 64.9009C63.1919 64.5472 63.0959 64.1636 63.0959 63.7503C63.0959 63.3374 63.1919 62.9597 63.3832 62.617C63.5749 62.275 63.8389 61.9805 64.1746 61.7343C64.5107 61.4884 64.911 61.2987 65.376 61.1656C65.8409 61.0329 66.3465 60.966 66.8927 60.966H71.3114L70.0584 62.4433H66.8927C66.629 62.4433 66.3842 62.4769 66.1581 62.5448C65.9321 62.613 65.7371 62.7079 65.574 62.8293C65.4103 62.9511 65.2818 63.0968 65.1877 63.2665C65.0934 63.4362 65.0462 63.6232 65.0462 63.8269C65.0462 64.0305 65.0916 64.2162 65.1828 64.3829C65.2737 64.5499 65.4025 64.693 65.5691 64.8114C65.7353 64.9302 65.9321 65.0224 66.1581 65.0873C66.3842 65.1525 66.629 65.1851 66.8927 65.1851H71.3114Z" fill="black"/>
<path d="M79.9423 66.645H76.9933L75.0899 65.151C74.7631 64.8965 74.5134 64.6982 74.3409 64.5571C74.1678 64.4157 74.0282 64.2966 73.9215 64.2004C73.9275 64.3305 73.9335 64.4649 73.9403 64.6034C73.947 64.7421 73.9497 64.8792 73.9497 65.0153V66.645H71.9899V60.9662H73.9497V62.2819C73.9497 62.4572 73.947 62.6302 73.9403 62.7996C73.9335 62.9696 73.9248 63.128 73.9121 63.2751C74.0376 63.1729 74.1899 63.0472 74.3691 62.8971C74.5483 62.7474 74.7819 62.565 75.0711 62.3497L76.8893 60.9662H79.7161L77.304 62.596C77.0966 62.7377 76.9128 62.8622 76.753 62.9696C76.5926 63.0771 76.4497 63.1706 76.3242 63.2498C76.198 63.329 76.0839 63.3995 75.9799 63.4621C75.8765 63.5243 75.7745 63.5835 75.6738 63.6401C75.8564 63.7536 76.0758 63.8946 76.3336 64.0647C76.5913 64.2344 76.9235 64.4693 77.3322 64.7691L79.9423 66.645Z" fill="black"/>
</g>
<defs>
<clipPath id="clip0_212_3236">
<rect width="43.4568" height="54.321" fill="white" transform="translate(16.7901 0.617249)"/>
</clipPath>
<clipPath id="clip1_212_3236">
<rect width="80" height="5.92593" fill="white" transform="translate(0 60.8642)"/>
</clipPath>
</defs>
</svg>
