<svg width="131" height="202" viewBox="0 0 131 202" fill="none" xmlns="http://www.w3.org/2000/svg">
<g filter="url(#filter0_dd_263_902)">
<rect x="3.42207" y="2.42207" width="123.8" height="194.703" rx="6.8037" fill="white" stroke="black" stroke-width="0.844142"/>
<rect x="65.1059" y="21.7217" width="19.7723" height="26.1934" rx="2.48386" stroke="black" stroke-width="0.45161"/>
<path d="M71.5411 48.1347L71.5411 36.7337L70.4508 35.6434C70.2814 35.474 70.1863 35.2443 70.1863 35.0048L70.1863 34.1324C70.1863 33.9168 70.2634 33.7083 70.4037 33.5446L71.5411 32.2176L71.5411 21.6048" stroke="black" stroke-width="0.362339"/>
<path d="M70.1865 34.7014H65.2188" stroke="black" stroke-width="0.362339"/>
<path d="M67.9285 29.0561H72.4312C72.7229 29.0561 72.9966 29.197 73.1661 29.4343L73.755 30.2586C73.9246 30.4959 74.1983 30.6368 74.49 30.6368H75.8184C76.1101 30.6368 76.3839 30.4959 76.5534 30.2585L77.1419 29.4344C77.3114 29.197 77.5852 29.0561 77.8769 29.0561L81.1026 29.0561C81.3421 29.0561 81.5718 29.1513 81.7412 29.3206L81.9284 29.5077" stroke="black" stroke-width="0.362339"/>
<path d="M78.3154 29.0563L78.3154 21.6048" stroke="black" stroke-width="0.362339"/>
<path d="M78.9931 29.0565L78.9931 30.5688C78.9931 30.6134 78.9799 30.6569 78.9552 30.694L78.5794 31.2577C78.5547 31.2948 78.5415 31.3383 78.5415 31.3829L78.5415 32.3351C78.5415 32.4036 78.5727 32.4685 78.6262 32.5114L79.5858 33.279C79.6393 33.3219 79.6705 33.3867 79.6705 33.4553L79.6705 34.25C79.6705 34.3747 79.7716 34.4758 79.8963 34.4758H85.0899" stroke="black" stroke-width="0.362339"/>
<path d="M82.3799 39.4434L81.9733 39.9854C81.8027 40.2128 81.5351 40.3466 81.2508 40.3466L77.6381 40.3466L76.3273 38.8487C76.1558 38.6526 75.908 38.5402 75.6476 38.5402L74.4768 38.5402C74.1925 38.5402 73.9248 38.6741 73.7542 38.9015L72.6704 40.3466L68.6058 40.3466L67.9283 39.6692" stroke="black" stroke-width="0.362339"/>
<path d="M78.7671 40.3467L78.7671 48.0241" stroke="black" stroke-width="0.362339"/>
<path d="M82.9442 38.7661C82.9442 38.7661 83.6216 37.8629 83.6216 37.6371C83.6216 37.4113 83.6216 31.3145 83.6216 31.0887C83.6216 30.8629 82.9442 30.1855 82.9442 30.1855" stroke="black" stroke-width="0.362339"/>
<path d="M67.2511 30.1854C67.2511 30.1854 66.5737 31.0886 66.5737 31.3144C66.5737 31.5402 66.5737 37.8628 66.5737 38.0886C66.5737 38.3144 67.477 39.2176 67.477 39.2176" stroke="black" stroke-width="0.362339"/>
<path d="M40.0514 181.268L44.1125 187.756L60.2165 163.129H44.5659L32.8156 181.075L21.733 164.758L28.7547 164.703L34.6585 173.344L36.7158 170.114L30.7583 161.362H14.8398L32.7334 187.673L46.5946 166.469H53.5911L43.9767 180.992L42.1337 178.065L40.0514 181.268Z" stroke="black" stroke-width="0.844142"/>
<path d="M32.8157 137.561L44.566 155.508H60.2167L44.1126 130.88L40.0516 137.368L42.1339 140.571L43.9768 137.644L53.5915 152.167H46.5947L32.7335 130.963L14.8401 157.274H30.7585L36.7158 148.522L34.6585 145.292L28.7549 153.934L21.7332 153.878L32.8157 137.561Z" stroke="black" stroke-width="0.844142"/>
<path d="M113.01 11.9081C113.091 11.9063 113.173 11.9134 113.251 11.9354C113.626 12.0419 113.816 12.4598 113.987 12.7659C114.039 12.8595 114.102 12.947 114.154 13.0407C114.265 13.2433 114.344 13.469 114.436 13.6806C114.534 13.9072 114.638 14.1328 114.721 14.3654C114.783 14.5392 114.828 14.7207 114.878 14.8982C115.058 15.5363 115.201 16.1837 115.253 16.8446C115.274 17.1 115.265 17.3572 115.276 17.613C115.288 17.9054 115.308 18.197 115.304 18.4898C115.291 19.3813 115.134 20.3083 114.87 21.1622C114.7 21.7115 114.123 23.2296 113.603 23.495C113.569 23.5123 113.512 23.535 113.475 23.5235C113.45 23.5418 113.419 23.5448 113.39 23.5489C113.262 23.5664 113.126 23.5297 113.023 23.4536C112.838 23.3166 112.735 23.0975 112.767 22.8718C112.802 22.6227 112.972 22.4027 113.096 22.1892C113.147 22.1008 113.191 22.0083 113.232 21.9154C113.323 21.7129 113.417 21.5105 113.494 21.3026C113.559 21.1275 113.607 20.9514 113.659 20.7728C113.792 20.3216 113.913 19.8721 113.966 19.4046C113.997 19.1374 114.035 18.8702 114.056 18.6022C114.084 18.2582 114.086 17.9043 114.074 17.5595C114.064 17.2862 114.018 17.0184 113.977 16.7484C113.926 16.4138 113.878 16.0795 113.8 15.7496C113.719 15.4088 113.607 15.0767 113.493 14.7455C113.402 14.4799 113.311 14.2196 113.189 13.9654C113.098 13.7793 113.001 13.5962 112.898 13.4161C112.754 13.1626 112.545 12.8962 112.507 12.6028C112.485 12.4354 112.513 12.2453 112.623 12.11C112.717 11.9948 112.861 11.9236 113.01 11.9081Z" fill="black"/>
<path d="M110.977 13.1142C111.082 13.1063 111.189 13.1263 111.287 13.1645C111.641 13.3025 111.781 13.6734 111.938 13.987C112.02 14.1495 112.107 14.3105 112.181 14.4766C112.335 14.8227 112.448 15.1827 112.553 15.5458C112.6 15.7067 112.651 15.8676 112.685 16.0316C112.733 16.259 112.761 16.4931 112.795 16.723C112.854 17.1163 112.9 17.5048 112.901 17.9031C112.901 18.1931 112.871 18.4808 112.841 18.7686C112.823 18.9404 112.816 19.1129 112.792 19.2843C112.747 19.6064 112.667 19.9209 112.58 20.2337C112.523 20.4363 112.473 20.6481 112.397 20.8444C112.355 20.9523 112.304 21.057 112.259 21.1636C112.125 21.4796 111.985 21.8672 111.742 22.1161C111.652 22.209 111.547 22.2706 111.429 22.3227C111.426 22.3237 111.423 22.3247 111.42 22.3257C111.284 22.3702 111.121 22.3467 110.996 22.2797C110.803 22.1762 110.681 21.9517 110.697 21.7341C110.724 21.3906 110.988 21.03 111.125 20.7169C111.246 20.4389 111.337 20.1619 111.42 19.8705C111.467 19.7045 111.515 19.5382 111.54 19.3671C111.582 19.0775 111.64 18.7838 111.663 18.4924C111.676 18.3187 111.674 18.145 111.674 17.9709C111.674 17.7331 111.678 17.4955 111.657 17.2584C111.638 17.0467 111.595 16.8371 111.554 16.6289C111.507 16.3963 111.463 16.1622 111.4 15.9332C111.355 15.7698 111.295 15.6125 111.237 15.4532C111.184 15.3051 111.134 15.1548 111.074 15.0095C110.99 14.8084 110.894 14.6171 110.787 14.4272C110.7 14.2723 110.577 14.116 110.527 13.9452C110.479 13.7776 110.484 13.5676 110.572 13.4131C110.656 13.2641 110.814 13.1581 110.977 13.1142Z" fill="black"/>
<path d="M108.747 14.3196C108.872 14.3071 109.004 14.3451 109.111 14.401C109.32 14.51 109.426 14.6906 109.545 14.8723C109.856 15.3472 110.066 15.822 110.226 16.355C110.318 16.6639 110.375 16.9738 110.425 17.2902C110.456 17.4829 110.487 17.6744 110.494 17.8693C110.51 18.2674 110.454 18.6667 110.393 19.0598C110.365 19.2361 110.341 19.4143 110.297 19.588C110.251 19.7727 110.185 19.9519 110.119 20.1316C110.012 20.425 109.905 20.7135 109.735 20.983C109.555 21.2686 109.402 21.4497 109.037 21.5398C109.027 21.5424 109.027 21.5428 109.015 21.5442C108.984 21.5479 108.945 21.5419 108.913 21.5395C108.771 21.5288 108.655 21.4999 108.539 21.4205C108.357 21.295 108.248 21.0997 108.268 20.8902C108.289 20.6742 108.436 20.477 108.54 20.2866C108.591 20.1919 108.637 20.0939 108.682 19.9963C108.728 19.8991 108.77 19.8006 108.807 19.7006C108.845 19.6008 108.879 19.4998 108.909 19.3977C108.939 19.2956 108.965 19.1926 108.987 19.0888C109.009 18.9851 109.027 18.8807 109.04 18.7758C109.077 18.4806 109.049 18.1904 109.029 17.8952C109.015 17.6954 109.024 17.4942 109.002 17.2951C108.967 16.986 108.868 16.6896 108.766 16.3945C108.706 16.2213 108.648 16.0475 108.562 15.8833C108.419 15.6131 108.138 15.305 108.098 15.0096C108.076 14.846 108.137 14.6824 108.249 14.5551C108.375 14.413 108.552 14.339 108.747 14.3196Z" fill="black"/>
<path d="M106.654 15.5264C106.781 15.5129 106.906 15.5289 107.02 15.5837C107.429 15.7792 107.75 16.4365 107.891 16.834C107.901 16.8616 107.91 16.8894 107.92 16.9173C107.929 16.9452 107.938 16.9731 107.946 17.0013C107.955 17.0294 107.963 17.0575 107.971 17.0858C107.979 17.1141 107.986 17.1425 107.993 17.171C108 17.1995 108.007 17.228 108.013 17.2567C108.02 17.2853 108.026 17.314 108.031 17.3428C108.037 17.3716 108.042 17.4004 108.047 17.4293C108.052 17.4582 108.056 17.4872 108.06 17.5162C108.064 17.5452 108.068 17.5743 108.071 17.6034C108.075 17.6325 108.078 17.6616 108.08 17.6908C108.083 17.72 108.085 17.7492 108.087 17.7784C108.089 17.8076 108.09 17.8369 108.091 17.8661C108.092 17.8954 108.093 17.9247 108.093 17.9539C108.094 17.9832 108.093 18.0125 108.093 18.0418C108.092 18.071 108.092 18.1003 108.09 18.1296C108.089 18.1588 108.088 18.1881 108.086 18.2173C108.084 18.2465 108.081 18.2757 108.078 18.3048C108.076 18.334 108.073 18.3631 108.069 18.3922C108.065 18.4213 108.062 18.4503 108.057 18.4793C108.053 18.5083 108.048 18.5372 108.043 18.5661C108.038 18.595 108.033 18.6238 108.027 18.6525C108.021 18.6813 108.015 18.7099 108.009 18.7386C108.002 18.7672 107.995 18.7957 107.988 18.8241C107.981 18.8525 107.973 18.8809 107.965 18.9091C107.957 18.9374 107.949 18.9655 107.94 18.9936C107.931 19.0216 107.922 19.0496 107.913 19.0774C107.903 19.1052 107.893 19.1329 107.883 19.1605C107.873 19.1881 107.863 19.2156 107.852 19.2429C107.841 19.2702 107.83 19.2974 107.818 19.3245C107.806 19.3516 107.794 19.3785 107.782 19.4053C107.77 19.4321 107.757 19.4587 107.744 19.4852C107.731 19.5116 107.718 19.5379 107.704 19.5641C107.547 19.8717 107.31 20.2155 106.959 20.3303C106.957 20.3307 106.955 20.3311 106.952 20.3314C106.941 20.3333 106.93 20.3348 106.919 20.3361C106.908 20.3374 106.896 20.3384 106.885 20.3391C106.874 20.3399 106.863 20.3403 106.851 20.3405C106.84 20.3407 106.829 20.3407 106.818 20.3404C106.806 20.34 106.795 20.3394 106.784 20.3385C106.773 20.3376 106.761 20.3365 106.75 20.3351C106.739 20.3337 106.728 20.332 106.717 20.3301C106.706 20.3281 106.695 20.3259 106.684 20.3234C106.673 20.321 106.662 20.3182 106.651 20.3152C106.64 20.3122 106.629 20.309 106.619 20.3055C106.608 20.302 106.598 20.2982 106.587 20.2942C106.577 20.2902 106.566 20.2859 106.556 20.2814C106.546 20.2769 106.536 20.2721 106.526 20.2671C106.516 20.2621 106.506 20.2569 106.496 20.2514C106.486 20.246 106.477 20.2403 106.467 20.2343C106.458 20.2284 106.449 20.2222 106.439 20.2159C106.151 20.015 106.123 19.7175 106.269 19.4198C106.347 19.2621 106.456 19.1206 106.532 18.9619C106.559 18.9075 106.584 18.8521 106.606 18.7957C106.628 18.7394 106.648 18.6823 106.665 18.6244C106.683 18.5665 106.698 18.508 106.71 18.449C106.722 18.3899 106.732 18.3305 106.74 18.2707C106.795 17.8646 106.735 17.4933 106.576 17.1149C106.533 17.0108 106.485 16.9012 106.423 16.8061C106.303 16.6221 106.134 16.4337 106.098 16.2132C106.095 16.1942 106.092 16.1751 106.091 16.1559C106.09 16.1367 106.09 16.1175 106.091 16.0984C106.092 16.0791 106.094 16.06 106.096 16.041C106.099 16.022 106.103 16.0031 106.108 15.9845C106.113 15.9658 106.118 15.9474 106.125 15.9293C106.132 15.9112 106.139 15.8935 106.148 15.8761C106.156 15.8587 106.166 15.8418 106.176 15.8253C106.186 15.8088 106.197 15.7929 106.209 15.7774C106.318 15.6349 106.474 15.5524 106.654 15.5264Z" fill="black"/>
<path d="M19.0404 12.0822L19.0404 22.623H16.8119L16.8119 14.1976H16.7501L14.3362 15.7107L14.3362 13.7343L16.9457 12.0822H19.0404Z" fill="black"/>
<path d="M107.341 181.972H104.333C104.314 181.972 104.305 181.995 104.319 182.008L107.253 184.887C107.261 184.895 107.261 184.909 107.253 184.917L104.195 187.963C104.182 187.976 104.191 187.999 104.209 187.999H106.933C106.938 187.999 106.943 187.997 106.947 187.994L108.726 186.338C108.734 186.331 108.747 186.331 108.754 186.339L110.371 187.993C110.375 187.997 110.38 187.999 110.385 187.999H113.395C113.413 187.999 113.422 187.977 113.409 187.963L110.392 184.917C110.384 184.909 110.384 184.895 110.392 184.887L113.407 182.008C113.421 181.995 113.412 181.972 113.393 181.972H110.426C110.421 181.972 110.416 181.974 110.412 181.978L108.878 183.506C108.87 183.514 108.857 183.514 108.849 183.506L107.356 181.978C107.352 181.974 107.347 181.972 107.341 181.972Z" fill="black"/>
<path d="M112.548 183.913L113.93 181.96C113.934 181.954 113.94 181.951 113.946 181.951H116.349C116.361 181.951 116.37 181.961 116.37 181.972L116.37 187.999C116.37 188.011 116.361 188.02 116.349 188.02H114.14C114.129 188.02 114.12 188.011 114.12 187.999L114.12 183.967C114.12 183.955 114.111 183.946 114.099 183.946H112.565C112.548 183.946 112.538 183.927 112.548 183.913Z" fill="black"/>
<path d="M113.946 181.972L112.565 183.925H114.099C114.122 183.925 114.14 183.944 114.14 183.967L114.14 187.999H116.349L116.349 181.972H113.946ZM107.341 181.951C107.352 181.951 107.363 181.956 107.37 181.963L108.864 183.491L110.398 181.963L110.401 181.96C110.408 181.954 110.417 181.951 110.426 181.951H113.393C113.428 181.951 113.446 181.992 113.425 182.018L113.421 182.024L110.406 184.902L113.424 187.948L113.428 187.954C113.447 187.98 113.429 188.02 113.395 188.02H110.385C110.375 188.02 110.364 188.016 110.356 188.008L108.74 186.354L106.96 188.009C106.953 188.016 106.943 188.02 106.933 188.02H104.209C104.173 188.02 104.155 187.974 104.181 187.948L107.239 184.902L104.304 182.023C104.278 181.997 104.296 181.951 104.333 181.951H107.341ZM107.267 184.872L107.27 184.875C107.283 184.89 107.283 184.913 107.27 184.929L107.267 184.932L104.209 187.978H106.933L108.712 186.323L108.716 186.32C108.732 186.308 108.754 186.309 108.769 186.324L110.385 187.978H113.395L110.378 184.932C110.361 184.915 110.362 184.888 110.379 184.872L113.393 181.993H110.426L108.892 183.521C108.877 183.536 108.854 183.537 108.838 183.524L108.835 183.521L107.341 181.993H104.333L107.267 184.872ZM116.39 187.999C116.39 188.022 116.372 188.041 116.349 188.041H114.14C114.118 188.041 114.099 188.022 114.099 187.999L114.099 183.967H112.565C112.531 183.967 112.512 183.928 112.531 183.9L113.913 181.948L113.916 181.944C113.924 181.935 113.935 181.93 113.946 181.93H116.349C116.372 181.93 116.39 181.949 116.39 181.972L116.39 187.999Z" fill="black"/>
</g>
<defs>
<filter id="filter0_dd_263_902" x="0" y="0" width="130.645" height="201.547" filterUnits="userSpaceOnUse" color-interpolation-filters="sRGB">
<feFlood flood-opacity="0" result="BackgroundImageFix"/>
<feColorMatrix in="SourceAlpha" type="matrix" values="0 0 0 0 0 0 0 0 0 0 0 0 0 0 0 0 0 0 127 0" result="hardAlpha"/>
<feOffset dy="1"/>
<feGaussianBlur stdDeviation="1"/>
<feColorMatrix type="matrix" values="0 0 0 0 0 0 0 0 0 0 0 0 0 0 0 0 0 0 0.06 0"/>
<feBlend mode="normal" in2="BackgroundImageFix" result="effect1_dropShadow_263_902"/>
<feColorMatrix in="SourceAlpha" type="matrix" values="0 0 0 0 0 0 0 0 0 0 0 0 0 0 0 0 0 0 127 0" result="hardAlpha"/>
<feOffset dy="1"/>
<feGaussianBlur stdDeviation="1.5"/>
<feColorMatrix type="matrix" values="0 0 0 0 0 0 0 0 0 0 0 0 0 0 0 0 0 0 0.1 0"/>
<feBlend mode="normal" in2="effect1_dropShadow_263_902" result="effect2_dropShadow_263_902"/>
<feBlend mode="normal" in="SourceGraphic" in2="effect2_dropShadow_263_902" result="shape"/>
</filter>
</defs>
</svg>
