<svg width="241" height="156" viewBox="0 0 241 156" fill="none" xmlns="http://www.w3.org/2000/svg">
<g filter="url(#filter0_d_263_902)">
<rect x="235.594" y="0.5" width="146.658" height="230.652" rx="8.0599" transform="rotate(90 235.594 0.5)" fill="white" stroke="black"/>
<rect x="212.731" y="73.5727" width="23.423" height="31.0296" rx="2.94246" transform="rotate(90 212.731 73.5727)" stroke="black" stroke-width="0.534993"/>
<path d="M181.441 81.1963L194.947 81.1963L196.238 79.9047C196.439 79.7041 196.711 79.5914 196.995 79.5914L198.029 79.5914C198.284 79.5914 198.531 79.6827 198.725 79.8489L200.297 81.1963L212.869 81.1963" stroke="black" stroke-width="0.429239"/>
<path d="M197.354 79.5915L197.354 73.7065" stroke="black" stroke-width="0.429239"/>
<path d="M204.042 76.9164L204.042 82.2505C204.042 82.5961 203.875 82.9203 203.594 83.1212L202.617 83.8188C202.336 84.0197 202.169 84.3439 202.169 84.6894L202.169 86.2631C202.169 86.6087 202.336 86.933 202.618 87.1339L203.594 87.831C203.875 88.0318 204.042 88.3562 204.042 88.7017L204.042 92.523C204.042 92.8067 203.929 93.0788 203.729 93.2795L203.507 93.5012" stroke="black" stroke-width="0.429239"/>
<path d="M204.042 89.2213L212.869 89.2213" stroke="black" stroke-width="0.429239"/>
<path d="M204.042 90.0239L202.25 90.0239C202.197 90.0239 202.146 90.0083 202.102 89.979L201.434 89.5339C201.39 89.5046 201.338 89.489 201.286 89.489L200.158 89.489C200.076 89.489 200 89.5259 199.949 89.5893L199.039 90.726C198.989 90.7895 198.912 90.8264 198.831 90.8264L197.889 90.8264C197.741 90.8264 197.622 90.9462 197.622 91.0939L197.622 97.2464" stroke="black" stroke-width="0.429239"/>
<path d="M191.737 94.0361L191.095 93.5545C190.825 93.3524 190.667 93.0353 190.667 92.6985L190.667 88.4188L192.441 86.866C192.673 86.6629 192.807 86.3693 192.807 86.0608L192.807 84.6738C192.807 84.337 192.648 84.0199 192.379 83.8178L190.667 82.5339L190.667 77.7188L191.469 76.9163" stroke="black" stroke-width="0.429239"/>
<path d="M190.667 89.7563L181.572 89.7563" stroke="black" stroke-width="0.429239"/>
<path d="M192.539 94.7049C192.539 94.7049 193.609 95.5074 193.877 95.5074C194.144 95.5074 201.366 95.5074 201.634 95.5074C201.901 95.5074 202.704 94.7049 202.704 94.7049" stroke="black" stroke-width="0.429239"/>
<path d="M202.704 76.114C202.704 76.114 201.634 75.3116 201.367 75.3116C201.099 75.3116 193.609 75.3116 193.342 75.3116C193.074 75.3116 192.004 76.3815 192.004 76.3815" stroke="black" stroke-width="0.429239"/>
<path d="M23.531 44.2226L15.7872 49.0697L45.1811 68.2907L45.1811 49.6108L23.7615 35.5863L43.2371 22.3587L43.3026 30.7394L32.9885 37.7858L36.8439 40.2413L47.2902 33.1308L47.2902 14.1314L15.8861 35.4882L41.1939 52.0322L41.1939 60.3829L23.8606 48.9076L27.3535 46.708L23.531 44.2226Z" stroke="black"/>
<path d="M75.6971 35.5864L54.2775 49.611L54.2775 68.2908L83.6716 49.0698L75.9278 44.2228L72.1053 46.7081L75.5981 48.9077L58.2651 60.3834L58.2651 52.0323L83.5727 35.4883L52.1687 14.1317L52.1687 33.1311L62.6146 40.2414L66.4704 37.7859L56.1557 30.7397L56.222 22.359L75.6971 35.5864Z" stroke="black"/>
<path d="M224.296 131.302C224.298 131.398 224.29 131.497 224.263 131.589C224.137 132.037 223.639 132.264 223.275 132.469C223.163 132.531 223.059 132.606 222.947 132.667C222.706 132.8 222.438 132.894 222.185 133.004C221.916 133.121 221.647 133.245 221.37 133.344C221.163 133.418 220.947 133.472 220.736 133.532C219.976 133.747 219.205 133.917 218.418 133.98C218.114 134.004 217.808 133.994 217.503 134.007C217.155 134.021 216.808 134.045 216.459 134.04C215.398 134.024 214.294 133.837 213.277 133.522C212.623 133.32 210.815 132.63 210.499 132.01C210.479 131.969 210.452 131.902 210.465 131.857C210.444 131.828 210.44 131.791 210.435 131.756C210.414 131.603 210.458 131.441 210.549 131.318C210.712 131.097 210.973 130.974 211.242 131.012C211.538 131.054 211.8 131.257 212.054 131.404C212.16 131.465 212.27 131.518 212.38 131.568C212.621 131.676 212.862 131.788 213.11 131.88C213.318 131.958 213.528 132.014 213.741 132.077C214.278 132.236 214.813 132.38 215.37 132.443C215.688 132.48 216.006 132.525 216.325 132.551C216.735 132.584 217.156 132.587 217.567 132.572C217.892 132.561 218.211 132.505 218.533 132.456C218.931 132.396 219.329 132.338 219.722 132.245C220.128 132.149 220.523 132.015 220.918 131.879C221.234 131.77 221.544 131.661 221.846 131.515C222.068 131.407 222.286 131.292 222.5 131.169C222.802 130.997 223.12 130.747 223.469 130.702C223.668 130.676 223.895 130.709 224.056 130.84C224.193 130.952 224.278 131.124 224.296 131.302Z" fill="black"/>
<path d="M222.86 128.876C222.869 129.002 222.845 129.129 222.8 129.246C222.636 129.668 222.194 129.835 221.821 130.023C221.627 130.12 221.436 130.224 221.238 130.312C220.826 130.496 220.397 130.631 219.965 130.757C219.773 130.813 219.581 130.874 219.386 130.915C219.115 130.972 218.837 131.005 218.563 131.046C218.095 131.116 217.632 131.171 217.158 131.172C216.812 131.173 216.47 131.137 216.127 131.101C215.923 131.079 215.717 131.071 215.513 131.042C215.13 130.988 214.755 130.893 214.383 130.788C214.141 130.721 213.889 130.662 213.656 130.571C213.527 130.521 213.402 130.46 213.275 130.406C212.899 130.246 212.438 130.079 212.141 129.789C212.031 129.681 211.957 129.556 211.895 129.416C211.894 129.412 211.893 129.409 211.892 129.405C211.839 129.242 211.867 129.048 211.947 128.898C212.07 128.668 212.337 128.522 212.596 128.542C213.005 128.573 213.435 128.889 213.807 129.052C214.138 129.197 214.468 129.306 214.815 129.404C215.013 129.461 215.211 129.518 215.415 129.547C215.759 129.598 216.109 129.667 216.456 129.694C216.663 129.71 216.87 129.707 217.077 129.707C217.36 129.708 217.643 129.712 217.925 129.687C218.177 129.664 218.427 129.614 218.675 129.564C218.952 129.509 219.231 129.455 219.503 129.381C219.698 129.327 219.885 129.255 220.075 129.187C220.251 129.123 220.43 129.063 220.603 128.991C220.843 128.891 221.07 128.776 221.297 128.649C221.481 128.545 221.667 128.398 221.87 128.339C222.07 128.282 222.32 128.288 222.504 128.392C222.681 128.493 222.808 128.681 222.86 128.876Z" fill="black"/>
<path d="M221.425 126.215C221.439 126.364 221.394 126.521 221.328 126.649C221.198 126.899 220.983 127.024 220.767 127.166C220.201 127.538 219.636 127.789 219.001 127.979C218.633 128.089 218.264 128.158 217.888 128.217C217.658 128.254 217.43 128.291 217.198 128.3C216.724 128.318 216.248 128.252 215.78 128.178C215.57 128.145 215.358 128.116 215.152 128.065C214.932 128.009 214.718 127.93 214.504 127.852C214.155 127.724 213.811 127.596 213.49 127.393C213.15 127.179 212.935 126.996 212.827 126.561C212.824 126.549 212.824 126.548 212.822 126.534C212.818 126.497 212.825 126.45 212.828 126.413C212.841 126.243 212.875 126.104 212.97 125.966C213.119 125.749 213.351 125.618 213.601 125.643C213.858 125.668 214.093 125.842 214.32 125.967C214.432 126.028 214.549 126.083 214.665 126.137C214.781 126.191 214.898 126.241 215.017 126.286C215.136 126.331 215.257 126.372 215.378 126.408C215.5 126.443 215.622 126.474 215.746 126.5C215.869 126.527 215.994 126.548 216.119 126.564C216.47 126.609 216.816 126.575 217.167 126.551C217.405 126.535 217.645 126.545 217.882 126.518C218.25 126.476 218.603 126.359 218.954 126.237C219.16 126.165 219.367 126.096 219.563 125.993C219.884 125.823 220.251 125.487 220.603 125.439C220.798 125.413 220.993 125.486 221.144 125.62C221.313 125.77 221.402 125.981 221.425 126.215Z" fill="black"/>
<path d="M219.988 123.716C220.004 123.867 219.985 124.017 219.919 124.153C219.687 124.641 218.904 125.024 218.431 125.192C218.398 125.204 218.365 125.215 218.332 125.227C218.298 125.238 218.265 125.248 218.232 125.259C218.198 125.269 218.165 125.279 218.131 125.288C218.097 125.297 218.063 125.306 218.029 125.315C217.996 125.323 217.962 125.331 217.927 125.339C217.893 125.346 217.859 125.353 217.825 125.36C217.791 125.367 217.756 125.373 217.722 125.379C217.687 125.384 217.653 125.39 217.618 125.395C217.584 125.399 217.549 125.404 217.515 125.408C217.48 125.412 217.445 125.415 217.411 125.418C217.376 125.422 217.341 125.424 217.306 125.426C217.271 125.428 217.237 125.43 217.202 125.431C217.167 125.433 217.132 125.433 217.097 125.434C217.062 125.434 217.027 125.434 216.993 125.434C216.958 125.433 216.923 125.432 216.888 125.43C216.853 125.429 216.818 125.427 216.784 125.425C216.749 125.422 216.714 125.419 216.679 125.416C216.645 125.413 216.61 125.409 216.575 125.405C216.541 125.401 216.506 125.396 216.472 125.391C216.437 125.386 216.403 125.38 216.368 125.374C216.334 125.368 216.3 125.362 216.265 125.355C216.231 125.348 216.197 125.341 216.163 125.333C216.129 125.325 216.095 125.317 216.061 125.308C216.027 125.3 215.994 125.291 215.96 125.281C215.926 125.271 215.893 125.261 215.859 125.251C215.826 125.241 215.793 125.23 215.76 125.218C215.726 125.207 215.693 125.195 215.661 125.183C215.628 125.171 215.595 125.159 215.562 125.146C215.53 125.133 215.497 125.119 215.465 125.105C215.433 125.091 215.401 125.077 215.369 125.062C215.337 125.048 215.305 125.033 215.274 125.017C215.242 125.002 215.211 124.986 215.18 124.969C214.814 124.781 214.404 124.499 214.268 124.08C214.267 124.078 214.267 124.075 214.266 124.072C214.264 124.059 214.262 124.046 214.261 124.032C214.259 124.019 214.258 124.005 214.257 123.992C214.256 123.979 214.256 123.965 214.255 123.952C214.255 123.938 214.255 123.925 214.256 123.911C214.256 123.898 214.257 123.884 214.258 123.871C214.259 123.858 214.26 123.844 214.262 123.831C214.264 123.818 214.266 123.804 214.268 123.791C214.27 123.778 214.273 123.765 214.276 123.752C214.279 123.738 214.282 123.725 214.286 123.713C214.289 123.7 214.293 123.687 214.297 123.674C214.301 123.661 214.306 123.649 214.311 123.636C214.315 123.624 214.321 123.611 214.326 123.599C214.331 123.587 214.337 123.575 214.343 123.563C214.349 123.551 214.355 123.539 214.362 123.528C214.368 123.516 214.375 123.505 214.382 123.493C214.389 123.482 214.396 123.471 214.404 123.46C214.643 123.116 214.997 123.083 215.352 123.257C215.54 123.349 215.708 123.479 215.897 123.571C215.962 123.603 216.028 123.632 216.095 123.659C216.162 123.685 216.23 123.709 216.299 123.729C216.368 123.75 216.437 123.768 216.508 123.783C216.578 123.798 216.649 123.81 216.72 123.819C217.204 123.884 217.646 123.812 218.096 123.623C218.22 123.571 218.351 123.515 218.464 123.44C218.683 123.297 218.907 123.095 219.17 123.052C219.193 123.048 219.215 123.046 219.238 123.044C219.261 123.043 219.284 123.043 219.307 123.044C219.33 123.045 219.352 123.047 219.375 123.051C219.398 123.054 219.42 123.059 219.442 123.064C219.464 123.07 219.486 123.077 219.508 123.085C219.53 123.093 219.551 123.102 219.571 123.112C219.592 123.122 219.612 123.133 219.632 123.146C219.651 123.158 219.67 123.171 219.689 123.185C219.858 123.315 219.957 123.501 219.988 123.716Z" fill="black"/>
<path d="M224.289 18.7633L211.802 18.7633L211.802 16.1232L221.783 16.1232L221.783 16.0501L219.99 13.1905L222.332 13.1905L224.289 16.2818L224.289 18.7633Z" fill="black"/>
<path d="M22.8926 123.607L22.8926 120.042C22.8926 120.021 22.8653 120.01 22.8499 120.026L19.4395 123.502C19.4298 123.511 19.4136 123.512 19.4038 123.502L15.7951 119.879C15.7796 119.864 15.7526 119.875 15.7526 119.896L15.7526 123.123C15.7526 123.129 15.7549 123.134 15.759 123.139L17.72 125.247C17.7289 125.257 17.7286 125.271 17.7192 125.281L15.7599 127.195C15.7552 127.2 15.7526 127.206 15.7526 127.213L15.7526 130.778C15.7526 130.8 15.7795 130.81 15.795 130.795L19.4036 127.221C19.4135 127.211 19.4298 127.211 19.4394 127.221L22.8496 130.792C22.865 130.808 22.8926 130.798 22.8926 130.776L22.8926 127.261C22.8926 127.255 22.89 127.248 22.8855 127.244L21.075 125.427C21.0656 125.417 21.0657 125.402 21.0753 125.393L22.8853 123.624C22.8899 123.619 22.8926 123.613 22.8926 123.607Z" fill="black"/>
<path d="M20.5936 129.774L22.9071 131.411C22.9135 131.416 22.9173 131.423 22.9173 131.431L22.9173 134.278C22.9173 134.291 22.9062 134.302 22.8926 134.302L15.7526 134.302C15.7389 134.302 15.7278 134.291 15.7278 134.278L15.7278 131.661C15.7278 131.647 15.7389 131.637 15.7526 131.637L20.5295 131.637C20.5432 131.637 20.5543 131.626 20.5543 131.612L20.5543 129.794C20.5543 129.774 20.5772 129.763 20.5936 129.774Z" fill="black"/>
<path d="M22.8926 131.431L20.5791 129.794L20.5791 131.612C20.5791 131.639 20.5569 131.661 20.5295 131.661L15.7526 131.661L15.7526 134.278L22.8926 134.278L22.8926 131.431ZM22.9173 123.607C22.9173 123.619 22.9121 123.632 22.9028 123.641L21.0928 125.41L22.9033 127.227L22.9065 127.231C22.9135 127.239 22.9173 127.25 22.9173 127.261L22.9173 130.776C22.9173 130.817 22.8689 130.838 22.8375 130.814L22.8315 130.809L19.4213 127.238L15.8127 130.812L15.8066 130.817C15.775 130.84 15.7278 130.819 15.7278 130.778L15.7278 127.213C15.7278 127.2 15.733 127.187 15.7423 127.178L17.7017 125.263L15.7407 123.155C15.7324 123.146 15.7278 123.135 15.7278 123.123L15.7278 119.896C15.7278 119.853 15.7819 119.831 15.8129 119.863L19.4216 123.485L22.832 120.009C22.8629 119.977 22.9173 119.999 22.9173 120.042L22.9173 123.607ZM19.4574 123.518L19.4536 123.522C19.4353 123.537 19.4083 123.537 19.3899 123.522L19.3861 123.519L15.7774 119.896L15.7774 123.123L17.7383 125.231L17.7415 125.234C17.756 125.254 17.7543 125.281 17.7367 125.298L15.7774 127.213L15.7774 130.778L19.386 127.203C19.4058 127.184 19.4382 127.184 19.4575 127.204L22.8678 130.776L22.8678 127.261L21.0573 125.444C21.0396 125.426 21.0386 125.398 21.0544 125.379L21.0577 125.376L22.8678 123.607L22.8678 120.042L19.4574 123.518ZM15.7526 134.326C15.7252 134.326 15.703 134.304 15.703 134.278L15.703 131.661C15.703 131.634 15.7252 131.612 15.7526 131.612L20.5295 131.612L20.5295 129.794C20.5295 129.755 20.5754 129.732 20.6082 129.755L22.9216 131.392L22.9262 131.395C22.9363 131.404 22.9421 131.417 22.9421 131.431L22.9421 134.278C22.9421 134.304 22.9199 134.326 22.8926 134.326L15.7526 134.326Z" fill="black"/>
</g>
<defs>
<filter id="filter0_d_263_902" x="-0.0947266" y="-7.62939e-06" width="240.188" height="156" filterUnits="userSpaceOnUse" color-interpolation-filters="sRGB">
<feFlood flood-opacity="0" result="BackgroundImageFix"/>
<feColorMatrix in="SourceAlpha" type="matrix" values="0 0 0 0 0 0 0 0 0 0 0 0 0 0 0 0 0 0 127 0" result="hardAlpha"/>
<feOffset dy="4"/>
<feGaussianBlur stdDeviation="2"/>
<feComposite in2="hardAlpha" operator="out"/>
<feColorMatrix type="matrix" values="0 0 0 0 0 0 0 0 0 0 0 0 0 0 0 0 0 0 0.04 0"/>
<feBlend mode="normal" in2="BackgroundImageFix" result="effect1_dropShadow_263_902"/>
<feBlend mode="normal" in="SourceGraphic" in2="effect1_dropShadow_263_902" result="shape"/>
</filter>
</defs>
</svg>
