<svg viewBox="0 0 47 58" fill="currentColor" xmlns="http://www.w3.org/2000/svg">
<g id="Vector">
<path d="M25.9547 50.8507L29.9973 57.3094L46.0285 32.7935H30.4486L18.7516 50.6585L7.71912 34.4149L14.709 34.3603L20.5861 42.9627L22.6341 39.7472L16.7036 31.0345H0.857178L18.6697 57.2269L32.4682 36.1191H39.4331L29.8621 50.5758L28.0275 47.6625L25.9547 50.8507Z" fill="currentColor"/>
<path d="M18.7516 7.34184L30.4488 25.2068H46.0286L29.9974 0.690674L25.9548 7.14939L28.0276 10.3375L29.8622 7.42435L39.4334 21.8809H32.4683L18.6698 0.773168L0.857408 26.9655H16.7038L22.6341 18.2532L20.5861 15.0373L14.7092 23.6402L7.71935 23.585L18.7516 7.34184Z" fill="currentColor"/>
</g>
</svg>
