<svg width="12" height="12" viewBox="0 0 12 12" fill="none" xmlns="http://www.w3.org/2000/svg">
<path fill-rule="evenodd" clip-rule="evenodd" d="M6 12C9.31371 12 12 9.31371 12 6C12 2.68629 9.31371 0 6 0C2.68629 0 0 2.68629 0 6C0 9.31371 2.68629 12 6 12ZM9.37963 4.3254C9.55934 4.11573 9.53506 3.80008 9.3254 3.62037C9.11573 3.44066 8.80008 3.46494 8.62037 3.6746L5.53706 7.2718L3.8473 5.6403C3.64864 5.44849 3.33211 5.45405 3.1403 5.6527C2.94849 5.85136 2.95405 6.16789 3.1527 6.3597L5.22413 8.3597L5.60579 8.7282L5.95106 8.3254L9.37963 4.3254Z" fill="#00660E"/>
</svg>
