<svg width="32" height="32" viewBox="0 0 32 32" fill="none" xmlns="http://www.w3.org/2000/svg">
<rect x="0.75" y="0.75" width="30.5" height="30.5" rx="15.25" fill="#5F47D7" fill-opacity="0.06"/>
<rect x="0.75" y="0.75" width="30.5" height="30.5" rx="15.25" stroke="#5F47D7" stroke-width="1.5"/>
<path d="M17.7844 12.9208C17.124 11.4917 15.6778 10.5 14 10.5C11.6988 10.5 9.83331 12.3655 9.83331 14.6667C9.83331 16.9308 11.6391 18.7731 13.889 18.8319M22.1666 17.3333C22.1666 19.6345 20.3012 21.5 18 21.5C16.227 21.5 14.7127 20.3927 14.1109 18.8319C13.9316 18.3669 13.8333 17.8616 13.8333 17.3333C13.8333 15.0692 15.6391 13.2269 17.889 13.1681C17.9259 13.1672 17.9629 13.1667 18 13.1667C20.3012 13.1667 22.1666 15.0321 22.1666 17.3333Z" stroke="#5F47D7" stroke-width="1.5" stroke-linecap="square"/>
</svg>
