<svg width="24" height="24" viewBox="0 0 24 24" fill="none" xmlns="http://www.w3.org/2000/svg">
<g id="warning">
<g id="Vector">
<mask id="path-1-outside-1_5785_4249" maskUnits="userSpaceOnUse" x="0.5" y="0.5" width="23" height="23" fill="black">
<rect fill="white" x="0.5" y="0.5" width="23" height="23"/>
<path fill-rule="evenodd" clip-rule="evenodd" d="M12 1.5C9.9233 1.5 7.89323 2.11581 6.16652 3.26957C4.4398 4.42332 3.09399 6.0632 2.29927 7.98182C1.50455 9.90045 1.29661 12.0116 1.70176 14.0484C2.1069 16.0852 3.10693 17.9562 4.57538 19.4246C6.04383 20.8931 7.91476 21.8931 9.95156 22.2982C11.9884 22.7034 14.0996 22.4955 16.0182 21.7007C17.9368 20.906 19.5767 19.5602 20.7304 17.8335C21.8842 16.1068 22.5 14.0767 22.5 12C22.5 9.21523 21.3938 6.54451 19.4246 4.57538C17.4555 2.60625 14.7848 1.5 12 1.5ZM12 21C10.22 21 8.47992 20.4722 6.99987 19.4832C5.51983 18.4943 4.36628 17.0887 3.68509 15.4442C3.0039 13.7996 2.82567 11.99 3.17294 10.2442C3.5202 8.49836 4.37737 6.89471 5.63604 5.63604C6.89472 4.37737 8.49836 3.5202 10.2442 3.17293C11.99 2.82567 13.7996 3.0039 15.4442 3.68508C17.0887 4.36627 18.4943 5.51983 19.4832 6.99987C20.4722 8.47991 21 10.22 21 12C21 14.3869 20.0518 16.6761 18.364 18.364C16.6761 20.0518 14.387 21 12 21ZM12.75 6H11.25V14.25H12.75V6ZM11.375 16.6896C11.56 16.566 11.7775 16.5 12 16.5C12.2984 16.5 12.5845 16.6185 12.7955 16.8295C13.0065 17.0405 13.125 17.3266 13.125 17.625C13.125 17.8475 13.059 18.065 12.9354 18.25C12.8118 18.435 12.6361 18.5792 12.4305 18.6644C12.225 18.7495 11.9988 18.7718 11.7805 18.7284C11.5623 18.685 11.3618 18.5778 11.2045 18.4205C11.0472 18.2632 10.94 18.0627 10.8966 17.8445C10.8532 17.6262 10.8755 17.4 10.9606 17.1945C11.0458 16.9889 11.19 16.8132 11.375 16.6896Z"/>
</mask>
<path fill-rule="evenodd" clip-rule="evenodd" d="M12 1.5C9.9233 1.5 7.89323 2.11581 6.16652 3.26957C4.4398 4.42332 3.09399 6.0632 2.29927 7.98182C1.50455 9.90045 1.29661 12.0116 1.70176 14.0484C2.1069 16.0852 3.10693 17.9562 4.57538 19.4246C6.04383 20.8931 7.91476 21.8931 9.95156 22.2982C11.9884 22.7034 14.0996 22.4955 16.0182 21.7007C17.9368 20.906 19.5767 19.5602 20.7304 17.8335C21.8842 16.1068 22.5 14.0767 22.5 12C22.5 9.21523 21.3938 6.54451 19.4246 4.57538C17.4555 2.60625 14.7848 1.5 12 1.5ZM12 21C10.22 21 8.47992 20.4722 6.99987 19.4832C5.51983 18.4943 4.36628 17.0887 3.68509 15.4442C3.0039 13.7996 2.82567 11.99 3.17294 10.2442C3.5202 8.49836 4.37737 6.89471 5.63604 5.63604C6.89472 4.37737 8.49836 3.5202 10.2442 3.17293C11.99 2.82567 13.7996 3.0039 15.4442 3.68508C17.0887 4.36627 18.4943 5.51983 19.4832 6.99987C20.4722 8.47991 21 10.22 21 12C21 14.3869 20.0518 16.6761 18.364 18.364C16.6761 20.0518 14.387 21 12 21ZM12.75 6H11.25V14.25H12.75V6ZM11.375 16.6896C11.56 16.566 11.7775 16.5 12 16.5C12.2984 16.5 12.5845 16.6185 12.7955 16.8295C13.0065 17.0405 13.125 17.3266 13.125 17.625C13.125 17.8475 13.059 18.065 12.9354 18.25C12.8118 18.435 12.6361 18.5792 12.4305 18.6644C12.225 18.7495 11.9988 18.7718 11.7805 18.7284C11.5623 18.685 11.3618 18.5778 11.2045 18.4205C11.0472 18.2632 10.94 18.0627 10.8966 17.8445C10.8532 17.6262 10.8755 17.4 10.9606 17.1945C11.0458 16.9889 11.19 16.8132 11.375 16.6896Z" fill="#DC2626"/>
<path d="M6.16652 3.26957L6.23596 3.3735L6.16652 3.26957ZM1.70176 14.0484L1.57916 14.0728L1.70176 14.0484ZM4.57538 19.4246L4.48699 19.513H4.48699L4.57538 19.4246ZM9.95156 22.2982L9.97594 22.1756L9.95156 22.2982ZM16.0182 21.7007L15.9703 21.5853L16.0182 21.7007ZM20.7304 17.8335L20.6265 17.764L20.7304 17.8335ZM19.4246 4.57538L19.513 4.48699L19.4246 4.57538ZM6.99987 19.4832L6.93043 19.5872L6.99987 19.4832ZM3.68509 15.4442L3.5696 15.492L3.68509 15.4442ZM3.17294 10.2442L3.05034 10.2198L3.17294 10.2442ZM5.63604 5.63604L5.54766 5.54765L5.63604 5.63604ZM10.2442 3.17293L10.2198 3.05033L10.2442 3.17293ZM15.4442 3.68508L15.3963 3.80057L15.4442 3.68508ZM19.4832 6.99987L19.5872 6.93042L19.4832 6.99987ZM18.364 18.364L18.2756 18.2756L18.364 18.364ZM11.25 6V5.875H11.125V6H11.25ZM12.75 6H12.875V5.875H12.75V6ZM11.25 14.25H11.125V14.375H11.25V14.25ZM12.75 14.25V14.375H12.875V14.25H12.75ZM12.7955 16.8295L12.8839 16.7411L12.7955 16.8295ZM12.9354 18.25L13.0393 18.3195L12.9354 18.25ZM12.4305 18.6644L12.4784 18.7798H12.4784L12.4305 18.6644ZM11.7805 18.7284L11.7561 18.851H11.7561L11.7805 18.7284ZM11.2045 18.4205L11.2929 18.3321L11.2045 18.4205ZM10.8966 17.8445L10.774 17.8689L10.774 17.8689L10.8966 17.8445ZM10.9606 17.1945L10.8452 17.1466L10.9606 17.1945ZM6.23596 3.3735C7.94212 2.23348 9.94802 1.625 12 1.625V1.375C9.89858 1.375 7.84434 1.99815 6.09707 3.16564L6.23596 3.3735ZM2.41475 8.02966C3.20001 6.13388 4.5298 4.51352 6.23596 3.3735L6.09707 3.16564C4.3498 4.33313 2.98797 5.99252 2.18378 7.93399L2.41475 8.02966ZM1.82436 14.0241C1.42404 12.0115 1.6295 9.92544 2.41475 8.02966L2.18378 7.93399C1.3796 9.87545 1.16919 12.0118 1.57916 14.0728L1.82436 14.0241ZM4.66377 19.3362C3.2128 17.8853 2.22468 16.0366 1.82436 14.0241L1.57916 14.0728C1.98913 16.1339 3.00106 18.0271 4.48699 19.513L4.66377 19.3362ZM9.97594 22.1756C7.96339 21.7753 6.11474 20.7872 4.66377 19.3362L4.48699 19.513C5.97293 20.9989 7.86612 22.0109 9.92717 22.4208L9.97594 22.1756ZM15.9703 21.5853C14.0746 22.3705 11.9885 22.576 9.97594 22.1756L9.92717 22.4208C11.9882 22.8308 14.1246 22.6204 16.066 21.8162L15.9703 21.5853ZM20.6265 17.764C19.4865 19.4702 17.8661 20.8 15.9703 21.5853L16.066 21.8162C18.0075 21.012 19.6669 19.6502 20.8344 17.9029L20.6265 17.764ZM22.375 12C22.375 14.052 21.7665 16.0579 20.6265 17.764L20.8344 17.9029C22.0019 16.1557 22.625 14.1014 22.625 12H22.375ZM19.3362 4.66377C21.2819 6.60946 22.375 9.24838 22.375 12H22.625C22.625 9.18208 21.5056 6.47956 19.513 4.48699L19.3362 4.66377ZM12 1.625C14.7516 1.625 17.3905 2.71808 19.3362 4.66377L19.513 4.48699C17.5204 2.49442 14.8179 1.375 12 1.375V1.625ZM6.93043 19.5872C8.43103 20.5898 10.1952 21.125 12 21.125V20.875C10.2447 20.875 8.52881 20.3545 7.06932 19.3793L6.93043 19.5872ZM3.5696 15.492C4.26025 17.1594 5.42983 18.5845 6.93043 19.5872L7.06932 19.3793C5.60983 18.4041 4.4723 17.018 3.80057 15.3963L3.5696 15.492ZM3.05034 10.2198C2.69825 11.9899 2.87895 13.8246 3.5696 15.492L3.80057 15.3963C3.12885 13.7746 2.95309 11.9902 3.29554 10.2686L3.05034 10.2198ZM5.54766 5.54765C4.2715 6.8238 3.40243 8.44972 3.05034 10.2198L3.29554 10.2686C3.63798 8.54699 4.48324 6.96562 5.72443 5.72443L5.54766 5.54765ZM10.2198 3.05033C8.44973 3.40242 6.82381 4.2715 5.54766 5.54765L5.72443 5.72443C6.96562 4.48324 8.547 3.63797 10.2686 3.29553L10.2198 3.05033ZM15.492 3.5696C13.8246 2.87895 11.9899 2.69824 10.2198 3.05033L10.2686 3.29553C11.9902 2.95309 13.7746 3.12884 15.3963 3.80057L15.492 3.5696ZM19.5872 6.93042C18.5845 5.42982 17.1594 4.26025 15.492 3.5696L15.3963 3.80057C17.018 4.4723 18.4041 5.60983 19.3793 7.06931L19.5872 6.93042ZM21.125 12C21.125 10.1952 20.5898 8.43102 19.5872 6.93042L19.3793 7.06931C20.3545 8.5288 20.875 10.2447 20.875 12H21.125ZM18.4524 18.4523C20.1636 16.7411 21.125 14.4201 21.125 12H20.875C20.875 14.3538 19.94 16.6112 18.2756 18.2756L18.4524 18.4523ZM12 21.125C14.4201 21.125 16.7411 20.1636 18.4524 18.4523L18.2756 18.2756C16.6112 19.94 14.3538 20.875 12 20.875V21.125ZM11.25 6.125H12.75V5.875H11.25V6.125ZM11.375 14.25V6H11.125V14.25H11.375ZM12.75 14.125H11.25V14.375H12.75V14.125ZM12.625 6V14.25H12.875V6H12.625ZM12 16.375C11.7528 16.375 11.5111 16.4483 11.3055 16.5857L11.4444 16.7935C11.6089 16.6837 11.8022 16.625 12 16.625V16.375ZM12.8839 16.7411C12.6495 16.5067 12.3315 16.375 12 16.375V16.625C12.2652 16.625 12.5196 16.7304 12.7071 16.9179L12.8839 16.7411ZM13.25 17.625C13.25 17.2935 13.1183 16.9755 12.8839 16.7411L12.7071 16.9179C12.8946 17.1054 13 17.3598 13 17.625H13.25ZM13.0393 18.3195C13.1767 18.1139 13.25 17.8722 13.25 17.625H13C13 17.8228 12.9414 18.0161 12.8315 18.1806L13.0393 18.3195ZM12.4784 18.7798C12.7068 18.6852 12.902 18.525 13.0393 18.3195L12.8315 18.1806C12.7216 18.345 12.5654 18.4732 12.3827 18.5489L12.4784 18.7798ZM11.7561 18.851C11.9986 18.8992 12.2499 18.8745 12.4784 18.7798L12.3827 18.5489C12.2 18.6246 11.9989 18.6444 11.8049 18.6058L11.7561 18.851ZM11.1161 18.5089C11.2909 18.6837 11.5137 18.8027 11.7561 18.851L11.8049 18.6058C11.6109 18.5672 11.4327 18.472 11.2929 18.3321L11.1161 18.5089ZM10.774 17.8689C10.8223 18.1113 10.9413 18.3341 11.1161 18.5089L11.2929 18.3321C11.153 18.1923 11.0578 18.0141 11.0192 17.8201L10.774 17.8689ZM10.8452 17.1466C10.7505 17.3751 10.7258 17.6264 10.774 17.8689L11.0192 17.8201C10.9806 17.6261 11.0004 17.425 11.0761 17.2423L10.8452 17.1466ZM11.3055 16.5857C11.1 16.723 10.9398 16.9182 10.8452 17.1466L11.0761 17.2423C11.1518 17.0596 11.28 16.9034 11.4444 16.7935L11.3055 16.5857Z" fill="#DC2626" mask="url(#path-1-outside-1_5785_4249)"/>
</g>
</g>
</svg>
