<svg width="24" height="24" viewBox="0 0 24 24" fill="none" xmlns="http://www.w3.org/2000/svg">
<path fill-rule="evenodd" clip-rule="evenodd" d="M9.00235 15.5297C9.2621 15.1723 9.7624 15.0931 10.1198 15.3529C10.5821 15.6888 11.2204 16 11.9999 16C12.7795 16 13.4178 15.6888 13.88 15.3529C14.2374 15.0931 14.7377 15.1723 14.9975 15.5297C15.2572 15.8871 15.178 16.3874 14.8206 16.6472C14.1821 17.1112 13.2204 17.6 11.9999 17.6C10.7795 17.6 9.81775 17.1112 9.17919 16.6472C8.82178 16.3874 8.7426 15.8871 9.00235 15.5297Z" fill="#4C28B8"/>
<path fill-rule="evenodd" clip-rule="evenodd" d="M15.9999 8.80002C16.4417 8.80002 16.7999 9.1582 16.7999 9.60002V11.2C16.7999 11.6419 16.4417 12 15.9999 12C15.5581 12 15.1999 11.6419 15.1999 11.2V9.60002C15.1999 9.1582 15.5581 8.80002 15.9999 8.80002Z" fill="#4C28B8"/>
<path fill-rule="evenodd" clip-rule="evenodd" d="M7.9999 8.80002C8.44173 8.80002 8.7999 9.1582 8.7999 9.60002V11.2C8.7999 11.6419 8.44173 12 7.9999 12C7.55807 12 7.1999 11.6419 7.1999 11.2V9.60002C7.1999 9.1582 7.55807 8.80002 7.9999 8.80002Z" fill="#4C28B8"/>
<path fill-rule="evenodd" clip-rule="evenodd" d="M11.9999 8.80002C12.4417 8.80002 12.7999 9.1582 12.7999 9.60002V12.8C12.7999 13.6835 12.0833 14.4 11.1999 14.4C10.7581 14.4 10.3999 14.0419 10.3999 13.6C10.3999 13.1582 10.7581 12.8 11.1999 12.8V9.60002C11.1999 9.1582 11.5581 8.80002 11.9999 8.80002Z" fill="#4C28B8"/>
<path fill-rule="evenodd" clip-rule="evenodd" d="M15.9999 3.20002C15.9999 2.7582 16.3581 2.40002 16.7999 2.40002H19.1999C20.5257 2.40002 21.5999 3.4742 21.5999 4.80002V7.20002C21.5999 7.64185 21.2417 8.00002 20.7999 8.00002C20.3581 8.00002 19.9999 7.64185 19.9999 7.20002V4.80002C19.9999 4.35785 19.6421 4.00002 19.1999 4.00002H16.7999C16.3581 4.00002 15.9999 3.64185 15.9999 3.20002Z" fill="#4C28B8"/>
<path fill-rule="evenodd" clip-rule="evenodd" d="M2.3999 4.80002C2.3999 3.4742 3.47407 2.40002 4.7999 2.40002H7.1999C7.64173 2.40002 7.9999 2.7582 7.9999 3.20002C7.9999 3.64185 7.64173 4.00002 7.1999 4.00002H4.7999C4.35773 4.00002 3.9999 4.35785 3.9999 4.80002V7.20002C3.9999 7.64185 3.64173 8.00002 3.1999 8.00002C2.75807 8.00002 2.3999 7.64185 2.3999 7.20002V4.80002Z" fill="#4C28B8"/>
<path fill-rule="evenodd" clip-rule="evenodd" d="M20.7999 16C21.2417 16 21.5999 16.3582 21.5999 16.8V19.2C21.5999 20.5259 20.5257 21.6 19.1999 21.6H16.7999C16.3581 21.6 15.9999 21.2419 15.9999 20.8C15.9999 20.3582 16.3581 20 16.7999 20H19.1999C19.6421 20 19.9999 19.6422 19.9999 19.2V16.8C19.9999 16.3582 20.3581 16 20.7999 16Z" fill="#4C28B8"/>
<path fill-rule="evenodd" clip-rule="evenodd" d="M3.1999 16C3.64173 16 3.9999 16.3582 3.9999 16.8V19.2C3.9999 19.6422 4.35773 20 4.7999 20H7.1999C7.64173 20 7.9999 20.3582 7.9999 20.8C7.9999 21.2419 7.64173 21.6 7.1999 21.6H4.7999C3.47407 21.6 2.3999 20.5259 2.3999 19.2V16.8C2.3999 16.3582 2.75807 16 3.1999 16Z" fill="#4C28B8"/>
</svg>
