<svg width="16" height="16" viewBox="0 0 16 16" fill="#FFF" xmlns="http://www.w3.org/2000/svg">
<path d="M13 5H11.6192C11.9446 4.51899 12.0708 3.93051 11.9713 3.35834C11.8717 2.78618 11.5542 2.27491 11.0854 1.93208C10.6166 1.58925 10.0331 1.44158 9.45772 1.52013C8.88229 1.59868 8.35975 1.89732 8 2.35325C7.63946 1.89958 7.11737 1.603 6.54307 1.52563C5.96877 1.44825 5.38681 1.59608 4.91906 1.93816C4.4513 2.28023 4.13405 2.79002 4.03372 3.36076C3.9334 3.93149 4.05779 4.51891 4.38085 5H3C2.73489 5.00033 2.48072 5.10579 2.29326 5.29325C2.10579 5.48072 2.00033 5.73488 2 6V8C2.00033 8.26511 2.10579 8.51927 2.29326 8.70674C2.48072 8.8942 2.73489 8.99967 3 9V14C3.00033 14.2651 3.10579 14.5193 3.29326 14.7067C3.48072 14.8942 3.73488 14.9997 4 15H12C12.2651 14.9997 12.5193 14.8942 12.7067 14.7067C12.8942 14.5193 12.9997 14.2651 13 14V9C13.2651 8.99967 13.5193 8.8942 13.7067 8.70674C13.8942 8.51927 13.9997 8.26511 14 8V6C13.9997 5.73488 13.8942 5.48072 13.7067 5.29325C13.5193 5.10579 13.2651 5.00033 13 5ZM8.5 3.75C8.5 3.50277 8.57331 3.26109 8.71066 3.05553C8.84801 2.84997 9.04324 2.68976 9.27165 2.59515C9.50005 2.50054 9.75139 2.47578 9.99386 2.52401C10.2363 2.57225 10.4591 2.6913 10.6339 2.86611C10.8087 3.04093 10.9278 3.26366 10.976 3.50613C11.0242 3.74861 10.9995 3.99994 10.9048 4.22835C10.8102 4.45676 10.65 4.65198 10.4445 4.78933C10.2389 4.92668 9.99723 5 9.75 5H8.5V3.75ZM6.25 2.5C6.5814 2.50039 6.89911 2.63222 7.13345 2.86655C7.36778 3.10089 7.4996 3.4186 7.5 3.75V5H6.25C5.91848 5 5.60054 4.8683 5.36612 4.63388C5.1317 4.39946 5 4.08152 5 3.75C5 3.41848 5.1317 3.10053 5.36612 2.86611C5.60054 2.63169 5.91848 2.5 6.25 2.5ZM3 6H7.5V8H3V6ZM4 9H7.5V14H4V9ZM12.0006 14H8.5V9H12L12.0006 14ZM8.5 8V6H13L13.0006 8H8.5Z" fill="#FFF"/>
<path d="M13 5H11.6192C11.9446 4.51899 12.0708 3.93051 11.9713 3.35834C11.8717 2.78618 11.5542 2.27491 11.0854 1.93208C10.6166 1.58925 10.0331 1.44158 9.45772 1.52013C8.88229 1.59868 8.35975 1.89732 8 2.35325C7.63946 1.89958 7.11737 1.603 6.54307 1.52563C5.96877 1.44825 5.38681 1.59608 4.91906 1.93816C4.4513 2.28023 4.13405 2.79002 4.03372 3.36076C3.9334 3.93149 4.05779 4.51891 4.38085 5H3C2.73489 5.00033 2.48072 5.10579 2.29326 5.29325C2.10579 5.48072 2.00033 5.73488 2 6V8C2.00033 8.26511 2.10579 8.51927 2.29326 8.70674C2.48072 8.8942 2.73489 8.99967 3 9V14C3.00033 14.2651 3.10579 14.5193 3.29326 14.7067C3.48072 14.8942 3.73488 14.9997 4 15H12C12.2651 14.9997 12.5193 14.8942 12.7067 14.7067C12.8942 14.5193 12.9997 14.2651 13 14V9C13.2651 8.99967 13.5193 8.8942 13.7067 8.70674C13.8942 8.51927 13.9997 8.26511 14 8V6C13.9997 5.73488 13.8942 5.48072 13.7067 5.29325C13.5193 5.10579 13.2651 5.00033 13 5ZM8.5 3.75C8.5 3.50277 8.57331 3.26109 8.71066 3.05553C8.84801 2.84997 9.04324 2.68976 9.27165 2.59515C9.50005 2.50054 9.75139 2.47578 9.99386 2.52401C10.2363 2.57225 10.4591 2.6913 10.6339 2.86611C10.8087 3.04093 10.9278 3.26366 10.976 3.50613C11.0242 3.74861 10.9995 3.99994 10.9048 4.22835C10.8102 4.45676 10.65 4.65198 10.4445 4.78933C10.2389 4.92668 9.99723 5 9.75 5H8.5V3.75ZM6.25 2.5C6.5814 2.50039 6.89911 2.63222 7.13345 2.86655C7.36778 3.10089 7.4996 3.4186 7.5 3.75V5H6.25C5.91848 5 5.60054 4.8683 5.36612 4.63388C5.1317 4.39946 5 4.08152 5 3.75C5 3.41848 5.1317 3.10053 5.36612 2.86611C5.60054 2.63169 5.91848 2.5 6.25 2.5ZM3 6H7.5V8H3V6ZM4 9H7.5V14H4V9ZM12.0006 14H8.5V9H12L12.0006 14ZM8.5 8V6H13L13.0006 8H8.5Z" stroke="none"/>
</svg>
