<svg width="24" height="24" viewBox="0 0 24 24" fill="currentColor" xmlns="http://www.w3.org/2000/svg">
<path fill-rule="evenodd" clip-rule="evenodd" d="M1.5 12C1.5 6.20101 6.20101 1.5 12 1.5C17.799 1.5 22.5 6.20101 22.5 12C22.5 17.799 17.799 22.5 12 22.5C6.20101 22.5 1.5 17.799 1.5 12ZM11.5757 20.9902C11.7163 20.9967 11.8578 21 12 21C12.1422 21 12.2837 20.9967 12.4243 20.9902C13.9246 18.9528 14.9524 15.523 14.9996 12.75H9.00039C9.04761 15.523 10.0754 18.9528 11.5757 20.9902ZM9.60214 20.677C8.32514 18.3735 7.53879 15.3017 7.5002 12.75H3.03081C3.34484 16.5566 6.02783 19.6915 9.60214 20.677ZM20.9692 12.75C20.6552 16.5566 17.9722 19.6915 14.3979 20.677C15.6749 18.3735 16.4612 15.3017 16.4998 12.75H20.9692ZM12.4243 3.00983C12.2837 3.0033 12.1422 3 12 3C11.8578 3 11.7163 3.0033 11.5757 3.00983C10.0754 5.04723 9.04761 8.47704 9.00039 11.25H14.9996C14.9524 8.47704 13.9246 5.04723 12.4243 3.00983ZM14.3979 3.32295C15.6749 5.62646 16.4612 8.69834 16.4998 11.25H20.9692C20.6552 7.44339 17.9722 4.3085 14.3979 3.32295ZM3.03081 11.25C3.34484 7.44339 6.02783 4.3085 9.60214 3.32295C8.32514 5.62646 7.53879 8.69834 7.5002 11.25H3.03081Z" fill="currentColor"/>
</svg>
