<svg width="24" height="24" viewBox="0 0 24 24" fill="#8061E5" xmlns="http://www.w3.org/2000/svg">
<g id="grid">
<path id="Vector" fill-rule="evenodd" clip-rule="evenodd" d="M4.75 3H9.25C9.64782 3 10.0294 3.15804 10.3107 3.43934C10.592 3.72064 10.75 4.10218 10.75 4.5V9C10.75 9.39782 10.592 9.77936 10.3107 10.0607C10.0294 10.342 9.64782 10.5 9.25 10.5H4.75C4.35218 10.5 3.97064 10.342 3.68934 10.0607C3.40804 9.77936 3.25 9.39782 3.25 9V4.5C3.25 4.10218 3.40804 3.72064 3.68934 3.43934C3.97064 3.15804 4.35218 3 4.75 3ZM4.75 9H9.25V4.5H4.75V9ZM15.25 3H19.75C20.1478 3 20.5294 3.15804 20.8107 3.43934C21.092 3.72064 21.25 4.10218 21.25 4.5V9C21.25 9.39782 21.092 9.77936 20.8107 10.0607C20.5294 10.342 20.1478 10.5 19.75 10.5H15.25C14.8522 10.5 14.4706 10.342 14.1893 10.0607C13.908 9.77936 13.75 9.39782 13.75 9V4.5C13.75 4.10218 13.908 3.72064 14.1893 3.43934C14.4706 3.15804 14.8522 3 15.25 3ZM15.25 9H19.75V4.5H15.25V9ZM9.25 13.5H4.75C4.35218 13.5 3.97064 13.658 3.68934 13.9393C3.40804 14.2206 3.25 14.6022 3.25 15V19.5C3.25 19.8978 3.40804 20.2794 3.68934 20.5607C3.97064 20.842 4.35218 21 4.75 21H9.25C9.64782 21 10.0294 20.842 10.3107 20.5607C10.592 20.2794 10.75 19.8978 10.75 19.5V15C10.75 14.6022 10.592 14.2206 10.3107 13.9393C10.0294 13.658 9.64782 13.5 9.25 13.5ZM9.25 19.5H4.75V15H9.25V19.5ZM15.25 13.5H19.75C20.1478 13.5 20.5294 13.658 20.8107 13.9393C21.092 14.2206 21.25 14.6022 21.25 15V19.5C21.25 19.8978 21.092 20.2794 20.8107 20.5607C20.5294 20.842 20.1478 21 19.75 21H15.25C14.8522 21 14.4706 20.842 14.1893 20.5607C13.908 20.2794 13.75 19.8978 13.75 19.5V15C13.75 14.6022 13.908 14.2206 14.1893 13.9393C14.4706 13.658 14.8522 13.5 15.25 13.5ZM15.25 19.5H19.75V15H15.25V19.5Z" fill="#8061E5"/>
</g>
</svg>
