<svg width="28" height="28" viewBox="0 0 28 28" fill="none" xmlns="http://www.w3.org/2000/svg">
<path d="M4.66667 3.5C4.02233 3.5 3.5 4.02233 3.5 4.66667V11.6667C3.5 12.311 4.02233 12.8333 4.66667 12.8333H11.6667C12.311 12.8333 12.8333 12.311 12.8333 11.6667V4.66667C12.8333 4.02233 12.311 3.5 11.6667 3.5H4.66667Z" fill="currentColor"/>
<path d="M16.3333 3.5C15.689 3.5 15.1667 4.02233 15.1667 4.66667V11.6667C15.1667 12.311 15.689 12.8333 16.3333 12.8333H23.3333C23.9777 12.8333 24.5 12.311 24.5 11.6667V4.66667C24.5 4.02233 23.9777 3.5 23.3333 3.5H16.3333Z" fill="currentColor"/>
<path d="M4.66667 15.1667C4.02233 15.1667 3.5 15.689 3.5 16.3333V23.3333C3.5 23.9777 4.02233 24.5 4.66667 24.5H11.6667C12.311 24.5 12.8333 23.9777 12.8333 23.3333V16.3333C12.8333 15.689 12.311 15.1667 11.6667 15.1667H4.66667Z" fill="currentColor"/>
<path d="M16.3333 15.1667C15.689 15.1667 15.1667 15.689 15.1667 16.3333V23.3333C15.1667 23.9777 15.689 24.5 16.3333 24.5H23.3333C23.9777 24.5 24.5 23.9777 24.5 23.3333V16.3333C24.5 15.689 23.9777 15.1667 23.3333 15.1667H16.3333Z" fill="currentColor"/>
</svg>
