<svg width="20" height="20" viewBox="0 0 20 20" fill="none" xmlns="http://www.w3.org/2000/svg">
<g id="launch">
<g id="Vector">
<mask id="path-1-outside-1_3173_19609" maskUnits="userSpaceOnUse" x="1.5" y="0.25" width="18" height="18" fill="black">
<rect fill="white" x="1.5" y="0.25" width="18" height="18"/>
<path fill-rule="evenodd" clip-rule="evenodd" d="M12.5 2.5V1.25H18.75V7.5H17.5V3.38375L12.1337 8.75L11.25 7.86625L16.6163 2.5H12.5ZM2.86661 17.1334C3.10093 17.3677 3.41862 17.4996 3.75 17.5H16.25C16.5814 17.4996 16.8991 17.3677 17.1334 17.1334C17.3677 16.8991 17.4996 16.5814 17.5 16.25V10H16.25V16.25H3.75V3.75H10V2.5H3.75C3.41862 2.50045 3.10093 2.63229 2.86661 2.86661C2.63229 3.10093 2.50045 3.41862 2.5 3.75V16.25C2.50045 16.5814 2.63229 16.8991 2.86661 17.1334Z"/>
</mask>
<path fill-rule="evenodd" clip-rule="evenodd" d="M12.5 2.5V1.25H18.75V7.5H17.5V3.38375L12.1337 8.75L11.25 7.86625L16.6163 2.5H12.5ZM2.86661 17.1334C3.10093 17.3677 3.41862 17.4996 3.75 17.5H16.25C16.5814 17.4996 16.8991 17.3677 17.1334 17.1334C17.3677 16.8991 17.4996 16.5814 17.5 16.25V10H16.25V16.25H3.75V3.75H10V2.5H3.75C3.41862 2.50045 3.10093 2.63229 2.86661 2.86661C2.63229 3.10093 2.50045 3.41862 2.5 3.75V16.25C2.50045 16.5814 2.63229 16.8991 2.86661 17.1334Z" fill="#473194"/>
<path d="M12.5 1.25V1H12.25V1.25H12.5ZM12.5 2.5H12.25V2.75H12.5V2.5ZM18.75 1.25H19V1H18.75V1.25ZM18.75 7.5V7.75H19V7.5H18.75ZM17.5 7.5H17.25V7.75H17.5V7.5ZM17.5 3.38375H17.75V2.7802L17.3232 3.20697L17.5 3.38375ZM12.1337 8.75L11.957 8.92678L12.1337 9.10355L12.3105 8.92678L12.1337 8.75ZM11.25 7.86625L11.0732 7.68947L10.8964 7.86625L11.0732 8.04303L11.25 7.86625ZM16.6163 2.5L16.793 2.67678L17.2198 2.25H16.6163V2.5ZM3.75 17.5L3.74966 17.75H3.75V17.5ZM16.25 17.5V17.75H16.2503L16.25 17.5ZM17.1334 17.1334L16.9566 16.9566H16.9566L17.1334 17.1334ZM17.5 16.25L17.75 16.2503V16.25H17.5ZM17.5 10H17.75V9.75H17.5V10ZM16.25 10V9.75H16V10H16.25ZM16.25 16.25V16.5H16.5V16.25H16.25ZM3.75 16.25H3.5V16.5H3.75V16.25ZM3.75 3.75V3.5H3.5V3.75H3.75ZM10 3.75V4H10.25V3.75H10ZM10 2.5H10.25V2.25H10V2.5ZM3.75 2.5V2.25L3.74966 2.25L3.75 2.5ZM2.86661 2.86661L2.68983 2.68983H2.68983L2.86661 2.86661ZM2.5 3.75L2.25 3.74966V3.75H2.5ZM2.5 16.25H2.25L2.25 16.2503L2.5 16.25ZM12.25 1.25V2.5H12.75V1.25H12.25ZM18.75 1H12.5V1.5H18.75V1ZM19 7.5V1.25H18.5V7.5H19ZM17.5 7.75H18.75V7.25H17.5V7.75ZM17.25 3.38375V7.5H17.75V3.38375H17.25ZM12.3105 8.92678L17.6768 3.56053L17.3232 3.20697L11.957 8.57322L12.3105 8.92678ZM11.0732 8.04303L11.957 8.92678L12.3105 8.57322L11.4268 7.68947L11.0732 8.04303ZM16.4395 2.32322L11.0732 7.68947L11.4268 8.04303L16.793 2.67678L16.4395 2.32322ZM12.5 2.75H16.6163V2.25H12.5V2.75ZM3.75034 17.25C3.48514 17.2496 3.23091 17.1441 3.04339 16.9566L2.68983 17.3102C2.97096 17.5913 3.35209 17.7495 3.74966 17.75L3.75034 17.25ZM16.25 17.25H3.75V17.75H16.25V17.25ZM16.9566 16.9566C16.7691 17.1441 16.5149 17.2496 16.2497 17.25L16.2503 17.75C16.6479 17.7495 17.029 17.5913 17.3102 17.3102L16.9566 16.9566ZM17.25 16.2497C17.2496 16.5149 17.1441 16.7691 16.9566 16.9566L17.3102 17.3102C17.5913 17.029 17.7495 16.6479 17.75 16.2503L17.25 16.2497ZM17.25 10V16.25H17.75V10H17.25ZM16.25 10.25H17.5V9.75H16.25V10.25ZM16.5 16.25V10H16V16.25H16.5ZM3.75 16.5H16.25V16H3.75V16.5ZM3.5 3.75V16.25H4V3.75H3.5ZM10 3.5H3.75V4H10V3.5ZM9.75 2.5V3.75H10.25V2.5H9.75ZM3.75 2.75H10V2.25H3.75V2.75ZM3.04339 3.04339C3.23091 2.85586 3.48514 2.75036 3.75034 2.75L3.74966 2.25C3.35209 2.25054 2.97096 2.40871 2.68983 2.68983L3.04339 3.04339ZM2.75 3.75034C2.75036 3.48514 2.85586 3.23091 3.04339 3.04339L2.68983 2.68983C2.40871 2.97096 2.25054 3.35209 2.25 3.74966L2.75 3.75034ZM2.75 16.25V3.75H2.25V16.25H2.75ZM3.04339 16.9566C2.85586 16.7691 2.75036 16.5149 2.75 16.2497L2.25 16.2503C2.25054 16.6479 2.40871 17.029 2.68983 17.3102L3.04339 16.9566Z" fill="#473194" mask="url(#path-1-outside-1_3173_19609)"/>
</g>
</g>
</svg>
