<svg width="40" height="40" viewBox="0 0 40 40" fill="none" xmlns="http://www.w3.org/2000/svg">
<rect width="40" height="40" rx="20" fill="#28205B"/>
<path d="M25 18.75H23.75V15C23.75 14.0054 23.3549 13.0516 22.6517 12.3483C21.9484 11.6451 20.9946 11.25 20 11.25C19.0054 11.25 18.0516 11.6451 17.3483 12.3483C16.6451 13.0516 16.25 14.0054 16.25 15V18.75H15C14.6685 18.75 14.3505 18.8817 14.1161 19.1161C13.8817 19.3505 13.75 19.6685 13.75 20V27.5C13.75 27.8315 13.8817 28.1495 14.1161 28.3839C14.3505 28.6183 14.6685 28.75 15 28.75H25C25.3315 28.75 25.6495 28.6183 25.8839 28.3839C26.1183 28.1495 26.25 27.8315 26.25 27.5V20C26.25 19.6685 26.1183 19.3505 25.8839 19.1161C25.6495 18.8817 25.3315 18.75 25 18.75ZM17.5 15C17.5 14.337 17.7634 13.7011 18.2322 13.2322C18.7011 12.7634 19.337 12.5 20 12.5C20.663 12.5 21.2989 12.7634 21.7678 13.2322C22.2366 13.7011 22.5 14.337 22.5 15V18.75H17.5V15ZM25 27.5H15V20H25V27.5Z" fill="white"/>
</svg>
