<svg viewBox="0 0 20 22" fill="currentColor" xmlns="http://www.w3.org/2000/svg">
<path fill-rule="evenodd" clip-rule="evenodd" d="M9.99998 1.875C7.69879 1.875 5.83331 3.74048 5.83331 6.04167V7.5H4.79165C3.98623 7.5 3.33331 8.15292 3.33331 8.95833V16.875C3.33331 17.6804 3.98623 18.3333 4.79165 18.3333H15.2083C16.0137 18.3333 16.6666 17.6804 16.6666 16.875V8.95833C16.6666 8.15292 16.0137 7.5 15.2083 7.5H14.1666V6.04167C14.1666 3.74048 12.3012 1.875 9.99998 1.875ZM12.9166 7.5V6.04167C12.9166 4.43084 11.6108 3.125 9.99998 3.125C8.38915 3.125 7.08331 4.43084 7.08331 6.04167V7.5H12.9166ZM9.99998 11.0417C10.3452 11.0417 10.625 11.3215 10.625 11.6667V14.1667C10.625 14.5118 10.3452 14.7917 9.99998 14.7917C9.6548 14.7917 9.37498 14.5118 9.37498 14.1667V11.6667C9.37498 11.3215 9.6548 11.0417 9.99998 11.0417Z" fill="currentColor"/>
</svg>
