<svg width="32" height="32" viewBox="0 0 32 32" fill="none" xmlns="http://www.w3.org/2000/svg">
<rect x="8" y="4" width="16" height="24" rx="2" fill="#521E8A"/>
<path d="M15.2929 19.2929C14.9024 19.6834 14.9024 20.3166 15.2929 20.7071C15.6834 21.0976 16.3166 21.0976 16.7071 20.7071L15.2929 19.2929ZM20 16L20.7071 16.7071L21.4142 16L20.7071 15.2929L20 16ZM16.7071 11.2929C16.3166 10.9024 15.6834 10.9024 15.2929 11.2929C14.9024 11.6834 14.9024 12.3166 15.2929 12.7071L16.7071 11.2929ZM16.7071 20.7071L20.7071 16.7071L19.2929 15.2929L15.2929 19.2929L16.7071 20.7071ZM20.7071 15.2929L16.7071 11.2929L15.2929 12.7071L19.2929 16.7071L20.7071 15.2929Z" fill="#FFCC00"/>
<rect x="11" y="15" width="8" height="2" rx="1" fill="#FFCC00"/>
</svg>
