<svg width="24" height="24" viewBox="0 0 24 24" fill="none" xmlns="http://www.w3.org/2000/svg">
<g clip-path="url(#clip0_3241_2370)">
<path d="M5.844 2.192L0.756 5.036C0.288 5.288 0 5.768 0 6.296V12.032C0 12.548 0.264 13.016 0.756 13.28L5.844 16.124C6.288 16.388 6.864 16.388 7.344 16.124L10.8 14.18L13.14 12.848L16.596 10.904C17.04 10.64 17.616 10.64 18.096 10.904L20.796 12.416C21.24 12.68 21.552 13.148 21.552 13.664V16.724C21.552 17.24 21.288 17.72 20.796 17.972L18.096 19.52C17.652 19.784 17.076 19.784 16.596 19.52L13.896 18.008C13.452 17.744 13.14 17.276 13.14 16.76V14.78L10.8 16.112V18.092C10.8 18.608 11.064 19.088 11.556 19.34L16.644 22.184C17.088 22.448 17.664 22.448 18.144 22.184L23.232 19.34C23.676 19.076 23.988 18.608 23.988 18.092V12.356C23.988 11.828 23.7 11.348 23.232 11.108L18.096 8.216C17.652 7.952 17.076 7.952 16.596 8.216L13.14 10.196L10.8 11.492L7.344 13.472C6.9 13.736 6.324 13.736 5.844 13.472L3.096 11.924C2.652 11.66 2.34 11.192 2.34 10.676V7.616C2.34 7.1 2.604 6.62 3.096 6.368L5.796 4.856C6.24 4.592 6.816 4.592 7.308 4.856L10.008 6.368C10.452 6.632 10.764 7.1 10.764 7.616V9.596L13.104 8.264V6.284C13.104 5.756 12.816 5.276 12.348 5.036L7.356 2.192C6.912 1.928 6.336 1.928 5.856 2.192H5.844Z" fill="white"/>
</g>
<defs>
<clipPath id="clip0_3241_2370">
<rect width="24" height="20.4" fill="white" transform="translate(0 2)"/>
</clipPath>
</defs>
</svg>
