<svg width="32" height="32" viewBox="0 0 32 32" fill="none" xmlns="http://www.w3.org/2000/svg">
<circle cx="16" cy="16" r="5" fill="white"/>
<path opacity="0.5" fill-rule="evenodd" clip-rule="evenodd" d="M14 6C14 6.80891 13.6798 7.54305 13.1593 8.08261L16.7155 15.195L22.0069 9.24225C21.3891 8.69275 21 7.89182 21 7C21 5.34315 22.3431 4 24 4C25.6569 4 27 5.34315 27 7C27 8.65685 25.6569 10 24 10C23.5994 10 23.2171 9.92148 22.8677 9.77898L17.0499 16.3241L17.0833 16.5417L24.5465 20.2732C25.0895 19.5031 25.986 19 27 19C28.6569 19 30 20.3431 30 22C30 23.6569 28.6569 25 27 25C25.3431 25 24 23.6569 24 22C24 21.714 24.04 21.4374 24.1147 21.1754L17.2697 17.7529L18.2321 24.0088C19.7805 24.1273 21 25.4213 21 27C21 28.6569 19.6569 30 18 30C16.3431 30 15 28.6569 15 27C15 25.6078 15.9483 24.4371 17.2342 24.0986L16.1736 17.2048L15.5528 16.8944L16 16L12.3419 8.68387C11.9381 8.88616 11.4824 9 11 9C9.34315 9 8 7.65685 8 6C8 4.34315 9.34315 3 11 3C12.6569 3 14 4.34315 14 6ZM8.82446 19.9864L16 16L15.5144 15.1258L8.33394 19.115C7.78396 18.4349 6.94277 18 6 18C4.34315 18 3 19.3431 3 21C3 22.6569 4.34315 24 6 24C7.65685 24 9 22.6569 9 21C9 20.6443 8.93809 20.303 8.82446 19.9864Z" fill="white"/>
</svg>
