<svg width="27" height="20" viewBox="0 0 27 20" fill="none" xmlns="http://www.w3.org/2000/svg">
<path fill-rule="evenodd" clip-rule="evenodd" d="M13.3561 14.9687C13.0152 14.9638 12.6769 15.0278 12.3613 15.1567C12.0457 15.2856 11.7593 15.4768 11.5193 15.7189C10.9998 16.2247 10.7398 16.8131 10.7398 17.4944C10.7398 18.1758 10.9998 18.7677 11.5193 19.2649C11.7618 19.5025 12.0487 19.6899 12.3638 19.8164C12.6788 19.9429 13.0157 20.0059 13.3551 20.002C14.0471 20.002 14.6551 19.7551 15.1762 19.2649C15.6972 18.7748 15.9567 18.1824 15.9567 17.4944C15.9567 16.8065 15.6967 16.2227 15.1762 15.7189C14.6556 15.2151 14.0486 14.9687 13.3561 14.9687ZM11.3959 6.14861C11.5861 6.92594 11.8026 7.88791 12.0454 9.03452C12.294 10.1811 12.5541 11.6171 12.826 13.3424H13.87C14.1457 11.6376 14.4002 10.2015 14.6496 9.04261C14.8878 7.87914 15.1104 6.91094 15.3001 6.13647C15.4989 5.31395 15.6679 4.59918 15.7979 3.98658C15.9279 3.37399 16.0002 2.88736 16.0002 2.51353C16.0002 1.82287 15.7345 1.23018 15.203 0.735451C14.7037 0.25383 14.0341 -0.0105991 13.3404 -6.30137e-05C12.615 -6.30137e-05 11.9964 0.243253 11.4768 0.736969C10.9573 1.23068 10.7039 1.82506 10.7039 2.51556C10.7039 2.86207 10.7747 3.37551 10.9204 4.05639C11.0661 4.73727 11.2239 5.43687 11.3959 6.14861ZM11.4854 11.2856C11.4662 11.194 11.4475 11.1065 11.4283 11.017C9.95858 11.3472 8.61311 12.0886 7.54888 13.1547L9.2268 14.8023C9.96011 14.0675 10.8841 13.5522 11.8947 13.3146C11.7557 12.5801 11.6193 11.9037 11.4854 11.2856ZM9.56926 1.97277C9.56443 1.43521 9.68827 0.904295 9.93044 0.42435C6.18029 1.08562 2.72412 2.8839 0.0303512 5.57548C0.0304223 5.57946 0.029682 5.58341 0.0281753 5.5871C0.0266686 5.59079 0.0244274 5.59413 0.0215878 5.59692C0.0187481 5.59971 0.0153694 5.6019 0.011658 5.60334C0.00794664 5.60479 0.00398017 5.60546 0 5.60532L1.67792 7.28426C1.67792 7.25441 1.67792 7.25441 1.70777 7.25441C3.87993 5.06727 6.6346 3.55008 9.64413 2.88331C9.59879 2.58182 9.57378 2.27762 9.56926 1.97277ZM10.5582 7.16386C10.451 6.72276 10.3498 6.28772 10.2512 5.85522C7.80884 6.40464 5.57306 7.6371 3.80454 9.40885L5.48195 11.0564C6.94184 9.60592 8.78389 8.60016 10.7934 8.15635C10.712 7.80579 10.6331 7.47244 10.5572 7.16285L10.5582 7.16386ZM26.3621 5.57548C23.7484 2.96471 20.4154 1.19273 16.7893 0.486064C17.0191 0.947819 17.1372 1.45704 17.1343 1.97277C17.1299 2.30088 17.1027 2.62828 17.0529 2.95262C19.944 3.65739 22.5851 5.14508 24.6862 7.25239L24.7459 7.31157L26.4218 5.63517C26.4063 5.6341 26.3918 5.62747 26.3808 5.6165C26.3698 5.60553 26.3632 5.59096 26.3621 5.57548ZM16.4261 5.92148C16.3347 6.31032 16.2368 6.71939 16.1322 7.14869C16.0508 7.48255 15.9638 7.84475 15.8742 8.2297C17.7798 8.70905 19.5195 9.6969 20.9075 11.0878C20.9373 11.0878 20.9373 11.0878 20.9373 11.1176L22.6153 9.44021L22.5849 9.40986C20.888 7.70745 18.7585 6.5006 16.4261 5.91946V5.92148ZM18.8406 13.1552C17.8475 12.1602 16.6081 11.4466 15.249 11.0873C15.2343 11.1586 15.2197 11.2279 15.2045 11.3002C15.0674 11.9371 14.9293 12.6347 14.7887 13.3884C15.6958 13.6521 16.5228 14.1381 17.1945 14.8023C17.1945 14.8326 17.1945 14.8326 17.2244 14.8326L18.8719 13.1851C18.8719 13.1552 18.8719 13.1552 18.8421 13.1552H18.8406Z" fill="#C4C4C4"/>
</svg>
