<svg width="28" height="29" viewBox="0 0 28 29" fill="none" stroke="currentColor" xmlns="http://www.w3.org/2000/svg">
<g filter="url(#filter0_dd_6421_2882)">
<path d="M16.3334 16.3334V18.6667H18.6667M21 16.3334H23.3334M23.3334 21H21V23.3334M16.3334 23.3217V23.3334M17.5 11.6667H22.1667C22.811 11.6667 23.3334 11.1444 23.3334 10.5V5.83335C23.3334 5.18902 22.811 4.66669 22.1667 4.66669H17.5C16.8557 4.66669 16.3334 5.18902 16.3334 5.83335V10.5C16.3334 11.1444 16.8557 11.6667 17.5 11.6667ZM5.83335 23.3334H10.5C11.1444 23.3334 11.6667 22.811 11.6667 22.1667V17.5C11.6667 16.8557 11.1444 16.3334 10.5 16.3334H5.83335C5.18902 16.3334 4.66669 16.8557 4.66669 17.5V22.1667C4.66669 22.811 5.18902 23.3334 5.83335 23.3334ZM5.83335 11.6667H10.5C11.1444 11.6667 11.6667 11.1444 11.6667 10.5V5.83335C11.6667 5.18902 11.1444 4.66669 10.5 4.66669H5.83335C5.18902 4.66669 4.66669 5.18902 4.66669 5.83335V10.5C4.66669 11.1444 5.18902 11.6667 5.83335 11.6667Z" stroke="currentColor" stroke-width="2" stroke-linecap="round" stroke-linejoin="round"/>
</g>
<defs>
<filter id="filter0_dd_6421_2882" x="-3" y="-2" width="34" height="34" filterUnits="userSpaceOnUse" color-interpolation-filters="sRGB">
<feFlood flood-opacity="0" result="BackgroundImageFix"/>
<feColorMatrix in="SourceAlpha" type="matrix" values="0 0 0 0 0 0 0 0 0 0 0 0 0 0 0 0 0 0 127 0" result="hardAlpha"/>
<feOffset dy="1"/>
<feGaussianBlur stdDeviation="1"/>
<feColorMatrix type="matrix" values="0 0 0 0 0 0 0 0 0 0 0 0 0 0 0 0 0 0 0.06 0"/>
<feBlend mode="normal" in2="BackgroundImageFix" result="effect1_dropShadow_6421_2882"/>
<feColorMatrix in="SourceAlpha" type="matrix" values="0 0 0 0 0 0 0 0 0 0 0 0 0 0 0 0 0 0 127 0" result="hardAlpha"/>
<feOffset dy="1"/>
<feGaussianBlur stdDeviation="1.5"/>
<feColorMatrix type="matrix" values="0 0 0 0 0 0 0 0 0 0 0 0 0 0 0 0 0 0 0.1 0"/>
<feBlend mode="normal" in2="effect1_dropShadow_6421_2882" result="effect2_dropShadow_6421_2882"/>
<feBlend mode="normal" in="SourceGraphic" in2="effect2_dropShadow_6421_2882" result="shape"/>
</filter>
</defs>
</svg>
