<svg width="20" height="20" viewBox="0 0 20 20" fill="none" xmlns="http://www.w3.org/2000/svg">
<g id="qr-code">
<path id="Vector" fill-rule="evenodd" clip-rule="evenodd" d="M11.25 8.75H18.75V1.25H11.25V8.75ZM17.5 7.5H12.5V2.5H17.5V7.5ZM16.25 3.75H13.75V6.25H16.25V3.75ZM1.25 18.75H8.75V11.25H1.25V18.75ZM7.5 17.5H2.5V12.5H7.5V17.5ZM16.25 11.25V12.5H17.5V13.75H18.75V11.25H16.25ZM11.25 15V13.75H12.5V15H11.25ZM13.75 12.5V15H12.5V16.25H11.25V18.75H13.75V17.5H12.5V16.25H15V17.5H16.25V18.75H18.75V16.25H17.5V17.5H16.25V16.25H17.4999V13.75H16.2499V16.25H15V12.5H13.75ZM13.75 12.5V11.25H11.25V12.5H13.75ZM6.25 13.75H3.75V16.25H6.25V13.75ZM6.25 3.75H3.75V6.25H6.25V3.75ZM1.25 8.75H8.75V1.25H1.25V8.75ZM7.5 7.5H2.5V2.5H7.5V7.5Z" fill="#662CC9"/>
</g>
</svg>
