<svg width="17" height="16" viewBox="0 0 17 16" fill="none" xmlns="http://www.w3.org/2000/svg">
<path d="M7.28296 12.8767C8.66919 12.8767 9.94751 12.4285 10.9934 11.6814L14.928 15.616C15.1106 15.7986 15.3513 15.8899 15.6086 15.8899C16.1482 15.8899 16.53 15.4749 16.53 14.9436C16.53 14.6946 16.447 14.4539 16.2644 14.2795L12.3547 10.3616C13.1765 9.28247 13.6663 7.94604 13.6663 6.49341C13.6663 2.98218 10.7942 0.110107 7.28296 0.110107C3.78003 0.110107 0.899658 2.97388 0.899658 6.49341C0.899658 10.0046 3.77173 12.8767 7.28296 12.8767ZM7.28296 11.4988C4.5437 11.4988 2.27759 9.23267 2.27759 6.49341C2.27759 3.75415 4.5437 1.48804 7.28296 1.48804C10.0222 1.48804 12.2883 3.75415 12.2883 6.49341C12.2883 9.23267 10.0222 11.4988 7.28296 11.4988Z" fill="#5A5D6B"/>
</svg>
