<svg width="24" height="24" viewBox="0 0 24 24" fill="none" xmlns="http://www.w3.org/2000/svg">
<path d="M3.415 1.93168C3.415 1.81313 3.51104 1.71698 3.6296 1.71698H20.3704C20.4885 1.71698 20.5842 1.81236 20.5851 1.93015V12.8976C20.5829 14.2916 20.203 15.6591 19.4857 16.8546C19.1471 17.419 18.7392 17.9351 18.2736 18.3919L17.7799 18.8363C17.3827 19.1638 16.9522 19.4522 16.4938 19.6961L12.101 22.0382C12.0379 22.0719 11.9622 22.0719 11.899 22.0382L7.50629 19.6961C6.26942 19.0382 5.23512 18.0559 4.51431 16.8546C3.79524 15.6562 3.41533 14.2851 3.41489 12.8877V12.8838L3.415 12.8775V1.93168Z" fill="#2B1D52"/>
<path d="M12 22.0891V22.0835C11.949 22.0534 11.7153 21.9434 11.4537 21.8528C8.72208 20.2139 3.70019 18.805 3.4149 13.3068C3.07498 6.75449 3.4149 1.71698 3.4149 1.71698H12V22.0835C12.0133 22.0913 12.0142 22.0938 12 22.0891Z" fill="#60567D" fill-opacity="0.66"/>
<path d="M12.1346 23.9663C12.0505 24.0112 11.9495 24.0112 11.8654 23.9663L6.69806 21.2111C5.1865 20.407 3.92231 19.2064 3.04142 17.7383C2.16054 16.2701 1.69616 14.5897 1.69791 12.8775V1.71698C1.69846 1.26178 1.87951 0.825381 2.2014 0.50338C2.52329 0.181488 2.9597 0.000437056 3.415 0H20.5851C21.0403 0.000437056 21.4767 0.181488 21.7986 0.50338C22.1206 0.825381 22.3017 1.26178 22.3021 1.71698V12.8775C22.304 14.5897 21.8395 16.2701 20.9586 17.7383C20.0777 19.2064 18.8136 20.407 17.3019 21.2111L12.1346 23.9663ZM3.70116 1.71698C3.54306 1.71698 3.415 1.84514 3.415 2.00314V12.8775C3.41347 14.2785 3.79349 15.6534 4.51431 16.8546C5.23512 18.0559 6.26942 19.0382 7.50629 19.6961L11.8654 22.0203C11.9495 22.0652 12.0505 22.0652 12.1346 22.0203L16.4938 19.6961C17.7306 19.0382 18.7649 18.0559 19.4857 16.8546C20.2065 15.6534 20.5865 14.2785 20.5851 12.8775V2.00314C20.5851 1.84514 20.4569 1.71698 20.299 1.71698H3.70116Z" fill="#958EA8"/>
<path d="M10.4853 12.3232C10.3736 12.435 10.1923 12.435 10.0807 12.3232L8.26173 10.5044C8.15007 10.3927 7.9688 10.3927 7.85713 10.5044L7.0513 11.3101C6.93953 11.4219 6.93953 11.6031 7.0513 11.7149L10.0807 14.7442C10.1923 14.856 10.3736 14.856 10.4853 14.7442L16.9487 8.28091C17.0605 8.16913 17.0605 7.98797 16.9487 7.8762L16.1429 7.07037C16.0311 6.95859 15.8499 6.95859 15.7382 7.07037L10.4853 12.3232Z" fill="white"/>
</svg>
