<svg width="28" height="28" viewBox="0 0 28 28" fill="none" xmlns="http://www.w3.org/2000/svg">
<path d="M10.0855 6.47357L8.05053 6.00397C7.66917 5.91596 7.26938 6.03062 6.99263 6.30737L6.30737 6.99263C6.03062 7.26938 5.91596 7.66917 6.00397 8.05053L6.47357 10.0855C6.57974 10.5456 6.39003 11.0233 5.99717 11.2852L4.00548 12.613C3.68968 12.8235 3.5 13.178 3.5 13.5575V14.4425C3.5 14.822 3.68968 15.1765 4.00548 15.387L5.99717 16.7148C6.39003 16.9767 6.57974 17.4544 6.47357 17.9145L6.00397 19.9495C5.91596 20.3308 6.03062 20.7306 6.30737 21.0074L6.99263 21.6926C7.26938 21.9694 7.66917 22.084 8.05053 21.996L10.0855 21.5264C10.5456 21.4203 11.0233 21.61 11.2852 22.0028L12.613 23.9945C12.8235 24.3103 13.178 24.5 13.5575 24.5H14.4425C14.822 24.5 15.1765 24.3103 15.387 23.9945L16.7148 22.0028C16.9767 21.61 17.4544 21.4203 17.9145 21.5264L19.9495 21.996C20.3308 22.084 20.7306 21.9694 21.0074 21.6926L21.6926 21.0074C21.9694 20.7306 22.084 20.3308 21.996 19.9495L21.5264 17.9145C21.4203 17.4544 21.61 16.9767 22.0028 16.7148L23.9945 15.387C24.3103 15.1765 24.5 14.822 24.5 14.4425V13.5575C24.5 13.178 24.3103 12.8235 23.9945 12.613L22.0028 11.2852C21.61 11.0233 21.4203 10.5456 21.5264 10.0855L21.996 8.05053C22.084 7.66917 21.9694 7.26938 21.6926 6.99263L21.0074 6.30737C20.7306 6.03062 20.3308 5.91596 19.9495 6.00397L17.9145 6.47357C17.4544 6.57974 16.9767 6.39003 16.7148 5.99717L15.387 4.00548C15.1765 3.68968 14.822 3.5 14.4425 3.5H13.5575C13.178 3.5 12.8235 3.68968 12.613 4.00548L11.2852 5.99717C11.0233 6.39003 10.5456 6.57974 10.0855 6.47357Z" stroke="#77708F" stroke-width="2" stroke-linejoin="round"/>
<path d="M17.5 14C17.5 15.933 15.933 17.5 14 17.5C12.067 17.5 10.5 15.933 10.5 14C10.5 12.067 12.067 10.5 14 10.5C15.933 10.5 17.5 12.067 17.5 14Z" stroke="currentColor" stroke-width="2" stroke-linejoin="round"/>
</svg>
