<svg width="28" height="28" viewBox="0 0 28 28" fill="none" xmlns="http://www.w3.org/2000/svg">
<path fill-rule="evenodd" clip-rule="evenodd" d="M11.6622 3.34703C12.0844 2.71373 12.7952 2.33334 13.5563 2.33334H14.4437C15.2048 2.33334 15.9156 2.71373 16.3378 3.34703L17.6692 5.34412L19.7096 4.87324C20.4744 4.69675 21.2762 4.92669 21.8312 5.48169L22.5183 6.1688C23.0733 6.7238 23.3032 7.52556 23.1267 8.29035L22.6559 10.3308L24.653 11.6622C25.2863 12.0844 25.6666 12.7952 25.6666 13.5563V14.4437C25.6666 15.2048 25.2863 15.9156 24.653 16.3378L22.6559 17.6692L23.1267 19.7097C23.3032 20.4744 23.0733 21.2762 22.5183 21.8312L21.8312 22.5183C21.2762 23.0733 20.4744 23.3033 19.7096 23.1268L17.6692 22.6559L16.3378 24.653C15.9156 25.2863 15.2048 25.6667 14.4437 25.6667H13.5563C12.7952 25.6667 12.0844 25.2863 11.6622 24.653L10.3308 22.6559L8.29033 23.1268C7.52554 23.3033 6.72378 23.0733 6.16878 22.5183L5.48167 21.8312C4.92667 21.2762 4.69673 20.4744 4.87322 19.7097L5.34409 17.6692L3.347 16.3378C2.71371 15.9156 2.33331 15.2048 2.33331 14.4437V13.5563C2.33331 12.7952 2.71371 12.0844 3.347 11.6622L5.34409 10.3308L4.87322 8.29035C4.69673 7.52556 4.92667 6.7238 5.48167 6.1688L6.16878 5.48169C6.72378 4.92669 7.52554 4.69675 8.29033 4.87324L10.3308 5.34412L11.6622 3.34703ZM9.91665 14C9.91665 11.7448 11.7448 9.91667 14 9.91667C16.2551 9.91667 18.0833 11.7448 18.0833 14C18.0833 16.2552 16.2551 18.0833 14 18.0833C11.7448 18.0833 9.91665 16.2552 9.91665 14Z" fill="currentColor"/>
</svg>
