<svg width="24" height="24" viewBox="0 0 24 24" fill="#8061E5" xmlns="http://www.w3.org/2000/svg">
<path fill-rule="evenodd" clip-rule="evenodd" d="M20.5834 11.9999V12.5699L22.0009 13.8674C22.2625 14.0968 22.4363 14.4101 22.4924 14.7535C22.5485 15.0969 22.4834 15.4492 22.3084 15.7499L20.5984 18.7499C20.4669 18.9777 20.2777 19.167 20.05 19.2986C19.8223 19.4302 19.5639 19.4997 19.3009 19.4999C19.1379 19.5012 18.9757 19.4759 18.8209 19.4249L17.0059 18.8099C16.6887 19.0191 16.3579 19.207 16.0159 19.3724L15.6334 21.2624C15.5648 21.6077 15.3769 21.9179 15.1027 22.1387C14.8285 22.3594 14.4854 22.4767 14.1334 22.4699H10.5934C10.2414 22.4767 9.89827 22.3594 9.62404 22.1387C9.34981 21.9179 9.16196 21.6077 9.09338 21.2624L8.71088 19.3724C8.37126 19.2069 8.04304 19.019 7.72838 18.8099L5.90588 19.4249C5.75102 19.4759 5.58889 19.5012 5.42588 19.4999C5.16284 19.4997 4.90449 19.4302 4.67675 19.2986C4.44902 19.167 4.2599 18.9777 4.12838 18.7499L2.35838 15.7499C2.1753 15.4462 2.10574 15.0875 2.16203 14.7374C2.21832 14.3873 2.39683 14.0684 2.66588 13.8374L4.08338 12.5774V11.9999V11.4299L2.66588 10.1324C2.40422 9.90303 2.23047 9.58979 2.17437 9.24636C2.11827 8.90293 2.18332 8.55068 2.35838 8.24994L4.12838 5.24994C4.2599 5.02214 4.44902 4.83292 4.67675 4.70129C4.90449 4.56965 5.16284 4.50021 5.42588 4.49994C5.58726 4.48896 5.74935 4.50416 5.90588 4.54494L7.69088 5.18994C8.00811 4.9808 8.33883 4.79289 8.68088 4.62744L9.06338 2.73744C9.13196 2.39214 9.31981 2.08197 9.59404 1.86122C9.86827 1.64046 10.2114 1.52319 10.5634 1.52994H14.0734C14.4254 1.52319 14.7685 1.64046 15.0427 1.86122C15.3169 2.08197 15.5048 2.39214 15.5734 2.73744L15.9559 4.62744C16.2955 4.79293 16.6237 4.98084 16.9384 5.18994L18.7609 4.57494C18.9157 4.52402 19.0779 4.49869 19.2409 4.49994C19.5039 4.50021 19.7623 4.56965 19.99 4.70129C20.2177 4.83292 20.4069 5.02214 20.5384 5.24994L22.3084 8.24994C22.4941 8.55113 22.5673 8.90827 22.5152 9.25824C22.463 9.60821 22.2888 9.92848 22.0234 10.1624L20.5834 11.4224V11.9999ZM16.6684 17.1299L19.2409 17.9999L21.0109 14.9999L18.9709 13.1474C19.1096 12.3711 19.1096 11.5763 18.9709 10.7999L21.0109 8.99994L19.2409 5.99994L16.6609 6.83994C16.0566 6.3368 15.3721 5.93876 14.6359 5.66244L14.1034 2.99994H10.5634L10.0309 5.69244C9.28883 5.96113 8.60058 6.35986 7.99838 6.86994L5.42588 5.99994L3.65588 8.99994L5.69588 10.8524C5.5572 11.6288 5.5572 12.4236 5.69588 13.1999L3.65588 14.9999L5.42588 17.9999L8.00588 17.1599C8.61017 17.6631 9.2947 18.0611 10.0309 18.3374L10.5634 20.9999H14.1034L14.6359 18.3074C15.3779 18.0387 16.0662 17.64 16.6684 17.1299ZM9.83331 15.7416C10.5733 16.2361 11.4434 16.5 12.3334 16.5C12.926 16.506 13.5139 16.3937 14.0625 16.1697C14.6112 15.9457 15.1097 15.6145 15.5288 15.1954C15.9478 14.7763 16.2791 14.2779 16.5031 13.7292C16.7271 13.1805 16.8394 12.5926 16.8334 12C16.8334 11.11 16.5695 10.24 16.075 9.49994C15.5805 8.75991 14.8777 8.18314 14.0555 7.84254C13.2332 7.50195 12.3284 7.41283 11.4555 7.58647C10.5826 7.7601 9.78073 8.18868 9.1514 8.81802C8.52206 9.44736 8.09348 10.2492 7.91984 11.1221C7.74621 11.995 7.83532 12.8998 8.17592 13.7221C8.51651 14.5443 9.09329 15.2471 9.83331 15.7416ZM11.1745 9.20954C11.5426 9.06205 11.9369 8.99077 12.3334 9C12.7299 8.99077 13.1241 9.06205 13.4923 9.20954C13.8604 9.35704 14.1948 9.57768 14.4753 9.85812C14.7557 10.1386 14.9763 10.473 15.1238 10.8411C15.2713 11.2093 15.3426 11.6035 15.3334 12C15.3426 12.3965 15.2713 12.7907 15.1238 13.1589C14.9763 13.527 14.7557 13.8615 14.4753 14.1419C14.1948 14.4223 13.8604 14.643 13.4923 14.7905C13.1241 14.938 12.7299 15.0092 12.3334 15C11.9369 15.0092 11.5426 14.938 11.1745 14.7905C10.8063 14.643 10.4719 14.4223 10.1915 14.1419C9.91105 13.8615 9.69041 13.527 9.54292 13.1589C9.39542 12.7907 9.32414 12.3965 9.33338 12C9.32414 11.6035 9.39542 11.2093 9.54292 10.8411C9.69041 10.473 9.91105 10.1386 10.1915 9.85812C10.4719 9.57768 10.8063 9.35704 11.1745 9.20954Z" fill="#8061E5"/>
</svg>