<svg width="40" height="40" viewBox="0 0 40 40" fill="none" xmlns="http://www.w3.org/2000/svg">
<path fill-rule="evenodd" clip-rule="evenodd" d="M17.8896 7.28937L22.5898 3.59633L12.0382 5.94645L17.8896 7.28937ZM21.5346 8.10472L23.3092 4.5076L19.3284 7.62511C19.3284 7.57714 21.5346 8.10472 21.5346 8.10472ZM24.3644 8.72822V4.98722L22.6857 8.34453L24.3644 8.72822ZM27.7217 9.49561L25.5155 4.98722V8.96803L27.7217 9.49561ZM14.9639 9.54357L16.7385 8.15268L11.7984 7.04956L14.9639 9.54357ZM35.0119 11.1263L26.5706 4.45964L29.1605 9.78338L35.0119 11.1263ZM12.7097 11.3182L14.0526 10.263L11.079 7.91287L12.7097 11.3182ZM19.1845 12.8529L21.0071 9.11192L18.1294 8.48841L15.8272 10.263C15.8752 10.311 19.1845 12.8529 19.1845 12.8529ZM30.7912 13.0927L34.772 12.1815L29.784 11.0783C29.832 11.1263 30.7912 13.0927 30.7912 13.0927ZM10.0239 13.4285L11.7984 12.0376L10.0239 8.44045V13.4285ZM25.5155 14.2918L29.6402 13.3805L28.3932 10.7906L25.5634 10.1671C25.5155 10.1671 25.5155 14.2918 25.5155 14.2918ZM22.0143 15.0592L24.3644 14.5316V9.8793L22.2061 9.39968L20.1438 13.6203L22.0143 15.0592ZM32.0382 15.6827L35.0119 13.3325L31.2708 14.1479L32.0382 15.6827ZM19.0886 15.7306L20.5754 15.3949L19.6162 14.6275L19.0886 15.7306ZM15.2996 16.5939L17.6498 16.0664L18.7049 13.956L14.9639 11.0304L13.2373 12.3733L15.2996 16.5939ZM24.3644 16.9297V15.7306L23.1653 16.0184L24.3644 16.9297ZM10.0239 17.745L14.1486 16.8337L12.2781 13.0927L9.9759 14.8673C10.0239 14.9153 10.0239 17.745 10.0239 17.745ZM4.12458 18.0328L8.82482 14.3397V8.44045L4.12458 18.0328ZM16.3068 18.7042L16.9783 17.3613L15.7793 17.6491L16.3068 18.7042ZM33.525 18.7042L35.7313 14.1958L32.5178 16.6899L33.525 18.7042ZM4.84401 18.8961L8.82482 17.9848V15.7786L4.84401 18.8961ZM27.386 19.2798L31.127 16.3541L30.1677 14.3877L25.5155 15.4429V17.793C25.5155 17.8409 27.386 19.2798 27.386 19.2798ZM25.5155 20.7666L26.4747 19.9992L25.5155 19.2318V20.7666ZM8.82482 20.8625V19.1839L5.08381 19.9992L8.82482 20.8625ZM14.6282 22.1575L15.6833 20.0472L14.6282 17.9369L9.9759 18.992V21.1982L14.6282 22.1575ZM31.6545 22.5891L32.9015 19.9992L31.6545 17.4093L28.3452 19.9992L31.6545 22.5891ZM16.9783 22.6851L16.3068 21.3421L15.7793 22.3973L16.9783 22.6851ZM21.7265 23.7402L24.3644 21.6779V18.3685L21.7265 16.3062L18.4171 17.0256L16.9303 19.9992L18.3692 22.9728L21.7265 23.7402ZM8.82482 24.2678V22.0616L4.84401 21.1503L8.82482 24.2678ZM24.3644 24.3158V23.1167L23.1653 24.028L24.3644 24.3158ZM36.7864 25.323V14.6755L34.1965 19.9992L36.7864 25.323ZM19.6162 25.4189L20.5754 24.6515L19.0886 24.3158L19.6162 25.4189ZM30.1677 25.6107L31.127 23.6443L27.386 20.7186L25.5155 22.2054V24.5556C25.5155 24.6035 30.1677 25.6107 30.1677 25.6107ZM35.7313 25.8505L33.525 21.3421L32.5178 23.3565L35.7313 25.8505ZM35.0119 26.7138L32.0382 24.3637L31.3188 25.8505L35.0119 26.7138ZM12.2781 26.9536L14.1006 23.2126L9.9759 22.3014V25.1791C10.0239 25.1311 12.2781 26.9536 12.2781 26.9536ZM29.832 28.968L34.82 27.8649L30.8392 26.9536C30.7912 26.9536 29.832 28.968 29.832 28.968ZM14.9639 29.016L18.7049 26.0903L17.6498 23.98L15.2996 23.4524L13.2373 27.6731L14.9639 29.016ZM25.5155 29.9273L28.3452 29.3038L29.5922 26.7138L25.4675 25.8026L25.5155 29.9273ZM22.2061 30.6467L24.3644 30.1671V25.5148L22.0143 24.9872L20.1438 26.474L22.2061 30.6467ZM18.1773 31.558L21.0071 30.9345L19.1845 27.1935L15.8752 29.7834L18.1773 31.558ZM8.82482 31.6059V25.7066L4.12458 22.0136L8.82482 31.6059ZM9.9759 31.6059L11.7505 28.0088L9.9759 26.6179V31.6059ZM11.0311 32.0855L14.0047 29.7354L12.6617 28.6803C12.7097 28.7282 11.0311 32.0855 11.0311 32.0855ZM11.7505 32.9968L16.6905 31.8937L14.9159 30.5028L11.7505 32.9968ZM24.3644 35.0592V31.3182L22.6857 31.7019L24.3644 35.0592ZM25.5155 35.0592L27.7217 30.5508L25.5155 31.0304V35.0592ZM23.3092 35.5867L21.5346 31.9896L19.3284 32.4692L23.3092 35.5867ZM26.5706 35.5867L35.0598 28.968L29.2085 30.263L26.5706 35.5867ZM22.5898 36.4501L17.8896 32.757L12.0382 34.052L22.5898 36.4501ZM24.9399 40.0472C24.1725 40.0472 23.4531 39.7114 22.9735 39.1359C22.6378 38.7043 22.4459 38.1767 22.4459 37.6011L11.7025 35.203C11.5586 35.5388 11.3188 35.8266 11.0311 36.0184C10.5994 36.3541 10.0239 36.546 9.44832 36.546C8.68093 36.546 7.96151 36.2102 7.48189 35.6347C7.05024 35.1071 6.85839 34.4836 6.95432 33.8122C7.05024 33.1887 7.33801 32.5652 7.86559 32.1815L3.06943 22.4453C2.87758 22.4932 2.7337 22.4932 2.54185 22.4932C1.77446 22.4932 1.05504 22.1575 0.575422 21.5819C-0.287886 20.5268 -0.0960387 18.9441 0.959117 18.1287C1.39077 17.793 1.96631 17.6011 2.54185 17.6011C2.7337 17.6011 2.92554 17.6011 3.06943 17.6491L7.86559 7.91287C7.7217 7.81695 7.57782 7.67307 7.48189 7.52918C7.05024 7.0016 6.85839 6.3781 6.95432 5.70664C7.05024 5.03518 7.33801 4.45964 7.86559 4.07594C8.29724 3.74021 8.87278 3.54837 9.44832 3.54837C10.2157 3.54837 10.9351 3.8841 11.4147 4.45964C11.5107 4.60352 11.6066 4.74741 11.7025 4.89129L22.4459 2.49321C22.4459 1.72582 22.7816 1.05436 23.4051 0.574742C23.8368 0.239011 24.4123 0.0471649 24.9879 0.0471649C25.7553 0.0471649 26.4747 0.382897 26.9543 0.958437C27.5298 1.67786 27.6737 2.68506 27.2421 3.54837L35.8752 10.311C36.3068 9.97523 36.8344 9.78338 37.4099 9.78338C38.1773 9.78338 38.8967 10.1191 39.3764 10.6947C40.2397 11.7498 40.0478 13.3325 38.9927 14.1479C38.7049 14.3877 38.3692 14.5316 37.9855 14.6275V25.4189C38.513 25.5628 39.0406 25.8505 39.3764 26.2822C39.808 26.8098 39.9999 27.4333 39.9039 28.1047C39.808 28.7762 39.5202 29.3517 38.9927 29.7354C38.561 30.0712 37.9855 30.263 37.4099 30.263C36.8344 30.263 36.3068 30.0712 35.8752 29.7354L27.2421 36.498C27.7217 37.5052 27.4339 38.7522 26.5226 39.4716C26.043 39.8553 25.5155 40.0472 24.9399 40.0472Z" fill="#31A836"/>
</svg>
