<svg width="24" height="24" viewBox="0 0 24 24" fill="none" xmlns="http://www.w3.org/2000/svg">
<g id="wallet-4">
<path id="vector" d="M19.25 6.5V5.75C19.25 5.19772 18.8023 4.75 18.25 4.75H3.94995C3.2596 4.75 2.69995 5.30964 2.69995 6M2.69995 6L2.69995 17.25C2.69995 18.3546 3.59538 19.25 4.69995 19.25H20.2C20.7522 19.25 21.2 18.8023 21.2 18.25V8.25C21.2 7.69772 20.7522 7.25 20.2 7.25H3.94995C3.2596 7.25 2.69995 6.69036 2.69995 6ZM17.25 13.25C17.25 13.6642 16.9142 14 16.5 14C16.0858 14 15.75 13.6642 15.75 13.25C15.75 12.8358 16.0858 12.5 16.5 12.5C16.9142 12.5 17.25 12.8358 17.25 13.25Z" stroke="#4B5563" stroke-width="1.5" stroke-linecap="round" stroke-linejoin="round"/>
</g>
</svg>
