<svg width="124" height="124" viewBox="0 0 124 124" fill="none" xmlns="http://www.w3.org/2000/svg">
<g id="spinner">
<path id="Ellipse 3" d="M1.30496e-05 62C1.60431e-05 27.7583 27.7584 -7.84317e-07 62 2.20918e-06C96.2417 5.20268e-06 124 27.7584 124 62C124 96.2417 96.2417 124 62 124C27.7584 124 1.00561e-05 96.2416 1.30496e-05 62ZM114.7 62C114.7 32.8946 91.1054 9.3 62 9.3C32.8946 9.3 9.30001 32.8946 9.30001 62C9.30001 91.1054 32.8946 114.7 62 114.7C91.1054 114.7 114.7 91.1054 114.7 62Z" fill="#331B5F"/>
<g id="Ellipse 2">
<mask id="path-2-inside-1_217_6311" fill="white">
<path d="M94.0697 14.4547C95.5058 12.3256 94.9517 9.41881 92.721 8.14628C83.4651 2.86609 72.9788 0.047313 62.2705 0.000589696C50.0082 -0.0529087 38.0054 3.53098 27.7799 10.2991C17.5544 17.0672 9.56558 26.7155 4.82355 38.0239C0.0815342 49.3324 -1.20066 61.793 1.13913 73.8302C3.47892 85.8673 9.33558 96.9403 17.9685 105.649C26.6015 114.358 37.6229 120.311 49.6392 122.755C61.6555 125.2 74.1268 124.027 85.4762 119.384C95.3873 115.329 104.054 108.787 110.658 100.424C112.25 98.4085 111.674 95.5058 109.545 94.0697C107.416 92.6336 104.541 93.2107 102.923 95.205C97.3668 102.053 90.1629 107.418 81.9548 110.776C72.3078 114.723 61.7072 115.72 51.4933 113.642C41.2795 111.564 31.9112 106.504 24.5732 99.1016C17.2352 91.6993 12.2571 82.2872 10.2683 72.0556C8.27944 61.8241 9.3693 51.2325 13.4 41.6203C17.4307 32.0082 24.2213 23.8071 32.9129 18.0542C41.6046 12.3013 51.807 9.25502 62.23 9.3005C71.0983 9.3392 79.7874 11.6147 87.5047 15.8827C89.752 17.1256 92.6336 16.5838 94.0697 14.4547Z"/>
</mask>
<path d="M94.0697 14.4547C95.5058 12.3256 94.9517 9.41881 92.721 8.14628C83.4651 2.86609 72.9788 0.047313 62.2705 0.000589696C50.0082 -0.0529087 38.0054 3.53098 27.7799 10.2991C17.5544 17.0672 9.56558 26.7155 4.82355 38.0239C0.0815342 49.3324 -1.20066 61.793 1.13913 73.8302C3.47892 85.8673 9.33558 96.9403 17.9685 105.649C26.6015 114.358 37.6229 120.311 49.6392 122.755C61.6555 125.2 74.1268 124.027 85.4762 119.384C95.3873 115.329 104.054 108.787 110.658 100.424C112.25 98.4085 111.674 95.5058 109.545 94.0697C107.416 92.6336 104.541 93.2107 102.923 95.205C97.3668 102.053 90.1629 107.418 81.9548 110.776C72.3078 114.723 61.7072 115.72 51.4933 113.642C41.2795 111.564 31.9112 106.504 24.5732 99.1016C17.2352 91.6993 12.2571 82.2872 10.2683 72.0556C8.27944 61.8241 9.3693 51.2325 13.4 41.6203C17.4307 32.0082 24.2213 23.8071 32.9129 18.0542C41.6046 12.3013 51.807 9.25502 62.23 9.3005C71.0983 9.3392 79.7874 11.6147 87.5047 15.8827C89.752 17.1256 92.6336 16.5838 94.0697 14.4547Z" fill="#9369F7" stroke="#AA8DF8" stroke-width="1.77143" mask="url(#path-2-inside-1_217_6311)"/>
</g>
</g>
</svg>
