<svg width="118" height="72" viewBox="0 0 118 72" fill="none" xmlns="http://www.w3.org/2000/svg">
<g opacity="0.3">
<rect x="13" y="12.5" width="47" height="47" rx="3.5" fill="#1A153C"/>
<path fill-rule="evenodd" clip-rule="evenodd" d="M43.7539 40.9912C44.7187 40.0264 44.7188 35.6846 44.7188 35.6846C44.7188 31.3868 41.8953 25.3125 36.9999 25.3125C31.5359 25.3125 29.2812 31.3868 29.2812 35.6846C29.2812 35.6846 29.2812 40.0264 30.2462 40.9912C31.2524 41.9972 33.3818 42.6797 36.9999 42.6797C40.6181 42.6797 42.6456 42.0995 43.7539 40.9912ZM42.0421 36.5985C42.7087 36.29 43.4327 35.9549 43.7028 35.188C44.1824 33.8258 41.2487 26.7598 37.0002 26.7598C32.2581 26.7598 29.8268 34.2788 30.3057 35.188C30.5452 35.6427 31.1438 35.9833 31.7421 36.3238C32.3401 36.6641 32.9379 37.0043 33.1771 37.4582C33.6556 38.3663 35.5696 38.8203 37.004 38.8203C38.4384 38.8203 40.3545 38.3663 40.833 37.4582C41.0421 37.0614 41.5248 36.838 42.0421 36.5985Z" fill="white"/>
<path d="M33.4979 31.1864L34.2733 32.0222L35.4087 31.9199L34.573 32.6953L34.6752 33.8307L33.8999 32.995L32.7644 33.0972L33.6002 32.3219L33.4979 31.1864Z" fill="white"/>
<path d="M40.2875 30.8026L40.1146 31.5427L40.5944 32.1321L39.8543 31.9593L39.2649 32.4391L39.4377 31.699L38.9579 31.1096L39.698 31.2824L40.2875 30.8026Z" fill="white"/>
<path d="M37 27.8792L37.5212 29.2877L38.9297 29.8089L37.5212 30.3301L37 31.7386L36.4788 30.3301L35.0703 29.8089L36.4788 29.2877L37 27.8792Z" fill="white"/>
<path d="M36.9997 47.9909L35.2188 49.0184L35.2188 46.9634L36.9997 47.9909Z" fill="white"/>
<path d="M38.781 46.9635L36.9997 47.9909L37 45.936L38.781 46.9635Z" fill="white"/>
<path d="M35.2188 49.0184L36.9997 47.9909L36.9995 50.0459L35.2188 49.0184Z" fill="white"/>
<path d="M38.781 49.0185L37 50.046L36.9997 47.9909L38.781 49.0185Z" fill="white"/>
<path d="M35.2188 46.9634L36.9995 45.9361L36.9997 47.9909L35.2188 46.9634Z" fill="white"/>
<path d="M36.9997 47.9909L38.781 46.9635V49.0185L36.9997 47.9909Z" fill="white"/>
<path fill-rule="evenodd" clip-rule="evenodd" d="M37 17L53.4544 26.5V45.5L37 55L20.5455 45.5V26.5L37 17ZM22.3267 27.5284L37 19.0568L51.6732 27.5284V44.4716L49.9571 45.4624C49.2342 45.2055 45.0126 43.7187 44.125 43.7188C44.125 44.9062 39.9688 46.6875 39.9688 46.6875V49.6562L37 51.4654L34.0313 49.6562V46.6875C34.0313 46.6875 29.875 44.9062 29.875 43.7188C28.9873 43.7188 24.7656 45.2056 24.0429 45.4624L22.3267 44.4716V27.5284Z" fill="white"/>
<rect x="13" y="12.5" width="47" height="47" rx="3.5" stroke="#1A153C"/>
<rect x="68.5" y="12" width="20" height="4" rx="2" fill="#1A153C"/>
<rect x="68.5" y="20" width="20" height="4" rx="2" fill="#1A153C"/>
<rect x="68.5" y="32" width="37" height="4" rx="2" fill="#1A153C"/>
<rect x="68.5" y="40" width="37" height="4" rx="2" fill="#1A153C"/>
<rect x="68.5" y="48" width="37" height="4" rx="2" fill="#1A153C"/>
<rect x="68.5" y="56" width="37" height="4" rx="2" fill="#1A153C"/>
<rect x="1.5" y="1" width="115" height="70" rx="7" stroke="#1A153C" stroke-width="2"/>
</g>
</svg>
