<svg width="72" height="72" viewBox="0 0 72 72" fill="none" xmlns="http://www.w3.org/2000/svg">
<g opacity="0.3">
<rect x="12.5" y="12.5" width="47" height="47" rx="3.5" fill="#1A153C"/>
<path fill-rule="evenodd" clip-rule="evenodd" d="M43.2539 40.9912C44.2187 40.0264 44.2188 35.6846 44.2188 35.6846C44.2188 31.3868 41.3953 25.3125 36.4999 25.3125C31.0359 25.3125 28.7812 31.3868 28.7812 35.6846C28.7812 35.6846 28.7812 40.0264 29.7462 40.9912C30.7524 41.9972 32.8818 42.6797 36.4999 42.6797C40.1181 42.6797 42.1456 42.0995 43.2539 40.9912ZM41.5421 36.5985C42.2087 36.29 42.9327 35.9549 43.2028 35.188C43.6824 33.8258 40.7487 26.7598 36.5002 26.7598C31.7581 26.7598 29.3268 34.2788 29.8057 35.188C30.0452 35.6427 30.6438 35.9833 31.2421 36.3238C31.8401 36.6641 32.4379 37.0043 32.6771 37.4582C33.1556 38.3663 35.0696 38.8203 36.504 38.8203C37.9384 38.8203 39.8545 38.3663 40.333 37.4582C40.5421 37.0614 41.0248 36.838 41.5421 36.5985Z" fill="white"/>
<path d="M32.9979 31.1864L33.7733 32.0222L34.9087 31.9199L34.073 32.6953L34.1752 33.8307L33.3999 32.995L32.2644 33.0972L33.1002 32.3219L32.9979 31.1864Z" fill="white"/>
<path d="M39.7875 30.8026L39.6147 31.5427L40.0944 32.1321L39.3543 31.9593L38.7649 32.4391L38.9378 31.699L38.458 31.1096L39.1981 31.2824L39.7875 30.8026Z" fill="white"/>
<path d="M36.5 27.8792L37.0212 29.2877L38.4297 29.8089L37.0212 30.3301L36.5 31.7386L35.9788 30.3301L34.5703 29.8089L35.9788 29.2877L36.5 27.8792Z" fill="white"/>
<path d="M36.4997 47.9909L34.7187 49.0184L34.7187 46.9634L36.4997 47.9909Z" fill="white"/>
<path d="M38.281 46.9635L36.4997 47.9909L36.5 45.936L38.281 46.9635Z" fill="white"/>
<path d="M34.7187 49.0184L36.4997 47.9909L36.4995 50.0459L34.7187 49.0184Z" fill="white"/>
<path d="M38.281 49.0185L36.5 50.046L36.4997 47.9909L38.281 49.0185Z" fill="white"/>
<path d="M34.7187 46.9634L36.4995 45.9361L36.4997 47.9909L34.7187 46.9634Z" fill="white"/>
<path d="M36.4997 47.9909L38.281 46.9635V49.0185L36.4997 47.9909Z" fill="white"/>
<path fill-rule="evenodd" clip-rule="evenodd" d="M36.5 17L52.9544 26.5V45.5L36.5 55L20.0455 45.5V26.5L36.5 17ZM21.8267 27.5284L36.5 19.0568L51.1732 27.5284V44.4716L49.4571 45.4624C48.7342 45.2055 44.5126 43.7187 43.625 43.7188C43.625 44.9062 39.4688 46.6875 39.4688 46.6875V49.6562L36.5 51.4654L33.5313 49.6562V46.6875C33.5313 46.6875 29.375 44.9062 29.375 43.7188C28.4873 43.7188 24.2656 45.2056 23.5429 45.4624L21.8267 44.4716V27.5284Z" fill="white"/>
<rect x="12.5" y="12.5" width="47" height="47" rx="3.5" stroke="#1A153C"/>
<rect x="1" y="1" width="70" height="70" rx="7" stroke="#1A153C" stroke-width="2"/>
</g>
</svg>
