<svg width="40" height="40" viewBox="0 0 40 40" fill="none" xmlns="http://www.w3.org/2000/svg">
<rect width="40" height="40" rx="20" fill="#28205B"/>
<path fill-rule="evenodd" clip-rule="evenodd" d="M23.5547 22.627C24.0625 22.1191 24.0625 19.834 24.0625 19.834C24.0625 17.572 22.5765 14.375 20 14.375C17.1242 14.375 15.9375 17.572 15.9375 19.834C15.9375 19.834 15.9375 22.1191 16.4454 22.627C16.9749 23.1564 18.0957 23.5156 20 23.5156C21.9042 23.5156 22.9714 23.2103 23.5547 22.627ZM22.6537 20.315C23.0046 20.1526 23.3856 19.9763 23.5278 19.5726C23.7802 18.8557 22.2362 15.1367 20.0001 15.1367C17.5043 15.1367 16.2246 19.0941 16.4767 19.5726C16.6028 19.8119 16.9178 19.9912 17.2327 20.1704C17.5474 20.3495 17.8621 20.5286 17.9879 20.7675C18.2398 21.2454 19.2471 21.4844 20.0021 21.4844C20.7571 21.4844 21.7655 21.2454 22.0174 20.7675C22.1274 20.5586 22.3815 20.441 22.6537 20.315Z" fill="white"/>
<path d="M18.1568 17.4665L18.5649 17.9064L19.1625 17.8526L18.7226 18.2607L18.7764 18.8583L18.3683 18.4184L17.7708 18.4722L18.2106 18.0641L18.1568 17.4665Z" fill="white"/>
<path d="M21.7303 17.2646L21.6393 17.6541L21.8918 17.9643L21.5023 17.8734L21.1921 18.1259L21.283 17.7364L21.0305 17.4261L21.42 17.5171L21.7303 17.2646Z" fill="white"/>
<path d="M20 15.726L20.2743 16.4673L21.0156 16.7416L20.2743 17.0159L20 17.7572L19.7257 17.0159L18.9844 16.7416L19.7257 16.4673L20 15.726Z" fill="white"/>
<path d="M19.9999 26.311L19.0625 26.8518L19.0625 25.7702L19.9999 26.311Z" fill="white"/>
<path d="M20.9374 25.7703L19.9999 26.311L20 25.2295L20.9374 25.7703Z" fill="white"/>
<path d="M19.0625 26.8518L19.9999 26.311L19.9997 27.3926L19.0625 26.8518Z" fill="white"/>
<path d="M20.9374 26.8519L20 27.3926L19.9999 26.311L20.9374 26.8519Z" fill="white"/>
<path d="M19.0625 25.7702L19.9997 25.2295L19.9999 26.311L19.0625 25.7702Z" fill="white"/>
<path d="M19.9999 26.311L20.9374 25.7703V26.8519L19.9999 26.311Z" fill="white"/>
<path fill-rule="evenodd" clip-rule="evenodd" d="M20 10L28.6602 15V25L20 30L11.3397 25V15L20 10ZM12.2772 15.5413L20 11.0825L27.7227 15.5413V24.4587L26.8195 24.9802C26.439 24.845 24.2172 24.0625 23.75 24.0625C23.75 24.6875 21.5625 25.625 21.5625 25.625V27.1875L20 28.1397L18.4375 27.1875V25.625C18.4375 25.625 16.25 24.6875 16.25 24.0625C15.7828 24.0625 13.5608 24.845 13.1805 24.9802L12.2772 24.4587V15.5413Z" fill="white"/>
</svg>
