<svg width="24" height="24" viewBox="0 0 24 24" fill="none" xmlns="http://www.w3.org/2000/svg">
<path d="M2.5913 9.57086C2.80842 9.65582 3.10106 9.56142 3.2049 9.26878C4.69642 4.96415 8.34969 2.87792 12.0407 2.87792C13.8154 2.87792 15.1654 3.2744 16.2226 3.92576C16.4775 4.08624 16.7796 4.05792 16.8834 3.80304C17.0061 3.52928 16.8646 3.35936 16.6569 3.2272C15.373 2.40592 13.9193 2 12.0407 2C7.91545 2 4.03562 4.23728 2.36474 8.84398C2.23258 9.21214 2.36474 9.47646 2.5913 9.57086ZM21.9338 12.8465C22.1793 12.8465 22.3681 12.6389 22.3397 12.3651C21.9621 8.7307 20.6405 6.20079 18.526 4.39775C18.3089 4.20895 18.0351 4.23727 17.8935 4.39775C17.733 4.55823 17.7236 4.83199 17.9501 5.03023C19.8665 6.77663 21.1881 9.05166 21.4996 12.384C21.5185 12.6389 21.6789 12.8465 21.9338 12.8465ZM4.13002 17.8214C4.27162 18.0291 4.5737 18.0763 4.79082 17.8875C5.45162 17.34 5.78202 16.4243 5.77258 15.5369C5.76314 14.2153 5.20618 13.5923 5.20618 11.912C5.20618 8.27759 8.28361 5.20015 11.9274 5.20015C16.4775 5.20015 19.3095 8.85342 19.3284 14.1681C19.3378 16.1411 19.0263 17.6609 18.6298 18.671C18.526 18.9259 18.6298 19.1808 18.8375 19.2752C19.0452 19.3696 19.3378 19.294 19.4322 19.0297C19.8381 17.8969 20.1969 16.2449 20.1969 14.1587C20.1969 8.3531 17.0062 4.34111 11.9274 4.34111C7.80217 4.34111 4.3377 7.80559 4.3377 11.912C4.3377 13.479 4.92298 14.5363 4.93242 15.5369C4.93242 16.1694 4.67754 16.8019 4.22442 17.1984C4.03562 17.3588 4.0073 17.6326 4.13002 17.8214ZM8.17977 14.6213C7.91545 13.9321 7.54729 13.0542 7.54729 12.0347C7.54729 9.4387 9.45417 7.53183 12.0407 7.53183C12.9753 7.53183 13.4662 7.69231 14.2402 8.11711C14.4857 8.23983 14.7122 8.16431 14.8066 7.99439C14.9199 7.79615 14.8916 7.52239 14.5895 7.34303C13.9193 6.92767 12.9847 6.66335 12.0407 6.66335C8.97273 6.66335 6.67881 8.95726 6.67881 12.0347C6.67881 13.0637 6.96201 14.0265 7.33961 14.9516C7.45289 15.216 7.68889 15.3292 7.95321 15.2254C8.17977 15.131 8.27417 14.8761 8.17977 14.6213ZM15.6562 9.3443C16.5625 10.6659 17.0062 12.5633 17.0062 14.7156C17.0062 17.0096 16.3831 19.2185 15.3353 20.5873C15.1937 20.7761 15.1654 21.0499 15.3353 21.2198C15.5146 21.3992 15.845 21.3992 16.0055 21.1915C17.1666 19.615 17.8652 17.1889 17.8652 14.6873C17.8652 12.0913 17.2988 10.2694 16.4303 8.89118C16.2604 8.61742 15.9866 8.56078 15.779 8.67406C15.5524 8.79678 15.4863 9.07998 15.6562 9.3443ZM8.16089 20.7572C9.66185 19.5489 10.4926 17.6232 10.4831 15.4708C10.4642 13.8566 9.88841 12.8465 9.88841 11.9214C9.88841 10.6942 10.7569 9.87294 11.9935 9.87294C13.8438 9.87294 14.5706 11.8459 14.6084 14.5929C14.665 17.5571 13.5983 19.9832 12.2012 21.2387C12.0218 21.3992 11.9841 21.6352 12.1162 21.824C12.2578 22.0222 12.5599 22.0694 12.7676 21.8806C14.2591 20.5212 15.4391 17.6609 15.4297 14.5363C15.4202 11.2795 14.4479 9.0139 11.9935 9.0139C10.3132 9.0139 9.03881 10.1467 9.03881 11.8553C9.03881 12.8749 9.59577 14.1587 9.61465 15.4708C9.62409 17.3588 8.90665 19.0203 7.62281 20.0681C7.39625 20.2475 7.37737 20.5024 7.50953 20.6912C7.66057 20.9083 7.94377 20.946 8.16089 20.7572ZM2.94058 15.0932C3.16714 15.0177 3.28986 14.7912 3.21434 14.508C2.9689 13.5923 2.85562 12.4406 2.88394 11.1757C2.88394 10.9019 2.7329 10.7414 2.4969 10.732C2.19482 10.7131 2.03434 10.9019 2.01546 11.1379C1.95882 12.2235 2.05322 13.5734 2.37418 14.7534C2.45914 15.0366 2.70458 15.1593 2.94058 15.0932ZM12.8809 16.4432C13.1546 15.2348 13.0319 13.5357 12.5505 12.2046C12.4372 11.8931 12.2106 11.7987 11.9652 11.8742C11.7386 11.9497 11.6065 12.1763 11.6914 12.4406C12.1634 13.7339 12.2673 15.1971 12.0218 16.3299C11.9746 16.5659 12.069 16.783 12.3334 16.8302C12.5882 16.8774 12.8148 16.7264 12.8809 16.4432ZM6.20681 19.53C6.89593 19.1713 7.84937 17.963 8.09481 16.9718C8.16089 16.7358 8.03817 16.4904 7.80217 16.4148C7.58505 16.3488 7.35849 16.4715 7.27353 16.7264C7.01865 17.6326 6.49001 18.284 5.81034 18.7465C5.52714 18.9448 5.49882 19.1996 5.59322 19.379C5.68762 19.5678 5.93306 19.6716 6.20681 19.53ZM10.3038 21.5124C11.0495 20.9649 11.9086 19.8604 12.3522 18.52C12.4089 18.3123 12.3617 18.0385 12.1162 17.963C11.8708 17.878 11.6348 17.9913 11.5593 18.2084C11.0495 19.5489 10.4265 20.323 9.77513 20.8139C9.57689 20.9649 9.52025 21.2292 9.65241 21.4275C9.78457 21.654 10.0772 21.6824 10.3038 21.5124Z" fill="#4C28B8"/>
</svg>
