<svg width="17" height="17" viewBox="0 0 17 17" fill="none" xmlns="http://www.w3.org/2000/svg">
<g id="view--off">
<path id="Vector" fill-rule="evenodd" clip-rule="evenodd" d="M13.1 4.34096C14.399 5.27447 15.3966 6.56756 15.97 8.06096C16.0097 8.17081 16.0097 8.2911 15.97 8.40096C15.3819 9.92213 14.361 11.2376 13.0334 12.1849C11.7058 13.1322 10.1297 13.6697 8.49997 13.731C7.18199 13.7097 5.89191 13.348 4.75497 12.681L2.20497 15.231L1.49997 14.526L14.795 1.23096L15.5 1.93596L13.1 4.34096ZM10.2275 9.22674C10.4039 8.92438 10.4979 8.58101 10.5 8.23096C10.4963 7.87878 10.3997 7.53382 10.22 7.23096L7.49997 9.95096C7.80313 10.126 8.14691 10.2184 8.49697 10.2189C8.84703 10.2195 9.19109 10.1281 9.49478 9.95399C9.79846 9.77987 10.0511 9.5291 10.2275 9.22674ZM5.49997 11.941C6.42192 12.4416 7.451 12.7126 8.49997 12.731C11.15 12.731 13.95 10.766 14.965 8.23096C14.4244 6.94867 13.5273 5.84845 12.38 5.06096L10.945 6.49596C11.3458 7.07363 11.531 7.77373 11.4682 8.47402C11.4054 9.17432 11.0987 9.83032 10.6015 10.3275C10.1043 10.8247 9.44833 11.1314 8.74804 11.1942C8.04774 11.257 7.34764 11.0718 6.76997 10.671L5.49997 11.941ZM3.11997 11.486L3.83497 10.776C3.05208 10.073 2.43696 9.2033 2.03497 8.23096C3.04997 5.69596 5.84997 3.73096 8.49997 3.73096C9.18192 3.73996 9.85769 3.8616 10.5 4.09096L11.275 3.31096C10.3963 2.93962 9.45382 2.74263 8.49997 2.73096C6.87023 2.79224 5.29416 3.32973 3.96657 4.277C2.63898 5.22427 1.61805 6.53978 1.02997 8.06096C0.990254 8.17081 0.990254 8.2911 1.02997 8.40096C1.47409 9.57947 2.19018 10.6365 3.11997 11.486ZM6.49997 8.09619C6.53474 7.61704 6.74082 7.16642 7.08051 6.82673C7.42021 6.48703 7.87083 6.28096 8.34997 6.24619L9.25497 5.33619C8.74785 5.20266 8.21459 5.20439 7.70835 5.34122C7.20211 5.47804 6.74058 5.74517 6.36977 6.11598C5.99896 6.48679 5.73183 6.94833 5.595 7.45457C5.45818 7.96081 5.45644 8.49407 5.58997 9.00119L6.49997 8.09619Z" fill="#737373"/>
</g>
</svg>
