<svg width="17" height="17" viewBox="0 0 17 17" fill="none" xmlns="http://www.w3.org/2000/svg">
<g id="view">
<path id="Vector" fill-rule="evenodd" clip-rule="evenodd" d="M13.0334 4.277C14.361 5.22427 15.382 6.53978 15.97 8.06096C16.0097 8.17081 16.0097 8.2911 15.97 8.40096C15.382 9.92213 14.361 11.2376 13.0334 12.1849C11.7058 13.1322 10.1298 13.6697 8.50003 13.731C6.87029 13.6697 5.29423 13.1322 3.96663 12.1849C2.63904 11.2376 1.61811 9.92213 1.03003 8.40096C0.990315 8.2911 0.990315 8.17081 1.03003 8.06096C1.61811 6.53978 2.63904 5.22427 3.96663 4.277C5.29423 3.32973 6.87029 2.79224 8.50003 2.73096C10.1298 2.79224 11.7058 3.32973 13.0334 4.277ZM2.03503 8.23096C3.05003 10.766 5.85003 12.731 8.50003 12.731C11.15 12.731 13.95 10.766 14.965 8.23096C13.95 5.69596 11.15 3.73096 8.50003 3.73096C5.85003 3.73096 3.05003 5.69596 2.03503 8.23096ZM6.83332 5.73655C7.32667 5.4069 7.90669 5.23096 8.50003 5.23096C9.29568 5.23096 10.0587 5.54703 10.6214 6.10964C11.184 6.67225 11.5 7.43531 11.5 8.23096C11.5 8.8243 11.3241 9.40432 10.9944 9.89767C10.6648 10.391 10.1963 10.7755 9.64808 11.0026C9.0999 11.2297 8.4967 11.2891 7.91476 11.1733C7.33282 11.0576 6.79827 10.7718 6.37871 10.3523C5.95915 9.93272 5.67343 9.39817 5.55768 8.81623C5.44192 8.23428 5.50133 7.63108 5.72839 7.08291C5.95546 6.53473 6.33997 6.06619 6.83332 5.73655ZM7.38889 9.8939C7.71779 10.1137 8.10447 10.231 8.50003 10.231C9.03047 10.231 9.53917 10.0202 9.91424 9.64517C10.2893 9.2701 10.5 8.76139 10.5 8.23096C10.5 7.83539 10.3827 7.44871 10.163 7.11982C9.94321 6.79092 9.63085 6.53457 9.2654 6.3832C8.89995 6.23182 8.49781 6.19222 8.10985 6.26939C7.72189 6.34656 7.36552 6.53704 7.08582 6.81674C6.80611 7.09645 6.61563 7.45281 6.53846 7.84078C6.46129 8.22874 6.5009 8.63087 6.65227 8.99632C6.80365 9.36178 7.05999 9.67413 7.38889 9.8939Z" fill="#737373"/>
</g>
</svg>
