<svg width="32" height="32" viewBox="0 0 32 32" fill="none" xmlns="http://www.w3.org/2000/svg">
<path opacity="0.25" d="M29 19C29 20.1046 28.1046 21 27 21L11 21C9.89543 21 9 20.1046 9 19L9 7C9 5.89543 9.89543 5 11 5L27 5C28.1046 5 29 5.89543 29 7L29 19Z" fill="white"/>
<path opacity="0.5" d="M26 22C26 23.1046 25.1046 24 24 24L8 24C6.89543 24 6 23.1046 6 22L6 10C6 8.89543 6.89543 8 8 8L24 8C25.1046 8 26 8.89543 26 10L26 22Z" fill="white"/>
<path fill-rule="evenodd" clip-rule="evenodd" d="M5 11C3.89543 11 3 11.8954 3 13V25C3 26.1046 3.89543 27 5 27H21C22.1046 27 23 26.1046 23 25V22H18C17.4477 22 17 21.5523 17 21V17C17 16.4477 17.4477 16 18 16H23V13C23 11.8954 22.1046 11 21 11H5Z" fill="white"/>
<path d="M18 18C18 17.4477 18.4477 17 19 17H24V21H19C18.4477 21 18 20.5523 18 20V18Z" fill="white"/>
</svg>
