<svg width="32" height="32" viewBox="0 0 32 32" fill="none" xmlns="http://www.w3.org/2000/svg">
<path fill-rule="evenodd" clip-rule="evenodd" d="M26 21C27.6569 21 29 19.6569 29 18L29 8C29 6.34315 27.6569 5 26 5L12 5C10.3431 5 9 6.34314 9 8L9 10L13 10C14.1046 10 15 10.8954 15 12L15 14C15 15.1046 14.1046 16 13 16L9 16L9 18C9 19.6569 10.3431 21 12 21L26 21Z" fill="#521E8A"/>
<path d="M13 12.5C13 13.3284 12.3284 14 11.5 14L8.5 14C7.67157 14 7 13.3284 7 12.5L7 11.5C7 10.6716 7.67157 10 8.5 10L11.5 10C12.3284 10 13 10.6716 13 11.5L13 12.5Z" fill="#521E8A"/>
<path fill-rule="evenodd" clip-rule="evenodd" d="M23 24C24.6569 24 26 22.6569 26 21L26 11C26 9.34315 24.6569 8 23 8L9 8C7.34315 8 6 9.34314 6 11L6 13L10 13C11.1046 13 12 13.8954 12 15L12 17C12 18.1046 11.1046 19 10 19L6 19L6 21C6 22.6569 7.34315 24 9 24L23 24Z" fill="#FFCC00"/>
<path d="M13 18.5C13 19.3284 12.3284 20 11.5 20L8.5 20C7.67157 20 7 19.3284 7 18.5L7 17.5C7 16.6716 7.67157 16 8.5 16L11.5 16C12.3284 16 13 16.6716 13 17.5L13 18.5Z" fill="#521E8A"/>
<path fill-rule="evenodd" clip-rule="evenodd" d="M6 11C4.34315 11 3 12.3431 3 14V24C3 25.6569 4.34315 27 6 27H20C21.6569 27 23 25.6569 23 24V22H19C17.8954 22 17 21.1046 17 20V18C17 16.8954 17.8954 16 19 16H23V14C23 12.3431 21.6569 11 20 11H6Z" fill="#521E8A"/>
<path d="M18 18.5C18 17.6716 18.6716 17 19.5 17H22.5C23.3284 17 24 17.6716 24 18.5V19.5C24 20.3284 23.3284 21 22.5 21H19.5C18.6716 21 18 20.3284 18 19.5V18.5Z" fill="#521E8A"/>
</svg>
