<svg width="32" height="32" viewBox="0 0 32 32" fill="none" xmlns="http://www.w3.org/2000/svg">
<circle cx="16" cy="7" r="3.5" fill="#FFCC00"/>
<circle cx="16" cy="7" r="3.5" fill="white" fill-opacity="0.2"/>
<circle cx="16" cy="7" r="3.5" stroke="#E5B800"/>
<circle cx="12" cy="10" r="3.5" fill="#FFCC00" stroke="#E5B800"/>
<circle cx="20" cy="10" r="3.5" fill="#FFCC00" stroke="#E5B800"/>
<path fill-rule="evenodd" clip-rule="evenodd" d="M7 9C5.34315 9 4 10.3431 4 12V24C4 25.6569 5.34315 27 7 27H25C26.6569 27 28 25.6569 28 24V22H21C20.4477 22 20 21.5523 20 21V15C20 14.4477 20.4477 14 21 14H28V12C28 10.3431 26.6569 9 25 9H7Z" fill="#521E8A"/>
<path fill-rule="evenodd" clip-rule="evenodd" d="M22 15C21.4477 15 21 15.4477 21 16V20C21 20.5523 21.4477 21 22 21H28C28.5523 21 29 20.5523 29 20V16C29 15.4477 28.5523 15 28 15H22ZM25 19C25.5523 19 26 18.5523 26 18C26 17.4477 25.5523 17 25 17C24.4477 17 24 17.4477 24 18C24 18.5523 24.4477 19 25 19Z" fill="#521E8A"/>
</svg>
