<svg width="32" height="32" viewBox="0 0 32 32" fill="none" xmlns="http://www.w3.org/2000/svg">
<path fill-rule="evenodd" clip-rule="evenodd" d="M2.66669 8.66667C2.66669 6.8274 4.15547 5.33334 5.99809 5.33334H25.3334C26.0697 5.33334 26.6667 5.93029 26.6667 6.66667V9.33334H28C28.7364 9.33334 29.3334 9.93029 29.3334 10.6667V25.3333C29.3334 26.0697 28.7364 26.6667 28 26.6667H6.66669C4.45755 26.6667 2.66669 24.8758 2.66669 22.6667C2.66669 18 2.66669 13.3333 2.66669 8.66667ZM24 9.33334V8H5.99809C5.63158 8 5.33335 8.2968 5.33335 8.66667C5.33335 9.03486 5.63183 9.33334 6.00002 9.33334H24ZM20 18C20 16.8954 20.8955 16 22 16C23.1046 16 24 16.8954 24 18C24 19.1046 23.1046 20 22 20C20.8955 20 20 19.1046 20 18Z" fill="currentColor"/>
</svg>
