<svg width="24" height="24" viewBox="0 0 24 24" fill="#8061E5" xmlns="http://www.w3.org/2000/svg">
<path fill-rule="evenodd" clip-rule="evenodd" d="M3.66669 6H21.6667C22.0645 6 22.446 6.15804 22.7273 6.43934C23.0087 6.72064 23.1667 7.10218 23.1667 7.5V19.5C23.1667 19.8978 23.0087 20.2794 22.7273 20.5607C22.446 20.842 22.0645 21 21.6667 21H3.66669C3.26886 21 2.88733 20.842 2.60603 20.5607C2.32472 20.2794 2.16669 19.8978 2.16669 19.5V3.75C2.16669 3.35218 2.32472 2.97064 2.60603 2.68934C2.88733 2.40804 3.26886 2.25 3.66669 2.25H20.1667V3.75H3.66669V6ZM3.66669 7.5V19.5H21.6667V17.25H15.6667C15.2689 17.25 14.8873 17.092 14.606 16.8107C14.3247 16.5294 14.1667 16.1478 14.1667 15.75V11.25C14.1667 10.8522 14.3247 10.4706 14.606 10.1893C14.8873 9.90804 15.2689 9.75 15.6667 9.75H21.6667V7.5H3.66669ZM21.6667 15.75V11.25H15.6667V15.75H21.6667ZM17.1667 12.75H18.6667V14.25H17.1667V12.75Z" fill="#8061E5"/>
</svg>