<svg width="20" height="18" viewBox="0 0 20 18" fill="none" xmlns="http://www.w3.org/2000/svg">
<path d="M2.36966 17.9999H17.4297C18.9697 17.9999 19.9297 16.3299 19.1597 14.9999L11.6297 1.98993C10.8597 0.659932 8.93966 0.659932 8.16966 1.98993L0.639657 14.9999C-0.130343 16.3299 0.829657 17.9999 2.36966 17.9999ZM9.89966 10.9999C9.34966 10.9999 8.89966 10.5499 8.89966 9.99993V7.99993C8.89966 7.44993 9.34966 6.99993 9.89966 6.99993C10.4497 6.99993 10.8997 7.44993 10.8997 7.99993V9.99993C10.8997 10.5499 10.4497 10.9999 9.89966 10.9999ZM10.8997 14.9999H8.89966V12.9999H10.8997V14.9999Z" fill="#F59E0B"/>
</svg>
