<svg width="192" height="192" viewBox="0 0 192 192" fill="none" xmlns="http://www.w3.org/2000/svg">
<path d="M81 150C81 150 60 141 60 135C64.5006 135 70.5 135 75 130.5C93 133.5 99 133.5 117 130.5C121.5 135 129 135 132 135C132 141 111 150 111 150V165L96 174L81 165L81 150Z" fill="url(#paint0_radial)"/>
<path fill-rule="evenodd" clip-rule="evenodd" d="M130.125 121.219C135 116.344 135 94.4062 135 94.4062C135 72.6912 120.734 42 95.9997 42C68.3921 42 57 72.6912 57 94.4062C57 94.4062 57 116.344 61.8757 121.219C66.9594 126.302 77.7187 129.75 95.9997 129.75C114.281 129.75 124.525 126.819 130.125 121.219ZM121.476 99.0243C124.844 97.4654 128.502 95.7722 129.867 91.897C132.29 85.0147 117.467 49.3125 96.0008 49.3125C72.0409 49.3125 59.7564 87.3036 62.1762 91.897C63.3864 94.1945 66.4106 95.9155 69.4339 97.6359C72.4553 99.3553 75.4758 101.074 76.6843 103.368C79.1019 107.956 88.7726 110.25 96.0201 110.25C103.268 110.25 112.949 107.956 115.367 103.368C116.423 101.363 118.862 100.234 121.476 99.0243Z" fill="url(#paint1_linear)"/>
<path d="M129.866 91.8971C127.442 98.7794 117.784 98.7794 115.366 103.368C112.948 107.956 103.267 110.25 96.0193 110.25C88.7717 110.25 79.1011 107.956 76.6835 103.368C74.2658 98.7794 64.5951 96.4906 62.1754 91.8971C59.7556 87.3036 72.04 49.3125 96 49.3125C117.466 49.3125 132.289 85.0147 129.866 91.8971Z" fill="url(#paint2_radial)"/>
<path opacity="0.25" d="M129.866 91.8971C127.442 98.7794 117.783 98.7794 115.366 103.368C112.948 107.956 103.267 110.25 96.0191 110.25C88.7715 110.25 79.1009 107.956 76.6832 103.368C74.2656 98.7794 64.5949 96.4906 62.1751 91.8971C59.7553 87.3036 72.0595 60 96.0194 60C117.486 60 132.289 85.0147 129.866 91.8971Z" fill="url(#paint3_linear)"/>
<path d="M78.3053 68.1307L82.223 72.3534L87.9599 71.8368L83.7372 75.7544L84.2538 81.4913L80.3362 77.2687L74.5993 77.7853L78.8219 73.8676L78.3053 68.1307Z" fill="white"/>
<path d="M112.611 67.7396L111.738 71.4791L114.162 74.4572L110.423 73.5839L107.445 76.0081L108.318 72.2686L105.894 69.2905L109.633 70.1638L112.611 67.7396Z" fill="white"/>
<path d="M96 52.9688L98.6334 60.0854L105.75 62.7188L98.6334 65.3521L96 72.4688L93.3666 65.3521L86.25 62.7188L93.3666 60.0854L96 52.9688Z" fill="white"/>
<path d="M95.9995 157.683L87.0008 162.875L87.0008 152.491L95.9995 157.683Z" fill="url(#paint4_linear)"/>
<path d="M105 152.492L96.0008 157.683L96.0008 147.3L105 152.492Z" fill="white"/>
<path d="M86.9995 162.874L95.9982 157.683L95.9982 168.066L86.9995 162.874Z" fill="white"/>
<path d="M105 162.875L96.0008 168.066L96.0008 157.683L105 162.875Z" fill="white"/>
<path d="M86.9995 152.492L95.9982 147.3L95.9982 157.683L86.9995 152.492Z" fill="white"/>
<path d="M95.9995 157.683L104.998 152.491L104.998 162.875L95.9995 157.683Z" fill="white"/>
<path fill-rule="evenodd" clip-rule="evenodd" d="M95.9998 0L179.138 48V144L95.9998 192L12.8613 144V48L95.9998 0ZM21.8613 53.1962L95.9998 10.3923L170.138 53.1962V138.804L161.467 143.81C157.815 142.512 136.485 135 132 135C132 141 111 150 111 150V165L96 174.141L81 165V150C81 150 60 141 60 135C55.515 135 34.1842 142.512 30.5325 143.81L21.8613 138.804V53.1962Z" fill="url(#paint5_linear)"/>
<defs>
<radialGradient id="paint0_radial" cx="0" cy="0" r="1" gradientUnits="userSpaceOnUse" gradientTransform="translate(96 163.875) rotate(-90) scale(29.25 27.4219)">
<stop stop-color="white" stop-opacity="0.4"/>
<stop offset="1" stop-color="white" stop-opacity="0.2"/>
</radialGradient>
<linearGradient id="paint1_linear" x1="106.5" y1="87" x2="136.5" y2="117" gradientUnits="userSpaceOnUse">
<stop stop-color="white"/>
<stop offset="1" stop-color="white" stop-opacity="0.5"/>
</linearGradient>
<radialGradient id="paint2_radial" cx="0" cy="0" r="1" gradientUnits="userSpaceOnUse" gradientTransform="translate(96 60.2812) rotate(89.976) scale(57.9982 35.011)">
<stop stop-color="white" stop-opacity="0.7"/>
<stop offset="1" stop-color="white" stop-opacity="0"/>
</radialGradient>
<linearGradient id="paint3_linear" x1="96.0001" y1="60" x2="96.0001" y2="160.5" gradientUnits="userSpaceOnUse">
<stop stop-color="white"/>
<stop offset="1" stop-color="#EBEBEB"/>
</linearGradient>
<linearGradient id="paint4_linear" x1="87.0008" y1="152.464" x2="91.5002" y2="159.783" gradientUnits="userSpaceOnUse">
<stop stop-color="white" stop-opacity="0"/>
<stop offset="1" stop-color="white"/>
</linearGradient>
<linearGradient id="paint5_linear" x1="96" y1="82.5" x2="196.497" y2="183.003" gradientUnits="userSpaceOnUse">
<stop stop-color="white"/>
<stop offset="1" stop-color="white" stop-opacity="0.5"/>
</linearGradient>
</defs>
</svg>
