<?xml version="1.0" encoding="utf-8"?>
<!-- Generator: Adobe Illustrator 25.1.0, SVG Export Plug-In . SVG Version: 6.00 Build 0)  -->
<svg version="1.1" id="Layer_1" xmlns="http://www.w3.org/2000/svg" xmlns:xlink="http://www.w3.org/1999/xlink" x="0px" y="0px"
	 viewBox="0 0 50 50" style="enable-background:new 0 0 50 50;" xml:space="preserve">
<style type="text/css">
	.st0{fill:#FFFFFF;}
	.st1{fill:url(#SVGID_1_);}
	.st2{fill:url(#SVGID_2_);}
	.st3{fill:url(#SVGID_3_);}
	.st4{fill:url(#SVGID_4_);}
	.st5{fill:url(#SVGID_5_);}
	.st6{filter:url(#Adobe_OpacityMaskFilter);}
	.st7{opacity:0.3;mask:url(#SVGID_6_);}
	.st8{fill:url(#SVGID_7_);}
	.st9{filter:url(#Adobe_OpacityMaskFilter_1_);}
	.st10{opacity:0.3;mask:url(#SVGID_8_);}
	.st11{fill:url(#SVGID_9_);}
	.st12{fill:url(#SVGID_10_);}
	.st13{filter:url(#Adobe_OpacityMaskFilter_2_);}
	.st14{opacity:0.3;mask:url(#SVGID_11_);}
	.st15{fill:#6625AC;}
	.st16{filter:url(#Adobe_OpacityMaskFilter_3_);}
	.st17{opacity:0.3;mask:url(#SVGID_12_);}
	.st18{filter:url(#Adobe_OpacityMaskFilter_4_);}
	.st19{opacity:0.3;mask:url(#SVGID_13_);}
	.st20{opacity:0.9;fill:#FFFFFF;}
</style>
<g>
	<g>
		<g>
			<path class="st0" d="M26.1,2c8.2,0,15.3,5.3,18.2,12.9c0.1,0,0.3,0.1,0.4,0.2l2.9,1.9c0.3,0.2,0.5,0.6,0.5,1l-0.8,9.1
				c0,0.3-0.1,0.5-0.3,0.7l-2.7,2.7c-0.1,0.1-0.2,0.2-0.3,0.2c-0.8,1.8-1.8,3.5-3.1,5c0.8,3.2,3.1,4.3,3.1,5.3
				c0,3.8-8.2,6.8-18.3,6.8c-10.1,0-18.3-3-18.3-6.8c0-1,2.9-2.1,3.9-5.3c-1.2-1.5-2.3-3.2-3.1-5c-0.1-0.1-0.3-0.1-0.4-0.3l-2.7-2.7
				c-0.2-0.2-0.3-0.4-0.3-0.7L4,18c0-0.4,0.2-0.8,0.5-1l2.9-1.9c0.2-0.1,0.3-0.2,0.5-0.2C10.8,7.4,17.8,2,26.1,2 M26.1,1.3
				c-8.3,0-15.6,5.1-18.7,13c-0.1,0-0.2,0.1-0.3,0.2l-2.9,1.9c-0.6,0.4-0.9,1.1-0.8,1.7l0.8,9.1c0,0.4,0.2,0.9,0.5,1.2l2.7,2.7
				c0.1,0.1,0.2,0.2,0.3,0.3c0.7,1.6,1.7,3.2,2.8,4.6c-0.6,1.5-1.6,2.5-2.5,3.2c-0.7,0.7-1.3,1.2-1.3,1.9c0,4.2,8.4,7.6,19,7.6
				c10.7,0,19-3.3,19-7.6c0-0.7-0.5-1.3-1.1-1.9c-0.7-0.8-1.5-1.7-2-3.2c1.2-1.4,2.1-3,2.9-4.7c0.1-0.1,0.2-0.1,0.3-0.2l2.7-2.7
				c0.3-0.3,0.5-0.7,0.5-1.2l0.8-9.1c0.1-0.7-0.3-1.4-0.8-1.7l-2.9-1.9c-0.1-0.1-0.2-0.1-0.3-0.2C41.7,6.4,34.3,1.3,26.1,1.3
				L26.1,1.3z"/>
		</g>
		
			<radialGradient id="SVGID_1_" cx="6.8981" cy="22.9143" r="3.2833" gradientTransform="matrix(0.9944 -0.106 0.3774 3.5388 -8.608 -57.443)" gradientUnits="userSpaceOnUse">
			<stop  offset="0" style="stop-color:#00F1B7"/>
			<stop  offset="0.1058" style="stop-color:#06E5B6"/>
			<stop  offset="0.2989" style="stop-color:#17C4B5"/>
			<stop  offset="0.5577" style="stop-color:#318FB2"/>
			<stop  offset="0.8691" style="stop-color:#5646AE"/>
			<stop  offset="1" style="stop-color:#6625AC"/>
		</radialGradient>
		<path class="st1" d="M7.9,30.6l-2.7-2.7c-0.2-0.2-0.3-0.4-0.3-0.7L4,18c0-0.4,0.2-0.8,0.5-1l2.9-1.9c0.7-0.5,1.7,0,1.8,0.9
			l0.6,13.8C9.9,30.8,8.6,31.3,7.9,30.6z"/>
		
			<radialGradient id="SVGID_2_" cx="8433.1797" cy="22.9459" r="3.2833" gradientTransform="matrix(-0.9944 -0.106 -0.3774 3.5388 8439.4434 835.9519)" gradientUnits="userSpaceOnUse">
			<stop  offset="0" style="stop-color:#00F1B7"/>
			<stop  offset="0.1058" style="stop-color:#06E5B6"/>
			<stop  offset="0.2989" style="stop-color:#17C4B5"/>
			<stop  offset="0.5577" style="stop-color:#318FB2"/>
			<stop  offset="0.8691" style="stop-color:#5646AE"/>
			<stop  offset="1" style="stop-color:#6625AC"/>
		</radialGradient>
		<path class="st2" d="M44.2,30.6l2.7-2.7c0.2-0.2,0.3-0.4,0.3-0.7l0.8-9.1c0-0.4-0.2-0.8-0.5-1l-2.9-1.9c-0.7-0.5-1.7,0-1.8,0.9
			l-0.6,13.8C42.2,30.8,43.4,31.4,44.2,30.6z"/>
		
			<radialGradient id="SVGID_3_" cx="25.6469" cy="40.7488" r="18.2752" gradientTransform="matrix(1 0 0 0.4114 0 23.9838)" gradientUnits="userSpaceOnUse">
			<stop  offset="0" style="stop-color:#00F1B7"/>
			<stop  offset="0.1006" style="stop-color:#04E9B7"/>
			<stop  offset="0.2548" style="stop-color:#0FD4B5"/>
			<stop  offset="0.4434" style="stop-color:#20B1B4"/>
			<stop  offset="0.6591" style="stop-color:#3880B1"/>
			<stop  offset="0.8946" style="stop-color:#5743AE"/>
			<stop  offset="1" style="stop-color:#6625AC"/>
		</radialGradient>
		<path class="st3" d="M43.9,41.2c0,3.8-8.2,6.8-18.3,6.8s-18.3-3-18.3-6.8c0-1.2,4.2-2.5,4.2-7.6h28.9
			C40.5,38.6,43.9,39.9,43.9,41.2z"/>
		<radialGradient id="SVGID_4_" cx="25.9174" cy="7.5476" r="35.1801" gradientUnits="userSpaceOnUse">
			<stop  offset="0.4063" style="stop-color:#00F1B7"/>
			<stop  offset="0.7383" style="stop-color:#3A7DB1"/>
			<stop  offset="1" style="stop-color:#6625AC"/>
		</radialGradient>
		<ellipse class="st4" cx="26.1" cy="22.5" rx="19.6" ry="20.4"/>
		<g>
			<g>
				<linearGradient id="SVGID_5_" gradientUnits="userSpaceOnUse" x1="26.0885" y1="12.3192" x2="26.0885" y2="36.5619">
					<stop  offset="0" style="stop-color:#6625AC"/>
					<stop  offset="1" style="stop-color:#DADADA"/>
				</linearGradient>
				<path class="st5" d="M40.5,31c-11.9,5.1-17,5.1-28.9,0c-0.8-3.4-1.7-8.5,0-16.1c7.6-3.4,21.2-3.4,28.9,0
					C42.2,22.5,41.4,27.6,40.5,31z"/>
			</g>
			<defs>
				<filter id="Adobe_OpacityMaskFilter" filterUnits="userSpaceOnUse" x="10.7" y="12.3" width="30.9" height="22.5">
					
						<feColorMatrix  type="matrix" values="-1 0 0 0 1  0 -1 0 0 1  0 0 -1 0 1  0 0 0 1 0" color-interpolation-filters="sRGB" result="source"/>
				</filter>
			</defs>
			<mask maskUnits="userSpaceOnUse" x="10.7" y="12.3" width="30.9" height="22.5" id="SVGID_6_">
				<g class="st6">
					
						<image style="overflow:visible;" width="36" height="27" xlink:href="16D6DBC9004392B0.jpg"  transform="matrix(1 0 0 1 8 10)">
					</image>
				</g>
			</mask>
			<g class="st7">
				<path d="M40.5,31c-11.9,5.1-17,5.1-28.9,0c-0.8-3.4-1.7-8.5,0-16.1c7.6-3.4,21.2-3.4,28.9,0C42.2,22.5,41.4,27.6,40.5,31z"/>
			</g>
		</g>
		<g>
			<g>
				<radialGradient id="SVGID_7_" cx="33.3122" cy="22.0521" r="5.524" gradientUnits="userSpaceOnUse">
					<stop  offset="0.6372" style="stop-color:#FFFFFF"/>
					<stop  offset="0.7514" style="stop-color:#F9F9F9"/>
					<stop  offset="0.8976" style="stop-color:#E9E9E9"/>
					<stop  offset="1" style="stop-color:#DADADA"/>
				</radialGradient>
				<circle class="st8" cx="33.3" cy="22.1" r="5.5"/>
			</g>
			<defs>
				<filter id="Adobe_OpacityMaskFilter_1_" filterUnits="userSpaceOnUse" x="27.8" y="16.5" width="11" height="11">
					
						<feColorMatrix  type="matrix" values="-1 0 0 0 1  0 -1 0 0 1  0 0 -1 0 1  0 0 0 1 0" color-interpolation-filters="sRGB" result="source"/>
				</filter>
			</defs>
			<mask maskUnits="userSpaceOnUse" x="27.8" y="16.5" width="11" height="11" id="SVGID_8_">
				<g class="st9">
					
						<image style="overflow:visible;" width="16" height="16" xlink:href="16D6DBC9004392B1.jpg"  transform="matrix(1 0 0 1 25 14)">
					</image>
				</g>
			</mask>
			<g class="st10">
				<circle cx="33.3" cy="22.1" r="5.5"/>
			</g>
		</g>
		<radialGradient id="SVGID_9_" cx="26.0916" cy="7.1798" r="3.3994" gradientUnits="userSpaceOnUse">
			<stop  offset="0.2296" style="stop-color:#6625AC"/>
			<stop  offset="0.5298" style="stop-color:#6527AC"/>
			<stop  offset="0.638" style="stop-color:#622EAC"/>
			<stop  offset="0.7151" style="stop-color:#5C39AD"/>
			<stop  offset="0.7775" style="stop-color:#534AAE"/>
			<stop  offset="0.8309" style="stop-color:#4860AF"/>
			<stop  offset="0.8782" style="stop-color:#3B7CB1"/>
			<stop  offset="0.921" style="stop-color:#2A9CB2"/>
			<stop  offset="0.9602" style="stop-color:#18C2B4"/>
			<stop  offset="0.9953" style="stop-color:#03EBB7"/>
			<stop  offset="1" style="stop-color:#00F1B7"/>
		</radialGradient>
		<circle class="st11" cx="26.1" cy="7.2" r="3.4"/>
		<g>
			<g>
				<radialGradient id="SVGID_10_" cx="18.8648" cy="22.0521" r="5.524" gradientUnits="userSpaceOnUse">
					<stop  offset="0.6372" style="stop-color:#FFFFFF"/>
					<stop  offset="0.7514" style="stop-color:#F9F9F9"/>
					<stop  offset="0.8976" style="stop-color:#E9E9E9"/>
					<stop  offset="1" style="stop-color:#DADADA"/>
				</radialGradient>
				<circle class="st12" cx="18.9" cy="22.1" r="5.5"/>
			</g>
			<defs>
				<filter id="Adobe_OpacityMaskFilter_2_" filterUnits="userSpaceOnUse" x="13.3" y="16.5" width="11" height="11">
					
						<feColorMatrix  type="matrix" values="-1 0 0 0 1  0 -1 0 0 1  0 0 -1 0 1  0 0 0 1 0" color-interpolation-filters="sRGB" result="source"/>
				</filter>
			</defs>
			<mask maskUnits="userSpaceOnUse" x="13.3" y="16.5" width="11" height="11" id="SVGID_11_">
				<g class="st13">
					
						<image style="overflow:visible;" width="16" height="16" xlink:href="16D6DBC9004392B7.jpg"  transform="matrix(1 0 0 1 11 14)">
					</image>
				</g>
			</mask>
			<g class="st14">
				<circle cx="18.9" cy="22.1" r="5.5"/>
			</g>
		</g>
		<g>
			<g>
				<path class="st15" d="M28.6,30.1c0,1.4-1.1,2.5-2.5,2.5c-1.4,0-2.5-1.1-2.5-2.5H28.6z"/>
			</g>
			<defs>
				<filter id="Adobe_OpacityMaskFilter_3_" filterUnits="userSpaceOnUse" x="23.5" y="30.1" width="5.1" height="2.5">
					
						<feColorMatrix  type="matrix" values="-1 0 0 0 1  0 -1 0 0 1  0 0 -1 0 1  0 0 0 1 0" color-interpolation-filters="sRGB" result="source"/>
				</filter>
			</defs>
			<mask maskUnits="userSpaceOnUse" x="23.5" y="30.1" width="5.1" height="2.5" id="SVGID_12_">
				<g class="st16">
					
						<image style="overflow:visible;" width="10" height="7" xlink:href="16D6DBC9004392B2.jpg"  transform="matrix(1 0 0 1 21 28)">
					</image>
				</g>
			</mask>
			<g class="st17">
				<path d="M28.6,30.1c0,1.4-1.1,2.5-2.5,2.5c-1.4,0-2.5-1.1-2.5-2.5H28.6z"/>
			</g>
		</g>
		<g>
			<g>
				<ellipse class="st15" cx="26.1" cy="27.6" rx="1.7" ry="0.8"/>
			</g>
			<defs>
				<filter id="Adobe_OpacityMaskFilter_4_" filterUnits="userSpaceOnUse" x="24.4" y="26.7" width="3.4" height="1.7">
					
						<feColorMatrix  type="matrix" values="-1 0 0 0 1  0 -1 0 0 1  0 0 -1 0 1  0 0 0 1 0" color-interpolation-filters="sRGB" result="source"/>
				</filter>
			</defs>
			<mask maskUnits="userSpaceOnUse" x="24.4" y="26.7" width="3.4" height="1.7" id="SVGID_13_">
				<g class="st18">
					<image style="overflow:visible;" width="8" height="7" xlink:href="16D6DBC9004392B3.jpg"  transform="matrix(1 0 0 1 22 24)">
					</image>
				</g>
			</mask>
			<g class="st19">
				<ellipse cx="26.1" cy="27.6" rx="1.7" ry="0.8"/>
			</g>
		</g>
		<path class="st20" d="M24.6,8.2h1.9L26.1,9L24.6,8.2z M26.6,7.6v0.5h-0.9L26.6,7.6z M25.1,7.3L26,7.8L25.6,8L25.1,7.3z M27.2,7.3
			l0.5,0.8L26.2,9L27.2,7.3z M26.7,7l0.4,0.2l-0.4,0.7V7z M25.6,7.5V6.9l0.5-0.3l0.5,0.3v0.6l-0.5,0.3L25.6,7.5z M25.1,7.2l0.4-0.7
			v1L25.1,7.2z M24.5,6.4l1,1.7h-1V6.4z M26.2,6.6l0.4-0.2L27,7L26.2,6.6z M25.6,6.3h0.9l-0.9,0.5V6.3z M26.7,6.3h1V8L26.7,6.3z
			 M24.5,6.2L26,5.4L25,7.1L24.5,6.2z M26.1,5.3l1.4,0.8h-1.9L26.1,5.3z M26.1,5.2l-1.7,1v2l1.7,1l1.6-0.9l0,0l0.1-0.1l0-2L26.1,5.2
			z"/>
	</g>
	<g>
		<polygon class="st15" points="19.5,22.2 19.5,22.2 21.1,22 19.5,21.9 19.5,21.9 19.5,21.9 21.4,19.5 19,21.4 19,21.4 18.9,19.8 
			18.8,21.4 18.7,21.4 16.4,19.5 18.2,21.9 18.2,21.9 18.2,21.9 16.7,22 18.2,22.2 18.2,22.2 18.2,22.2 16.4,24.6 18.7,22.7 
			18.7,22.7 18.8,22.7 18.9,24.2 19,22.7 19,22.7 19,22.7 21.4,24.6 19.5,22.2 		"/>
	</g>
	<polygon class="st15" points="34,22.5 34,22.5 35.5,22.4 34,22.2 34,22.2 34,22.2 35.8,19.9 33.5,21.7 33.4,21.7 33.3,20.2 
		33.2,21.7 33.1,21.7 30.8,19.9 32.7,22.2 32.7,22.2 32.7,22.2 31.1,22.4 32.7,22.5 32.7,22.5 32.7,22.5 30.8,24.9 33.1,23 33.1,23 
		33.2,23 33.3,24.6 33.4,23 33.5,23 33.5,23 35.8,24.9 34,22.5 	"/>
</g>
</svg>
